M48
; DRILL file {KiCad 9.0.9-9.0.9~ubuntu24.04.1} date 2026-07-21T11:07:11-0700
; FORMAT={-:-/ absolute / metric / decimal}
; #@! TF.CreationDate,2026-07-21T11:07:11-07:00
; #@! TF.GenerationSoftware,Kicad,Pcbnew,9.0.9-9.0.9~ubuntu24.04.1
; #@! TF.FileFunction,Plated,1,4,PTH
FMAT,2
METRIC
; #@! TA.AperFunction,Plated,PTH,ComponentDrill
T1C0.200
; #@! TA.AperFunction,Plated,PTH,ViaDrill
T2C0.250
; #@! TA.AperFunction,Plated,PTH,ViaDrill
T3C0.300
; #@! TA.AperFunction,Plated,PTH,ComponentDrill
T4C0.711
; #@! TA.AperFunction,Plated,PTH,ComponentDrill
T5C0.991
; #@! TA.AperFunction,Plated,PTH,ComponentDrill
T6C1.000
; #@! TA.AperFunction,Plated,PTH,ComponentDrill
T7C1.200
; #@! TA.AperFunction,Plated,PTH,ComponentDrill
T8C1.295
%
G90
G05
T1
X168.775Y-59.515
X168.775Y-60.505
X169.765Y-58.525
X169.765Y-59.515
X169.765Y-60.505
X169.765Y-61.495
X170.755Y-58.525
X170.755Y-59.515
X170.755Y-60.505
X170.755Y-61.495
X171.745Y-59.515
X171.745Y-60.505
T2
X78.08Y-93.89
X91.3Y-132.8
X93.1Y-134.9
X94.29Y-51.9
X94.74Y-114.03
X96.68Y-75.88
X97.29Y-76.65
X97.5Y-75.79
X97.98Y-77.48
X98.3Y-76.57
X98.73Y-78.31
X100.01Y-72.96
X100.96Y-73.76
X101.13Y-72.93
X101.89Y-73.57
X102.14Y-44.4
X102.66Y-74.34
X104.4Y-79.9
X104.434Y-49.634
X105.39Y-41.98
X105.69Y-145.38
X106.7Y-73.2
X110.621Y-49.967
X111.06Y-106.68
X111.121Y-49.415
X111.121Y-50.505
X111.14Y-78.97
X111.238Y-73.798
X111.32Y-60.98
X111.36Y-92.54
X111.671Y-49.967
X111.93Y-65.89
X111.96Y-78.33
X112.19Y-52.84
X112.9Y-62.4
X114.895Y-43.77
X115.02Y-52.94
X115.53Y-89.44
X115.6Y-81.9
X115.6Y-83.4
X115.753Y-54.947
X115.81Y-56.29
X116.4Y-82.7
X116.4Y-84.3
X117.0Y-82.0
X117.1Y-85.0
X117.18Y-55.06
X117.2Y-83.5
X117.22Y-112.76
X117.633Y-46.528
X117.9Y-82.7
X118.0Y-84.2
X118.41Y-89.71
X118.7Y-83.4
X118.7Y-85.0
X119.5Y-84.2
X119.69Y-86.05
X119.8Y-35.0
X120.06Y-91.67
X120.11Y-55.22
X120.67Y-140.18
X120.74Y-70.48
X121.0Y-91.1
X122.38Y-90.96
X122.4Y-34.2
X122.4Y-90.09
X122.5Y-93.986
X123.5Y-73.1
X124.3Y-77.1
X124.47Y-69.43
X124.5Y-78.2
X124.87Y-69.94
X125.027Y-69.107
X125.07Y-95.0
X125.2Y-76.2
X125.3Y-78.8
X125.4Y-77.3
X125.42Y-70.41
X125.44Y-85.54
X125.496Y-69.636
X125.872Y-67.574
X125.959Y-70.064
X126.0Y-75.6
X126.078Y-80.541
X126.1Y-77.9
X126.37Y-67.96
X126.85Y-68.39
X127.2Y-68.92
X127.2Y-72.8
X127.3Y-83.3
X127.62Y-55.55
X128.2Y-71.42
X128.29Y-62.3
X129.576Y-65.221
X129.94Y-100.0
X129.98Y-112.68
X130.596Y-64.2
X130.69Y-83.81
X130.7Y-67.16
X130.9Y-50.0
X131.0Y-130.4
X131.17Y-133.75
X131.85Y-130.33
X131.85Y-133.76
X132.3Y-91.6
X132.4Y-82.4
X132.43Y-87.43
X132.43Y-132.47
X132.48Y-98.69
X132.55Y-133.82
X132.58Y-128.38
X132.7Y-79.7
X132.71Y-130.16
X133.0Y-60.7
X133.1Y-60.01
X133.11Y-59.25
X133.77Y-58.81
X133.872Y-59.572
X134.0Y-62.0
X134.202Y-49.948
X134.3Y-62.7
X134.4Y-52.4
X134.45Y-59.85
X134.48Y-59.16
X134.99Y-60.53
X135.0Y-62.2
X135.0Y-62.9
X135.13Y-59.74
X135.4Y-61.6
X135.6Y-60.9
X135.7Y-62.8
X135.88Y-55.47
X135.892Y-48.258
X136.25Y-61.08
X140.3Y-58.4
X140.67Y-152.55
X140.927Y-43.393
X141.0Y-55.0
X141.1Y-114.2
X142.4Y-53.3
X142.7Y-56.4
X142.7Y-58.9
X143.4Y-111.5
X143.7Y-54.4
X144.1Y-51.7
X144.966Y-38.686
X145.02Y-47.39
X145.1Y-56.4
X145.8Y-54.5
X145.9Y-49.8
X146.3Y-117.92
X146.62Y-45.79
X146.7Y-32.05
X146.7Y-108.1
X146.8Y-51.4
X147.0Y-116.8
X147.5Y-56.0
X147.6Y-53.5
X148.0Y-119.3
X148.22Y-44.19
X148.9Y-55.1
X149.1Y-51.5
X149.5Y-53.4
X149.8Y-105.2
X149.87Y-42.54
X150.0Y-62.1
X150.4Y-51.5
X150.5Y-55.1
X150.7Y-49.2
X151.3Y-112.6
X151.4Y-53.3
X151.5Y-64.0
X152.1Y-62.1
X152.5Y-51.6
X152.6Y-49.3
X152.8Y-55.1
X153.0Y-65.6
X153.1Y-101.7
X153.7Y-53.3
X154.3Y-49.3
X154.4Y-109.4
X154.4Y-112.6
X154.6Y-51.6
X154.6Y-116.4
X154.7Y-126.3
X155.3Y-55.2
X155.3Y-66.1
X155.9Y-53.3
X156.4Y-51.6
X156.4Y-107.1
X156.5Y-68.7
X156.6Y-49.3
X156.6Y-98.3
X157.08Y-120.22
X157.1Y-60.7
X157.11Y-124.09
X157.2Y-63.7
X157.314Y-38.386
X157.4Y-118.2
X157.6Y-55.3
X157.8Y-53.7
X157.9Y-52.0
X158.3Y-70.1
X158.3Y-124.3
X158.5Y-62.4
X158.9Y-56.6
X159.0Y-58.8
X159.1Y-54.9
X159.1Y-95.6
X159.3Y-126.4
X159.4Y-53.5
X160.1Y-71.4
X160.6Y-56.4
X160.8Y-54.9
X161.6Y-70.7
X161.6Y-73.3
X161.7Y-93.3
X162.1Y-56.2
X163.0Y-75.0
X163.8Y-126.3
X163.92Y-137.84
X164.5Y-76.6
X165.0Y-73.1
X165.4Y-129.0
X165.8Y-89.1
X166.3Y-77.8
X167.666Y-48.534
X167.7Y-79.8
X167.8Y-110.4
X168.19Y-133.25
X168.6Y-86.8
X168.6Y-109.4
X168.9Y-124.3
X169.5Y-129.6
X169.56Y-146.95
X169.6Y-81.4
X170.1Y-74.2
X170.3Y-125.6
X170.55Y-138.23
X171.5Y-83.5
X173.0Y-120.1
X173.3Y-75.1
X173.5Y-73.75
X173.5Y-117.8
X173.6Y-129.1
X173.9Y-120.6
X174.01Y-132.607
X174.3Y-121.9
X174.457Y-72.99
X174.8Y-74.3
X174.8Y-119.7
X174.95Y-116.85
X175.04Y-71.83
X175.166Y-115.35
X175.517Y-108.88
X175.6Y-123.525
X175.7Y-73.4
X176.158Y-116.842
X176.2Y-105.0
X176.3Y-75.7
X176.3Y-121.32
X176.8Y-143.3
X177.0Y-74.6
X177.37Y-128.14
X178.3Y-73.7
X178.6Y-77.6
X178.7Y-75.8
X179.1Y-102.0
X179.2Y-138.2
X179.254Y-126.75
X179.327Y-108.88
X179.7Y-122.4
X180.1Y-83.5
X180.2Y-74.0
X180.3Y-75.7
X181.257Y-108.857
X181.8Y-72.4
X182.0Y-99.3
X182.1Y-74.1
X182.967Y-61.799
X183.2Y-69.9
X183.4Y-108.1
X184.0Y-136.9
X184.9Y-129.0
X185.0Y-96.3
X185.1Y-72.1
X185.66Y-105.7
X185.8Y-108.8
X188.972Y-74.578
X189.8Y-67.8
X190.1Y-91.6
X190.48Y-95.95
X190.67Y-128.98
X192.0Y-72.8
X192.33Y-126.02
X192.6Y-75.2
X192.6Y-77.3
X192.6Y-82.7
X192.6Y-85.1
X192.6Y-87.7
X192.7Y-80.3
X192.9Y-71.0
X193.7Y-63.3
X194.7Y-73.2
X195.6Y-101.9
X195.65Y-106.55
X196.1Y-86.2
X196.9Y-70.0
X198.8Y-75.05
X201.34Y-95.71
T3
X129.838Y-128.0
X151.292Y-126.27
T4
X123.328Y-68.088
X126.369Y-65.047
X126.722Y-71.482
X129.763Y-68.441
T5
X137.35Y-36.45
X141.85Y-36.45
T6
X197.68Y-77.66
X197.68Y-80.2
X197.68Y-82.74
X197.68Y-85.28
X197.68Y-87.82
X197.68Y-90.36
X197.68Y-92.9
X197.68Y-95.44
X197.68Y-97.98
X197.68Y-100.52
X197.68Y-103.06
X197.68Y-105.6
X197.68Y-108.14
X197.68Y-110.68
T7
X84.675Y-68.188
X84.675Y-119.412
X113.988Y-38.875
X165.212Y-38.875
X194.525Y-68.188
X194.525Y-119.412
T8
X136.095Y-38.94
X143.105Y-38.94
M30
