G04 #@! TF.GenerationSoftware,KiCad,Pcbnew,9.0.9-9.0.9~ubuntu24.04.1*
G04 #@! TF.CreationDate,2026-07-21T11:07:11-07:00*
G04 #@! TF.ProjectId,dbz-radar,64627a2d-7261-4646-9172-2e6b69636164,rev?*
G04 #@! TF.SameCoordinates,Original*
G04 #@! TF.FileFunction,Soldermask,Top*
G04 #@! TF.FilePolarity,Negative*
%FSLAX46Y46*%
G04 Gerber Fmt 4.6, Leading zero omitted, Abs format (unit mm)*
G04 Created by KiCad (PCBNEW 9.0.9-9.0.9~ubuntu24.04.1) date 2026-07-21 11:07:11*
%MOMM*%
%LPD*%
G01*
G04 APERTURE LIST*
G04 Aperture macros list*
%AMRoundRect*
0 Rectangle with rounded corners*
0 $1 Rounding radius*
0 $2 $3 $4 $5 $6 $7 $8 $9 X,Y pos of 4 corners*
0 Add a 4 corners polygon primitive as box body*
4,1,4,$2,$3,$4,$5,$6,$7,$8,$9,$2,$3,0*
0 Add four circle primitives for the rounded corners*
1,1,$1+$1,$2,$3*
1,1,$1+$1,$4,$5*
1,1,$1+$1,$6,$7*
1,1,$1+$1,$8,$9*
0 Add four rect primitives between the rounded corners*
20,1,$1+$1,$2,$3,$4,$5,0*
20,1,$1+$1,$4,$5,$6,$7,0*
20,1,$1+$1,$6,$7,$8,$9,0*
20,1,$1+$1,$8,$9,$2,$3,0*%
%AMHorizOval*
0 Thick line with rounded ends*
0 $1 width*
0 $2 $3 position (X,Y) of the first rounded end (center of the circle)*
0 $4 $5 position (X,Y) of the second rounded end (center of the circle)*
0 Add line between two ends*
20,1,$1,$2,$3,$4,$5,0*
0 Add two circle primitives to create the rounded ends*
1,1,$1,$2,$3*
1,1,$1,$4,$5*%
%AMRotRect*
0 Rectangle, with rotation*
0 The origin of the aperture is its center*
0 $1 length*
0 $2 width*
0 $3 Rotation angle, in degrees counterclockwise*
0 Add horizontal line*
21,1,$1,$2,0,0,$3*%
G04 Aperture macros list end*
%ADD10RoundRect,0.162500X-0.321734X-0.551543X0.551543X0.321734X0.321734X0.551543X-0.551543X-0.321734X0*%
%ADD11RoundRect,0.250000X0.070711X-0.565685X0.565685X-0.070711X-0.070711X0.565685X-0.565685X0.070711X0*%
%ADD12RoundRect,0.250000X-0.565685X-0.070711X-0.070711X-0.565685X0.565685X0.070711X0.070711X0.565685X0*%
%ADD13C,2.000000*%
%ADD14RoundRect,0.250000X-0.475000X0.337500X-0.475000X-0.337500X0.475000X-0.337500X0.475000X0.337500X0*%
%ADD15RoundRect,0.250000X-0.097227X0.574524X-0.574524X0.097227X0.097227X-0.574524X0.574524X-0.097227X0*%
%ADD16RoundRect,0.162500X0.321734X0.551543X-0.551543X-0.321734X-0.321734X-0.551543X0.551543X0.321734X0*%
%ADD17RoundRect,0.250000X-0.450000X0.350000X-0.450000X-0.350000X0.450000X-0.350000X0.450000X0.350000X0*%
%ADD18C,2.200000*%
%ADD19RoundRect,0.250000X-0.070711X0.565685X-0.565685X0.070711X0.070711X-0.565685X0.565685X-0.070711X0*%
%ADD20RoundRect,0.250000X0.548008X0.088388X0.088388X0.548008X-0.548008X-0.088388X-0.088388X-0.548008X0*%
%ADD21RoundRect,0.250000X0.565685X0.070711X0.070711X0.565685X-0.565685X-0.070711X-0.070711X-0.565685X0*%
%ADD22RoundRect,0.250000X0.350000X0.450000X-0.350000X0.450000X-0.350000X-0.450000X0.350000X-0.450000X0*%
%ADD23RoundRect,0.250000X-0.574524X-0.097227X-0.097227X-0.574524X0.574524X0.097227X0.097227X0.574524X0*%
%ADD24RoundRect,0.250000X-0.337500X-0.475000X0.337500X-0.475000X0.337500X0.475000X-0.337500X0.475000X0*%
%ADD25RoundRect,0.250000X0.450000X-0.350000X0.450000X0.350000X-0.450000X0.350000X-0.450000X-0.350000X0*%
%ADD26RoundRect,0.250000X0.475000X-0.337500X0.475000X0.337500X-0.475000X0.337500X-0.475000X-0.337500X0*%
%ADD27RoundRect,0.250000X-0.548008X-0.088388X-0.088388X-0.548008X0.548008X0.088388X0.088388X0.548008X0*%
%ADD28RoundRect,0.100000X-0.100000X0.637500X-0.100000X-0.637500X0.100000X-0.637500X0.100000X0.637500X0*%
%ADD29R,0.250000X1.100000*%
%ADD30R,1.700000X1.500000*%
%ADD31RotRect,1.050000X0.650000X225.000000*%
%ADD32RoundRect,0.250000X0.574524X0.097227X0.097227X0.574524X-0.574524X-0.097227X-0.097227X-0.574524X0*%
%ADD33RoundRect,0.225000X0.106066X-0.424264X0.424264X-0.106066X-0.106066X0.424264X-0.424264X0.106066X0*%
%ADD34RoundRect,0.250000X0.275000X0.350000X-0.275000X0.350000X-0.275000X-0.350000X0.275000X-0.350000X0*%
%ADD35C,1.498600*%
%ADD36C,1.803400*%
%ADD37RoundRect,0.162500X0.551543X-0.321734X-0.321734X0.551543X-0.551543X0.321734X0.321734X-0.551543X0*%
%ADD38RoundRect,0.250000X0.097227X-0.574524X0.574524X-0.097227X-0.097227X0.574524X-0.574524X0.097227X0*%
%ADD39RoundRect,0.150000X-0.200000X0.150000X-0.200000X-0.150000X0.200000X-0.150000X0.200000X0.150000X0*%
%ADD40RoundRect,0.250000X0.751301X0.167938X0.167938X0.751301X-0.751301X-0.167938X-0.167938X-0.751301X0*%
%ADD41C,0.711200*%
%ADD42HorizOval,0.711200X0.000000X0.000000X0.000000X0.000000X0*%
%ADD43RotRect,0.304800X0.838200X315.000000*%
%ADD44C,1.092200*%
%ADD45RotRect,1.500000X0.900000X315.000000*%
%ADD46RotRect,1.500000X0.900000X135.000000*%
%ADD47RotRect,1.500000X0.900000X225.000000*%
%ADD48C,0.600000*%
%ADD49RotRect,3.900000X3.900000X225.000000*%
%ADD50RoundRect,0.250000X-0.350000X-0.450000X0.350000X-0.450000X0.350000X0.450000X-0.350000X0.450000X0*%
%ADD51RoundRect,0.250000X1.590990X-1.944544X1.944544X-1.590990X-1.590990X1.944544X-1.944544X1.590990X0*%
%ADD52RoundRect,0.250000X0.494975X-1.272792X1.272792X-0.494975X-0.494975X1.272792X-1.272792X0.494975X0*%
%ADD53RoundRect,0.200000X-0.459619X-0.176777X-0.176777X-0.459619X0.459619X0.176777X0.176777X0.459619X0*%
%ADD54RoundRect,0.250001X-1.449567X-0.318198X-0.318198X-1.449567X1.449567X0.318198X0.318198X1.449567X0*%
%ADD55RoundRect,0.225000X-0.225000X-0.375000X0.225000X-0.375000X0.225000X0.375000X-0.225000X0.375000X0*%
%ADD56RoundRect,0.250000X0.450000X-0.325000X0.450000X0.325000X-0.450000X0.325000X-0.450000X-0.325000X0*%
%ADD57RoundRect,0.250000X0.088388X-0.548008X0.548008X-0.088388X-0.088388X0.548008X-0.548008X0.088388X0*%
%ADD58RoundRect,0.150000X-0.521491X0.309359X0.309359X-0.521491X0.521491X-0.309359X-0.309359X0.521491X0*%
%ADD59R,1.050000X0.650000*%
%ADD60RoundRect,0.062500X0.203293X0.291682X-0.291682X-0.203293X-0.203293X-0.291682X0.291682X0.203293X0*%
%ADD61RoundRect,0.062500X-0.203293X0.291682X-0.291682X0.203293X0.203293X-0.291682X0.291682X-0.203293X0*%
%ADD62RotRect,1.230000X1.230000X225.000000*%
%ADD63RoundRect,0.062500X-0.274004X0.185616X0.185616X-0.274004X0.274004X-0.185616X-0.185616X0.274004X0*%
%ADD64RotRect,0.800000X1.200000X315.000000*%
%ADD65RoundRect,0.100000X-0.562500X-0.100000X0.562500X-0.100000X0.562500X0.100000X-0.562500X0.100000X0*%
%ADD66RoundRect,0.150000X0.247487X0.035355X0.035355X0.247487X-0.247487X-0.035355X-0.035355X-0.247487X0*%
%ADD67R,1.700000X1.700000*%
%ADD68C,1.700000*%
%ADD69RoundRect,0.250000X0.337500X0.475000X-0.337500X0.475000X-0.337500X-0.475000X0.337500X-0.475000X0*%
G04 APERTURE END LIST*
D10*
G04 #@! TO.C,U1*
X128903770Y-64548785D03*
X129575522Y-65220536D03*
X130247273Y-65892288D03*
X132156462Y-63983099D03*
X131484710Y-63311348D03*
X130812959Y-62639596D03*
G04 #@! TD*
D11*
G04 #@! TO.C,R42*
X153229615Y-70178753D03*
X154643829Y-68764539D03*
G04 #@! TD*
D12*
G04 #@! TO.C,R45*
X142572893Y-48432893D03*
X143987107Y-49847107D03*
G04 #@! TD*
D13*
G04 #@! TO.C,TP3*
X121700000Y-82500000D03*
G04 #@! TD*
D14*
G04 #@! TO.C,C7*
X163910000Y-134592500D03*
X163910000Y-136667500D03*
G04 #@! TD*
D15*
G04 #@! TO.C,C3*
X126078007Y-80540688D03*
X124610761Y-82007934D03*
G04 #@! TD*
D12*
G04 #@! TO.C,R66*
X180434065Y-78767512D03*
X181848279Y-80181726D03*
G04 #@! TD*
D16*
G04 #@! TO.C,U3*
X128995741Y-82903344D03*
X128323989Y-82231593D03*
X127652238Y-81559841D03*
X125743049Y-83469030D03*
X127086552Y-84812533D03*
G04 #@! TD*
D17*
G04 #@! TO.C,R19*
X144400000Y-119100000D03*
X144400000Y-121100000D03*
G04 #@! TD*
D12*
G04 #@! TO.C,R60*
X178807719Y-80393858D03*
X180221933Y-81808072D03*
G04 #@! TD*
D18*
G04 #@! TO.C,H3*
X113987821Y-38874504D03*
G04 #@! TD*
D19*
G04 #@! TO.C,R57*
X108250511Y-53624983D03*
X106836297Y-55039197D03*
G04 #@! TD*
D17*
G04 #@! TO.C,R33*
X185800000Y-109900000D03*
X185800000Y-111900000D03*
G04 #@! TD*
D20*
G04 #@! TO.C,D4*
X127304784Y-88534784D03*
X125855216Y-87085216D03*
G04 #@! TD*
D19*
G04 #@! TO.C,R64*
X166028248Y-80148958D03*
X164614034Y-81563172D03*
G04 #@! TD*
D21*
G04 #@! TO.C,R31*
X143067868Y-45533754D03*
X141653654Y-44119540D03*
G04 #@! TD*
D22*
G04 #@! TO.C,R15*
X156000000Y-120270000D03*
X154000000Y-120270000D03*
G04 #@! TD*
D23*
G04 #@! TO.C,C16*
X101543959Y-75432579D03*
X103011205Y-76899825D03*
G04 #@! TD*
D15*
G04 #@! TO.C,C21*
X168933623Y-46966377D03*
X167466377Y-48433623D03*
G04 #@! TD*
D24*
G04 #@! TO.C,C15*
X151292500Y-126270000D03*
X153367500Y-126270000D03*
G04 #@! TD*
D18*
G04 #@! TO.C,H4*
X165212179Y-38874504D03*
G04 #@! TD*
D17*
G04 #@! TO.C,R22*
X179326800Y-109900000D03*
X179326800Y-111900000D03*
G04 #@! TD*
D21*
G04 #@! TO.C,R30*
X136397961Y-52143874D03*
X134983747Y-50729660D03*
G04 #@! TD*
D25*
G04 #@! TO.C,R29*
X176070000Y-135460000D03*
X176070000Y-133460000D03*
G04 #@! TD*
D12*
G04 #@! TO.C,R8*
X126920170Y-76619889D03*
X128334384Y-78034103D03*
G04 #@! TD*
D26*
G04 #@! TO.C,C10*
X157018800Y-134678900D03*
X157018800Y-132603900D03*
G04 #@! TD*
D13*
G04 #@! TO.C,FID1*
X93100000Y-133000000D03*
G04 #@! TD*
D27*
G04 #@! TO.C,D6*
X112810000Y-72180000D03*
X114259568Y-73629568D03*
G04 #@! TD*
D19*
G04 #@! TO.C,R36*
X115565636Y-45865153D03*
X114151422Y-47279367D03*
G04 #@! TD*
D28*
G04 #@! TO.C,U6*
X178850000Y-117800000D03*
X178200000Y-117800000D03*
X177550000Y-117800000D03*
X176900000Y-117800000D03*
X176250000Y-117800000D03*
X175600000Y-117800000D03*
X174950000Y-117800000D03*
X174300000Y-117800000D03*
X174300000Y-123525000D03*
X174950000Y-123525000D03*
X175600000Y-123525000D03*
X176250000Y-123525000D03*
X176900000Y-123525000D03*
X177550000Y-123525000D03*
X178200000Y-123525000D03*
X178850000Y-123525000D03*
G04 #@! TD*
D29*
G04 #@! TO.C,J3*
X149350000Y-131390000D03*
X148850000Y-131390000D03*
X148350000Y-131390000D03*
X147850000Y-131390000D03*
X147350000Y-131390000D03*
X146850000Y-131390000D03*
X146350000Y-131390000D03*
X145850000Y-131390000D03*
X145350000Y-131390000D03*
X144850000Y-131390000D03*
X144350000Y-131390000D03*
X143850000Y-131390000D03*
X143350000Y-131390000D03*
X142850000Y-131390000D03*
X142350000Y-131390000D03*
X141850000Y-131390000D03*
X141350000Y-131390000D03*
X140850000Y-131390000D03*
X140350000Y-131390000D03*
X139850000Y-131390000D03*
X139350000Y-131390000D03*
X138850000Y-131390000D03*
X138350000Y-131390000D03*
X137850000Y-131390000D03*
X137350000Y-131390000D03*
X136850000Y-131390000D03*
X136350000Y-131390000D03*
X135850000Y-131390000D03*
X135350000Y-131390000D03*
X134850000Y-131390000D03*
X134350000Y-131390000D03*
X133850000Y-131390000D03*
X133350000Y-131390000D03*
X132850000Y-131390000D03*
X132350000Y-131390000D03*
X131850000Y-131390000D03*
X131350000Y-131390000D03*
X130850000Y-131390000D03*
X130350000Y-131390000D03*
X129850000Y-131390000D03*
D30*
X128200000Y-135290000D03*
X151000000Y-135290000D03*
G04 #@! TD*
D12*
G04 #@! TO.C,R65*
X186798026Y-72403551D03*
X188212240Y-73817765D03*
G04 #@! TD*
D23*
G04 #@! TO.C,C19*
X105866377Y-48166377D03*
X107333623Y-49633623D03*
G04 #@! TD*
D18*
G04 #@! TO.C,H5*
X194525496Y-68187821D03*
G04 #@! TD*
D31*
G04 #@! TO.C,SW2*
X163834457Y-91792893D03*
X160942391Y-94684960D03*
X162307107Y-90265543D03*
X159415040Y-93157609D03*
G04 #@! TD*
D25*
G04 #@! TO.C,R2*
X170550000Y-137230000D03*
X170550000Y-135230000D03*
G04 #@! TD*
D11*
G04 #@! TO.C,R10*
X128262893Y-86237107D03*
X129677107Y-84822893D03*
G04 #@! TD*
D32*
G04 #@! TO.C,C20*
X104433623Y-49573623D03*
X102966377Y-48106377D03*
G04 #@! TD*
D23*
G04 #@! TO.C,C6*
X111666377Y-90766377D03*
X113133623Y-92233623D03*
G04 #@! TD*
D17*
G04 #@! TO.C,R24*
X173586400Y-109900000D03*
X173586400Y-111900000D03*
G04 #@! TD*
D19*
G04 #@! TO.C,R13*
X112607107Y-79992893D03*
X111192893Y-81407107D03*
G04 #@! TD*
D17*
G04 #@! TO.C,R23*
X175516800Y-109900000D03*
X175516800Y-111900000D03*
G04 #@! TD*
D33*
G04 #@! TO.C,D7*
X113733274Y-78866726D03*
X116066726Y-76533274D03*
G04 #@! TD*
D19*
G04 #@! TO.C,R1*
X129667107Y-58642893D03*
X128252893Y-60057107D03*
G04 #@! TD*
D21*
G04 #@! TO.C,R70*
X138077961Y-50443874D03*
X136663747Y-49029660D03*
G04 #@! TD*
D11*
G04 #@! TO.C,R53*
X158108652Y-75057791D03*
X159522866Y-73643577D03*
G04 #@! TD*
D13*
G04 #@! TO.C,FID3*
X182200000Y-137100000D03*
G04 #@! TD*
D11*
G04 #@! TO.C,R34*
X115516421Y-48644365D03*
X116930635Y-47230151D03*
G04 #@! TD*
D25*
G04 #@! TO.C,R26*
X177421800Y-111900000D03*
X177421800Y-109900000D03*
G04 #@! TD*
D12*
G04 #@! TO.C,R41*
X137623145Y-53382640D03*
X139037359Y-54796854D03*
G04 #@! TD*
D34*
G04 #@! TO.C,L1*
X168930000Y-131000000D03*
X166630000Y-131000000D03*
G04 #@! TD*
D11*
G04 #@! TO.C,R43*
X156482306Y-73431444D03*
X157896520Y-72017230D03*
G04 #@! TD*
D12*
G04 #@! TO.C,R54*
X144269949Y-46735836D03*
X145684163Y-48150050D03*
G04 #@! TD*
D35*
G04 #@! TO.C,SW3*
X137350000Y-36450000D03*
X141850001Y-36450000D03*
D36*
X136095000Y-38940299D03*
X143105001Y-38940299D03*
G04 #@! TD*
D13*
G04 #@! TO.C,TP6*
X154600000Y-131200000D03*
G04 #@! TD*
D37*
G04 #@! TO.C,U5*
X104823166Y-81610924D03*
X105494917Y-80939172D03*
X106166669Y-80267421D03*
X104257480Y-78358232D03*
X102913977Y-79701735D03*
G04 #@! TD*
D22*
G04 #@! TO.C,R16*
X156000400Y-118305600D03*
X154000400Y-118305600D03*
G04 #@! TD*
D13*
G04 #@! TO.C,TP2*
X173050000Y-135240000D03*
G04 #@! TD*
D18*
G04 #@! TO.C,H1*
X84674504Y-119412179D03*
G04 #@! TD*
D25*
G04 #@! TO.C,R28*
X183162200Y-111900000D03*
X183162200Y-109900000D03*
G04 #@! TD*
D11*
G04 #@! TO.C,R52*
X154855962Y-71805100D03*
X156270176Y-70390886D03*
G04 #@! TD*
D13*
G04 #@! TO.C,TP5*
X160660000Y-128720000D03*
G04 #@! TD*
D19*
G04 #@! TO.C,R71*
X147098377Y-36553498D03*
X145684163Y-37967712D03*
G04 #@! TD*
D21*
G04 #@! TO.C,R4*
X131377107Y-75307107D03*
X129962893Y-73892893D03*
G04 #@! TD*
D38*
G04 #@! TO.C,C13*
X116966377Y-88833623D03*
X118433623Y-87366377D03*
G04 #@! TD*
D39*
G04 #@! TO.C,D3*
X119620000Y-69550000D03*
X119620000Y-68150000D03*
G04 #@! TD*
D40*
G04 #@! TO.C,C5*
X117504854Y-70404854D03*
X115295146Y-68195146D03*
G04 #@! TD*
D12*
G04 #@! TO.C,R67*
X183686756Y-75514821D03*
X185100970Y-76929035D03*
G04 #@! TD*
D13*
G04 #@! TO.C,TP1*
X103310000Y-100490000D03*
G04 #@! TD*
D19*
G04 #@! TO.C,R69*
X164401903Y-78522613D03*
X162987689Y-79936827D03*
G04 #@! TD*
D41*
G04 #@! TO.C,J2*
X123893728Y-65612824D03*
D42*
X129197108Y-70916204D03*
D43*
X125190836Y-65729028D03*
X126251764Y-66789956D03*
X126605406Y-67143598D03*
X126959049Y-67497241D03*
X127312691Y-67850883D03*
X127666334Y-68204526D03*
X128019976Y-68558168D03*
X129080904Y-69619096D03*
X127900000Y-70800000D03*
X126839072Y-69739072D03*
X126485430Y-69385430D03*
X126131787Y-69031787D03*
X125778145Y-68678145D03*
X125424502Y-68324502D03*
X125070860Y-67970860D03*
X124009932Y-66909932D03*
D44*
X126368687Y-65047068D03*
X123327972Y-68087783D03*
X129762864Y-68441245D03*
X126722149Y-71481960D03*
G04 #@! TD*
D45*
G04 #@! TO.C,U8*
X170592391Y-49424662D03*
X169694365Y-50322688D03*
X168796339Y-51220713D03*
X167898314Y-52118739D03*
X167000288Y-53016764D03*
X166102263Y-53914790D03*
X165204237Y-54812816D03*
X164306211Y-55710841D03*
X163408186Y-56608867D03*
X162510160Y-57506893D03*
X161612135Y-58404918D03*
X160714109Y-59302944D03*
X159816083Y-60200969D03*
D46*
X158918058Y-61098995D03*
D47*
X159282218Y-63230922D03*
X160180243Y-64128948D03*
X161078269Y-65026973D03*
X161976295Y-65924999D03*
X162874320Y-66823024D03*
X163772346Y-67721050D03*
X164670371Y-68619076D03*
X165568397Y-69517101D03*
X166466423Y-70415127D03*
X167364448Y-71313152D03*
X168262474Y-72211178D03*
X169160499Y-73109204D03*
D45*
X171292426Y-73473364D03*
X172190452Y-72575338D03*
X173088478Y-71677312D03*
X173986503Y-70779287D03*
X174884529Y-69881261D03*
X175782554Y-68983236D03*
X176680580Y-68085210D03*
X177578606Y-67187184D03*
X178476631Y-66289159D03*
X179374657Y-65391133D03*
X180272683Y-64493107D03*
X181170708Y-63595082D03*
X182068734Y-62697056D03*
X182966759Y-61799031D03*
D48*
X169765076Y-58525126D03*
X168775126Y-59515076D03*
X170755025Y-58525126D03*
X169765076Y-59515076D03*
X168775126Y-60505025D03*
X170755025Y-59515076D03*
X169765076Y-60505025D03*
D49*
X170260051Y-60010051D03*
D48*
X171744975Y-59515076D03*
X170755025Y-60505025D03*
X169765076Y-61494975D03*
X171744975Y-60505025D03*
X170755025Y-61494975D03*
G04 #@! TD*
D21*
G04 #@! TO.C,R21*
X101598759Y-78336171D03*
X100184545Y-76921957D03*
G04 #@! TD*
D32*
G04 #@! TO.C,C14*
X104833623Y-84433623D03*
X103366377Y-82966377D03*
G04 #@! TD*
D21*
G04 #@! TO.C,R47*
X191476346Y-70603655D03*
X190062132Y-69189441D03*
G04 #@! TD*
D50*
G04 #@! TO.C,R18*
X153999600Y-122270000D03*
X155999600Y-122270000D03*
G04 #@! TD*
D51*
G04 #@! TO.C,J1*
X100159786Y-96417992D03*
X101573999Y-95003779D03*
D52*
X96871739Y-96524058D03*
X101680065Y-91715732D03*
G04 #@! TD*
D12*
G04 #@! TO.C,R62*
X185171680Y-74029897D03*
X186585894Y-75444111D03*
G04 #@! TD*
D53*
G04 #@! TO.C,J4*
X102806496Y-56820116D03*
X103690379Y-57703999D03*
D54*
X99058830Y-56961537D03*
X103548958Y-61451665D03*
G04 #@! TD*
D32*
G04 #@! TO.C,C11*
X131033623Y-80733623D03*
X129566377Y-79266377D03*
G04 #@! TD*
D21*
G04 #@! TO.C,R55*
X108722681Y-48195353D03*
X107308467Y-46781139D03*
G04 #@! TD*
D26*
G04 #@! TO.C,C2*
X170904201Y-132617500D03*
X170904201Y-130542500D03*
G04 #@! TD*
D25*
G04 #@! TO.C,R12*
X146300000Y-121100000D03*
X146300000Y-119100000D03*
G04 #@! TD*
D19*
G04 #@! TO.C,R68*
X167689949Y-81739949D03*
X166275735Y-83154163D03*
G04 #@! TD*
D12*
G04 #@! TO.C,R39*
X150846042Y-40301165D03*
X152260256Y-41715379D03*
G04 #@! TD*
D11*
G04 #@! TO.C,R5*
X108956901Y-90942865D03*
X110371115Y-89528651D03*
G04 #@! TD*
D13*
G04 #@! TO.C,TP8*
X107700000Y-85600000D03*
G04 #@! TD*
G04 #@! TO.C,TP10*
X99120000Y-74540000D03*
G04 #@! TD*
D11*
G04 #@! TO.C,R44*
X159734997Y-76684135D03*
X161149211Y-75269921D03*
G04 #@! TD*
D12*
G04 #@! TO.C,R61*
X182060412Y-77141167D03*
X183474626Y-78555381D03*
G04 #@! TD*
D26*
G04 #@! TO.C,C8*
X159000000Y-134678900D03*
X159000000Y-132603900D03*
G04 #@! TD*
D13*
G04 #@! TO.C,FID2*
X121300000Y-35600000D03*
G04 #@! TD*
D17*
G04 #@! TO.C,R6*
X161980000Y-134630000D03*
X161980000Y-136630000D03*
G04 #@! TD*
D12*
G04 #@! TO.C,R11*
X111237677Y-73797677D03*
X112651891Y-75211891D03*
G04 #@! TD*
G04 #@! TO.C,R40*
X147522640Y-43483145D03*
X148936854Y-44897359D03*
G04 #@! TD*
D23*
G04 #@! TO.C,C22*
X105498663Y-56382347D03*
X106965909Y-57849593D03*
G04 #@! TD*
D12*
G04 #@! TO.C,R46*
X152260256Y-38886951D03*
X153674470Y-40301165D03*
G04 #@! TD*
D32*
G04 #@! TO.C,C23*
X104164069Y-55011832D03*
X102696823Y-53544586D03*
G04 #@! TD*
D13*
G04 #@! TO.C,TP14*
X149900000Y-34100000D03*
G04 #@! TD*
D19*
G04 #@! TO.C,R27*
X93884991Y-80599010D03*
X92470777Y-82013224D03*
G04 #@! TD*
D21*
G04 #@! TO.C,R9*
X110601891Y-69991891D03*
X109187677Y-68577677D03*
G04 #@! TD*
D11*
G04 #@! TO.C,R37*
X167847701Y-84807470D03*
X169261915Y-83393256D03*
G04 #@! TD*
D55*
G04 #@! TO.C,D5*
X161840000Y-132590000D03*
X165140000Y-132590000D03*
G04 #@! TD*
D56*
G04 #@! TO.C,D9*
X176070000Y-131684999D03*
X176070000Y-129635001D03*
G04 #@! TD*
D32*
G04 #@! TO.C,C18*
X155133623Y-39033623D03*
X153666377Y-37566377D03*
G04 #@! TD*
D19*
G04 #@! TO.C,R59*
X162775557Y-76896267D03*
X161361343Y-78310481D03*
G04 #@! TD*
D57*
G04 #@! TO.C,D8*
X95129216Y-79354784D03*
X96578784Y-77905216D03*
G04 #@! TD*
D50*
G04 #@! TO.C,R17*
X154000000Y-124170000D03*
X156000000Y-124170000D03*
G04 #@! TD*
D15*
G04 #@! TO.C,C24*
X148539106Y-37941196D03*
X147071860Y-39408442D03*
G04 #@! TD*
D11*
G04 #@! TO.C,R7*
X130492893Y-87307107D03*
X131907107Y-85892893D03*
G04 #@! TD*
D12*
G04 #@! TO.C,R32*
X155107107Y-36178679D03*
X156521321Y-37592893D03*
G04 #@! TD*
D26*
G04 #@! TO.C,C1*
X172860000Y-132617500D03*
X172860000Y-130542500D03*
G04 #@! TD*
D21*
G04 #@! TO.C,R58*
X142290050Y-51544164D03*
X140875836Y-50129950D03*
G04 #@! TD*
D19*
G04 #@! TO.C,R3*
X122687107Y-70602893D03*
X121272893Y-72017107D03*
G04 #@! TD*
G04 #@! TO.C,R63*
X151461848Y-65582559D03*
X150047634Y-66996773D03*
G04 #@! TD*
D58*
G04 #@! TO.C,Q1*
X116608839Y-79065336D03*
X115265336Y-80408839D03*
X117262913Y-81062913D03*
G04 #@! TD*
D59*
G04 #@! TO.C,SW1*
X125670000Y-35790000D03*
X129760000Y-35790000D03*
X125670000Y-37950000D03*
X129760000Y-37950000D03*
G04 #@! TD*
D18*
G04 #@! TO.C,H6*
X194525496Y-119412179D03*
G04 #@! TD*
D21*
G04 #@! TO.C,R38*
X189850000Y-72230000D03*
X188435786Y-70815786D03*
G04 #@! TD*
D60*
G04 #@! TO.C,U7*
X112672932Y-49480660D03*
X112319379Y-49127107D03*
X111965825Y-48773553D03*
X111612272Y-48420000D03*
D61*
X110640000Y-48420000D03*
X110286447Y-48773553D03*
X109932893Y-49127107D03*
X109579340Y-49480660D03*
D60*
X109579340Y-50452932D03*
X109932893Y-50806485D03*
X110286447Y-51160039D03*
X110640000Y-51513592D03*
D61*
X111612272Y-51513592D03*
X111965825Y-51160039D03*
X112319379Y-50806485D03*
X112672932Y-50452932D03*
D62*
X111126136Y-49966796D03*
G04 #@! TD*
D63*
G04 #@! TO.C,U4*
X120196511Y-87974276D03*
X119842958Y-88327829D03*
X119489404Y-88681383D03*
X119135851Y-89034936D03*
X120532387Y-90431472D03*
X120885940Y-90077919D03*
X121239494Y-89724365D03*
X121593047Y-89370812D03*
D64*
X120364449Y-89202874D03*
G04 #@! TD*
D24*
G04 #@! TO.C,C17*
X179254500Y-125524500D03*
X181329500Y-125524500D03*
G04 #@! TD*
D12*
G04 #@! TO.C,R49*
X149148986Y-41856800D03*
X150563200Y-43271014D03*
G04 #@! TD*
D19*
G04 #@! TO.C,R56*
X106903473Y-52277945D03*
X105489259Y-53692159D03*
G04 #@! TD*
D21*
G04 #@! TO.C,R72*
X140734416Y-53099797D03*
X139320202Y-51685583D03*
G04 #@! TD*
D11*
G04 #@! TO.C,R48*
X148492000Y-65441138D03*
X149906214Y-64026924D03*
G04 #@! TD*
D65*
G04 #@! TO.C,U2*
X167158300Y-132607100D03*
X167158300Y-133257100D03*
X167158300Y-133907100D03*
X168933300Y-133907100D03*
X168933300Y-132607100D03*
G04 #@! TD*
D66*
G04 #@! TO.C,D1*
X106365025Y-97495025D03*
X107354975Y-98484975D03*
G04 #@! TD*
D21*
G04 #@! TO.C,R20*
X108707107Y-80207107D03*
X107292893Y-78792893D03*
G04 #@! TD*
D11*
G04 #@! TO.C,R51*
X151603269Y-68552407D03*
X153017483Y-67138193D03*
G04 #@! TD*
D32*
G04 #@! TO.C,C9*
X115888407Y-72098407D03*
X114421161Y-70631161D03*
G04 #@! TD*
D67*
G04 #@! TO.C,J5*
X197680000Y-77660000D03*
D68*
X197680000Y-80200000D03*
X197680000Y-82740000D03*
X197680000Y-85280000D03*
X197680000Y-87820000D03*
X197680000Y-90360000D03*
X197680000Y-92900000D03*
X197680000Y-95440000D03*
X197680000Y-97980000D03*
X197680000Y-100520000D03*
X197680000Y-103060000D03*
X197680000Y-105600000D03*
X197680000Y-108140000D03*
X197680000Y-110680000D03*
G04 #@! TD*
D18*
G04 #@! TO.C,H2*
X84674504Y-68187821D03*
G04 #@! TD*
D11*
G04 #@! TO.C,R35*
X112768462Y-45896407D03*
X114182676Y-44482193D03*
G04 #@! TD*
D13*
G04 #@! TO.C,TP4*
X113700000Y-85800000D03*
G04 #@! TD*
D11*
G04 #@! TO.C,R14*
X119892893Y-94207107D03*
X121307107Y-92792893D03*
G04 #@! TD*
D12*
G04 #@! TO.C,R50*
X145896295Y-45109490D03*
X147310509Y-46523704D03*
G04 #@! TD*
D17*
G04 #@! TO.C,R25*
X181257200Y-109900000D03*
X181257200Y-111900000D03*
G04 #@! TD*
D69*
G04 #@! TO.C,C12*
X129837500Y-129580000D03*
X127762500Y-129580000D03*
G04 #@! TD*
M02*
