%TF.GenerationSoftware,KiCad,Pcbnew,9.0.9-9.0.9~ubuntu24.04.1*%
%TF.CreationDate,2026-07-21T11:07:11-07:00*%
%TF.ProjectId,dbz-radar,64627a2d-7261-4646-9172-2e6b69636164,rev?*%
%TF.SameCoordinates,Original*%
%TF.FileFunction,Drillmap*%
%TF.FilePolarity,Positive*%
%FSLAX45Y45*%
G04 Gerber Fmt 4.5, Leading zero omitted, Abs format (unit mm)*
G04 Created by KiCad (PCBNEW 9.0.9-9.0.9~ubuntu24.04.1) date 2026-07-21 11:07:11*
%MOMM*%
%LPD*%
G01*
G04 APERTURE LIST*
%ADD10C,0.050000*%
%ADD11C,0.200000*%
%ADD12C,0.100000*%
%ADD13C,0.120000*%
%ADD14C,0.129540*%
G04 APERTURE END LIST*
D10*
X11354383Y-15072096D02*
G75*
G02*
X16521124Y-15092254I2605617J5692096D01*
G01*
X12557600Y-15340358D02*
G75*
G02*
X11354383Y-15072096I0J2832488D01*
G01*
X12557602Y-15340358D02*
X15362398Y-15340358D01*
X16521218Y-15092464D02*
G75*
G02*
X15362400Y-15340358I-1158818J2584594D01*
G01*
D11*
D12*
X16867513Y-5941508D02*
X16887513Y-5961508D01*
X16887513Y-5941508D02*
X16867513Y-5961508D01*
X16867513Y-6040502D02*
X16887513Y-6060502D01*
X16887513Y-6040502D02*
X16867513Y-6060502D01*
X16966508Y-5842513D02*
X16986508Y-5862513D01*
X16986508Y-5842513D02*
X16966508Y-5862513D01*
X16966508Y-5941508D02*
X16986508Y-5961508D01*
X16986508Y-5941508D02*
X16966508Y-5961508D01*
X16966508Y-6040502D02*
X16986508Y-6060502D01*
X16986508Y-6040502D02*
X16966508Y-6060502D01*
X16966508Y-6139497D02*
X16986508Y-6159497D01*
X16986508Y-6139497D02*
X16966508Y-6159497D01*
X17065503Y-5842513D02*
X17085503Y-5862513D01*
X17085503Y-5842513D02*
X17065503Y-5862513D01*
X17065503Y-5941508D02*
X17085503Y-5961508D01*
X17085503Y-5941508D02*
X17065503Y-5961508D01*
X17065503Y-6040502D02*
X17085503Y-6060502D01*
X17085503Y-6040502D02*
X17065503Y-6060502D01*
X17065503Y-6139497D02*
X17085503Y-6159497D01*
X17085503Y-6139497D02*
X17065503Y-6159497D01*
X17164498Y-5941508D02*
X17184498Y-5961508D01*
X17184498Y-5941508D02*
X17164498Y-5961508D01*
X17164498Y-6040502D02*
X17184498Y-6060502D01*
X17184498Y-6040502D02*
X17164498Y-6060502D01*
X7820500Y-9389000D02*
G75*
G02*
X7795500Y-9389000I-12500J0D01*
G01*
X7795500Y-9389000D02*
G75*
G02*
X7820500Y-9389000I12500J0D01*
G01*
X9142500Y-13280000D02*
G75*
G02*
X9117500Y-13280000I-12500J0D01*
G01*
X9117500Y-13280000D02*
G75*
G02*
X9142500Y-13280000I12500J0D01*
G01*
X9322500Y-13490000D02*
G75*
G02*
X9297500Y-13490000I-12500J0D01*
G01*
X9297500Y-13490000D02*
G75*
G02*
X9322500Y-13490000I12500J0D01*
G01*
X9441500Y-5190000D02*
G75*
G02*
X9416500Y-5190000I-12500J0D01*
G01*
X9416500Y-5190000D02*
G75*
G02*
X9441500Y-5190000I12500J0D01*
G01*
X9486500Y-11403000D02*
G75*
G02*
X9461500Y-11403000I-12500J0D01*
G01*
X9461500Y-11403000D02*
G75*
G02*
X9486500Y-11403000I12500J0D01*
G01*
X9680500Y-7588000D02*
G75*
G02*
X9655500Y-7588000I-12500J0D01*
G01*
X9655500Y-7588000D02*
G75*
G02*
X9680500Y-7588000I12500J0D01*
G01*
X9741500Y-7665000D02*
G75*
G02*
X9716500Y-7665000I-12500J0D01*
G01*
X9716500Y-7665000D02*
G75*
G02*
X9741500Y-7665000I12500J0D01*
G01*
X9762500Y-7579000D02*
G75*
G02*
X9737500Y-7579000I-12500J0D01*
G01*
X9737500Y-7579000D02*
G75*
G02*
X9762500Y-7579000I12500J0D01*
G01*
X9810500Y-7748000D02*
G75*
G02*
X9785500Y-7748000I-12500J0D01*
G01*
X9785500Y-7748000D02*
G75*
G02*
X9810500Y-7748000I12500J0D01*
G01*
X9842500Y-7657000D02*
G75*
G02*
X9817500Y-7657000I-12500J0D01*
G01*
X9817500Y-7657000D02*
G75*
G02*
X9842500Y-7657000I12500J0D01*
G01*
X9885500Y-7831000D02*
G75*
G02*
X9860500Y-7831000I-12500J0D01*
G01*
X9860500Y-7831000D02*
G75*
G02*
X9885500Y-7831000I12500J0D01*
G01*
X10013500Y-7296000D02*
G75*
G02*
X9988500Y-7296000I-12500J0D01*
G01*
X9988500Y-7296000D02*
G75*
G02*
X10013500Y-7296000I12500J0D01*
G01*
X10108500Y-7376000D02*
G75*
G02*
X10083500Y-7376000I-12500J0D01*
G01*
X10083500Y-7376000D02*
G75*
G02*
X10108500Y-7376000I12500J0D01*
G01*
X10125500Y-7293000D02*
G75*
G02*
X10100500Y-7293000I-12500J0D01*
G01*
X10100500Y-7293000D02*
G75*
G02*
X10125500Y-7293000I12500J0D01*
G01*
X10201500Y-7357000D02*
G75*
G02*
X10176500Y-7357000I-12500J0D01*
G01*
X10176500Y-7357000D02*
G75*
G02*
X10201500Y-7357000I12500J0D01*
G01*
X10226500Y-4440000D02*
G75*
G02*
X10201500Y-4440000I-12500J0D01*
G01*
X10201500Y-4440000D02*
G75*
G02*
X10226500Y-4440000I12500J0D01*
G01*
X10278500Y-7434000D02*
G75*
G02*
X10253500Y-7434000I-12500J0D01*
G01*
X10253500Y-7434000D02*
G75*
G02*
X10278500Y-7434000I12500J0D01*
G01*
X10452500Y-7990000D02*
G75*
G02*
X10427500Y-7990000I-12500J0D01*
G01*
X10427500Y-7990000D02*
G75*
G02*
X10452500Y-7990000I12500J0D01*
G01*
X10455862Y-4963362D02*
G75*
G02*
X10430862Y-4963362I-12500J0D01*
G01*
X10430862Y-4963362D02*
G75*
G02*
X10455862Y-4963362I12500J0D01*
G01*
X10551500Y-4198000D02*
G75*
G02*
X10526500Y-4198000I-12500J0D01*
G01*
X10526500Y-4198000D02*
G75*
G02*
X10551500Y-4198000I12500J0D01*
G01*
X10581500Y-14538000D02*
G75*
G02*
X10556500Y-14538000I-12500J0D01*
G01*
X10556500Y-14538000D02*
G75*
G02*
X10581500Y-14538000I12500J0D01*
G01*
X10682500Y-7320000D02*
G75*
G02*
X10657500Y-7320000I-12500J0D01*
G01*
X10657500Y-7320000D02*
G75*
G02*
X10682500Y-7320000I12500J0D01*
G01*
X11074551Y-4996680D02*
G75*
G02*
X11049551Y-4996680I-12500J0D01*
G01*
X11049551Y-4996680D02*
G75*
G02*
X11074551Y-4996680I12500J0D01*
G01*
X11118500Y-10668000D02*
G75*
G02*
X11093500Y-10668000I-12500J0D01*
G01*
X11093500Y-10668000D02*
G75*
G02*
X11118500Y-10668000I12500J0D01*
G01*
X11124551Y-4941498D02*
G75*
G02*
X11099551Y-4941498I-12500J0D01*
G01*
X11099551Y-4941498D02*
G75*
G02*
X11124551Y-4941498I12500J0D01*
G01*
X11124551Y-5050498D02*
G75*
G02*
X11099551Y-5050498I-12500J0D01*
G01*
X11099551Y-5050498D02*
G75*
G02*
X11124551Y-5050498I12500J0D01*
G01*
X11126500Y-7897000D02*
G75*
G02*
X11101500Y-7897000I-12500J0D01*
G01*
X11101500Y-7897000D02*
G75*
G02*
X11126500Y-7897000I12500J0D01*
G01*
X11136268Y-7379768D02*
G75*
G02*
X11111268Y-7379768I-12500J0D01*
G01*
X11111268Y-7379768D02*
G75*
G02*
X11136268Y-7379768I12500J0D01*
G01*
X11144500Y-6098000D02*
G75*
G02*
X11119500Y-6098000I-12500J0D01*
G01*
X11119500Y-6098000D02*
G75*
G02*
X11144500Y-6098000I12500J0D01*
G01*
X11148500Y-9254000D02*
G75*
G02*
X11123500Y-9254000I-12500J0D01*
G01*
X11123500Y-9254000D02*
G75*
G02*
X11148500Y-9254000I12500J0D01*
G01*
X11179551Y-4996680D02*
G75*
G02*
X11154551Y-4996680I-12500J0D01*
G01*
X11154551Y-4996680D02*
G75*
G02*
X11179551Y-4996680I12500J0D01*
G01*
X11205500Y-6589000D02*
G75*
G02*
X11180500Y-6589000I-12500J0D01*
G01*
X11180500Y-6589000D02*
G75*
G02*
X11205500Y-6589000I12500J0D01*
G01*
X11208500Y-7833000D02*
G75*
G02*
X11183500Y-7833000I-12500J0D01*
G01*
X11183500Y-7833000D02*
G75*
G02*
X11208500Y-7833000I12500J0D01*
G01*
X11231500Y-5284000D02*
G75*
G02*
X11206500Y-5284000I-12500J0D01*
G01*
X11206500Y-5284000D02*
G75*
G02*
X11231500Y-5284000I12500J0D01*
G01*
X11302500Y-6240000D02*
G75*
G02*
X11277500Y-6240000I-12500J0D01*
G01*
X11277500Y-6240000D02*
G75*
G02*
X11302500Y-6240000I12500J0D01*
G01*
X11502020Y-4376967D02*
G75*
G02*
X11477020Y-4376967I-12500J0D01*
G01*
X11477020Y-4376967D02*
G75*
G02*
X11502020Y-4376967I12500J0D01*
G01*
X11514500Y-5294000D02*
G75*
G02*
X11489500Y-5294000I-12500J0D01*
G01*
X11489500Y-5294000D02*
G75*
G02*
X11514500Y-5294000I12500J0D01*
G01*
X11565500Y-8944000D02*
G75*
G02*
X11540500Y-8944000I-12500J0D01*
G01*
X11540500Y-8944000D02*
G75*
G02*
X11565500Y-8944000I12500J0D01*
G01*
X11572500Y-8190000D02*
G75*
G02*
X11547500Y-8190000I-12500J0D01*
G01*
X11547500Y-8190000D02*
G75*
G02*
X11572500Y-8190000I12500J0D01*
G01*
X11572500Y-8340000D02*
G75*
G02*
X11547500Y-8340000I-12500J0D01*
G01*
X11547500Y-8340000D02*
G75*
G02*
X11572500Y-8340000I12500J0D01*
G01*
X11587789Y-5494711D02*
G75*
G02*
X11562789Y-5494711I-12500J0D01*
G01*
X11562789Y-5494711D02*
G75*
G02*
X11587789Y-5494711I12500J0D01*
G01*
X11593500Y-5629000D02*
G75*
G02*
X11568500Y-5629000I-12500J0D01*
G01*
X11568500Y-5629000D02*
G75*
G02*
X11593500Y-5629000I12500J0D01*
G01*
X11652500Y-8270000D02*
G75*
G02*
X11627500Y-8270000I-12500J0D01*
G01*
X11627500Y-8270000D02*
G75*
G02*
X11652500Y-8270000I12500J0D01*
G01*
X11652500Y-8430000D02*
G75*
G02*
X11627500Y-8430000I-12500J0D01*
G01*
X11627500Y-8430000D02*
G75*
G02*
X11652500Y-8430000I12500J0D01*
G01*
X11712500Y-8200000D02*
G75*
G02*
X11687500Y-8200000I-12500J0D01*
G01*
X11687500Y-8200000D02*
G75*
G02*
X11712500Y-8200000I12500J0D01*
G01*
X11722500Y-8500000D02*
G75*
G02*
X11697500Y-8500000I-12500J0D01*
G01*
X11697500Y-8500000D02*
G75*
G02*
X11722500Y-8500000I12500J0D01*
G01*
X11730500Y-5506000D02*
G75*
G02*
X11705500Y-5506000I-12500J0D01*
G01*
X11705500Y-5506000D02*
G75*
G02*
X11730500Y-5506000I12500J0D01*
G01*
X11732500Y-8350000D02*
G75*
G02*
X11707500Y-8350000I-12500J0D01*
G01*
X11707500Y-8350000D02*
G75*
G02*
X11732500Y-8350000I12500J0D01*
G01*
X11734500Y-11276000D02*
G75*
G02*
X11709500Y-11276000I-12500J0D01*
G01*
X11709500Y-11276000D02*
G75*
G02*
X11734500Y-11276000I12500J0D01*
G01*
X11775816Y-4652763D02*
G75*
G02*
X11750816Y-4652763I-12500J0D01*
G01*
X11750816Y-4652763D02*
G75*
G02*
X11775816Y-4652763I12500J0D01*
G01*
X11802500Y-8270000D02*
G75*
G02*
X11777500Y-8270000I-12500J0D01*
G01*
X11777500Y-8270000D02*
G75*
G02*
X11802500Y-8270000I12500J0D01*
G01*
X11812500Y-8420000D02*
G75*
G02*
X11787500Y-8420000I-12500J0D01*
G01*
X11787500Y-8420000D02*
G75*
G02*
X11812500Y-8420000I12500J0D01*
G01*
X11853500Y-8971000D02*
G75*
G02*
X11828500Y-8971000I-12500J0D01*
G01*
X11828500Y-8971000D02*
G75*
G02*
X11853500Y-8971000I12500J0D01*
G01*
X11882500Y-8340000D02*
G75*
G02*
X11857500Y-8340000I-12500J0D01*
G01*
X11857500Y-8340000D02*
G75*
G02*
X11882500Y-8340000I12500J0D01*
G01*
X11882500Y-8500000D02*
G75*
G02*
X11857500Y-8500000I-12500J0D01*
G01*
X11857500Y-8500000D02*
G75*
G02*
X11882500Y-8500000I12500J0D01*
G01*
X11962500Y-8420000D02*
G75*
G02*
X11937500Y-8420000I-12500J0D01*
G01*
X11937500Y-8420000D02*
G75*
G02*
X11962500Y-8420000I12500J0D01*
G01*
X11981500Y-8605000D02*
G75*
G02*
X11956500Y-8605000I-12500J0D01*
G01*
X11956500Y-8605000D02*
G75*
G02*
X11981500Y-8605000I12500J0D01*
G01*
X11992500Y-3500000D02*
G75*
G02*
X11967500Y-3500000I-12500J0D01*
G01*
X11967500Y-3500000D02*
G75*
G02*
X11992500Y-3500000I12500J0D01*
G01*
X12018500Y-9167000D02*
G75*
G02*
X11993500Y-9167000I-12500J0D01*
G01*
X11993500Y-9167000D02*
G75*
G02*
X12018500Y-9167000I12500J0D01*
G01*
X12023500Y-5522000D02*
G75*
G02*
X11998500Y-5522000I-12500J0D01*
G01*
X11998500Y-5522000D02*
G75*
G02*
X12023500Y-5522000I12500J0D01*
G01*
X12079500Y-14018000D02*
G75*
G02*
X12054500Y-14018000I-12500J0D01*
G01*
X12054500Y-14018000D02*
G75*
G02*
X12079500Y-14018000I12500J0D01*
G01*
X12086500Y-7048000D02*
G75*
G02*
X12061500Y-7048000I-12500J0D01*
G01*
X12061500Y-7048000D02*
G75*
G02*
X12086500Y-7048000I12500J0D01*
G01*
X12112500Y-9110000D02*
G75*
G02*
X12087500Y-9110000I-12500J0D01*
G01*
X12087500Y-9110000D02*
G75*
G02*
X12112500Y-9110000I12500J0D01*
G01*
X12250500Y-9096000D02*
G75*
G02*
X12225500Y-9096000I-12500J0D01*
G01*
X12225500Y-9096000D02*
G75*
G02*
X12250500Y-9096000I12500J0D01*
G01*
X12252500Y-3420000D02*
G75*
G02*
X12227500Y-3420000I-12500J0D01*
G01*
X12227500Y-3420000D02*
G75*
G02*
X12252500Y-3420000I12500J0D01*
G01*
X12252500Y-9009000D02*
G75*
G02*
X12227500Y-9009000I-12500J0D01*
G01*
X12227500Y-9009000D02*
G75*
G02*
X12252500Y-9009000I12500J0D01*
G01*
X12262500Y-9398579D02*
G75*
G02*
X12237500Y-9398579I-12500J0D01*
G01*
X12237500Y-9398579D02*
G75*
G02*
X12262500Y-9398579I12500J0D01*
G01*
X12362500Y-7310000D02*
G75*
G02*
X12337500Y-7310000I-12500J0D01*
G01*
X12337500Y-7310000D02*
G75*
G02*
X12362500Y-7310000I12500J0D01*
G01*
X12442500Y-7710000D02*
G75*
G02*
X12417500Y-7710000I-12500J0D01*
G01*
X12417500Y-7710000D02*
G75*
G02*
X12442500Y-7710000I12500J0D01*
G01*
X12459500Y-6943000D02*
G75*
G02*
X12434500Y-6943000I-12500J0D01*
G01*
X12434500Y-6943000D02*
G75*
G02*
X12459500Y-6943000I12500J0D01*
G01*
X12462500Y-7820000D02*
G75*
G02*
X12437500Y-7820000I-12500J0D01*
G01*
X12437500Y-7820000D02*
G75*
G02*
X12462500Y-7820000I12500J0D01*
G01*
X12499500Y-6994000D02*
G75*
G02*
X12474500Y-6994000I-12500J0D01*
G01*
X12474500Y-6994000D02*
G75*
G02*
X12499500Y-6994000I12500J0D01*
G01*
X12515177Y-6910677D02*
G75*
G02*
X12490177Y-6910677I-12500J0D01*
G01*
X12490177Y-6910677D02*
G75*
G02*
X12515177Y-6910677I12500J0D01*
G01*
X12519500Y-9500000D02*
G75*
G02*
X12494500Y-9500000I-12500J0D01*
G01*
X12494500Y-9500000D02*
G75*
G02*
X12519500Y-9500000I12500J0D01*
G01*
X12532500Y-7620000D02*
G75*
G02*
X12507500Y-7620000I-12500J0D01*
G01*
X12507500Y-7620000D02*
G75*
G02*
X12532500Y-7620000I12500J0D01*
G01*
X12542500Y-7880000D02*
G75*
G02*
X12517500Y-7880000I-12500J0D01*
G01*
X12517500Y-7880000D02*
G75*
G02*
X12542500Y-7880000I12500J0D01*
G01*
X12552500Y-7730000D02*
G75*
G02*
X12527500Y-7730000I-12500J0D01*
G01*
X12527500Y-7730000D02*
G75*
G02*
X12552500Y-7730000I12500J0D01*
G01*
X12554500Y-7041000D02*
G75*
G02*
X12529500Y-7041000I-12500J0D01*
G01*
X12529500Y-7041000D02*
G75*
G02*
X12554500Y-7041000I12500J0D01*
G01*
X12556500Y-8554000D02*
G75*
G02*
X12531500Y-8554000I-12500J0D01*
G01*
X12531500Y-8554000D02*
G75*
G02*
X12556500Y-8554000I12500J0D01*
G01*
X12562134Y-6963634D02*
G75*
G02*
X12537134Y-6963634I-12500J0D01*
G01*
X12537134Y-6963634D02*
G75*
G02*
X12562134Y-6963634I12500J0D01*
G01*
X12599716Y-6757392D02*
G75*
G02*
X12574716Y-6757392I-12500J0D01*
G01*
X12574716Y-6757392D02*
G75*
G02*
X12599716Y-6757392I12500J0D01*
G01*
X12608378Y-7006418D02*
G75*
G02*
X12583378Y-7006418I-12500J0D01*
G01*
X12583378Y-7006418D02*
G75*
G02*
X12608378Y-7006418I12500J0D01*
G01*
X12612500Y-7560000D02*
G75*
G02*
X12587500Y-7560000I-12500J0D01*
G01*
X12587500Y-7560000D02*
G75*
G02*
X12612500Y-7560000I12500J0D01*
G01*
X12620301Y-8054069D02*
G75*
G02*
X12595301Y-8054069I-12500J0D01*
G01*
X12595301Y-8054069D02*
G75*
G02*
X12620301Y-8054069I12500J0D01*
G01*
X12622500Y-7790000D02*
G75*
G02*
X12597500Y-7790000I-12500J0D01*
G01*
X12597500Y-7790000D02*
G75*
G02*
X12622500Y-7790000I12500J0D01*
G01*
X12649500Y-6796000D02*
G75*
G02*
X12624500Y-6796000I-12500J0D01*
G01*
X12624500Y-6796000D02*
G75*
G02*
X12649500Y-6796000I12500J0D01*
G01*
X12697500Y-6839000D02*
G75*
G02*
X12672500Y-6839000I-12500J0D01*
G01*
X12672500Y-6839000D02*
G75*
G02*
X12697500Y-6839000I12500J0D01*
G01*
X12732500Y-6892000D02*
G75*
G02*
X12707500Y-6892000I-12500J0D01*
G01*
X12707500Y-6892000D02*
G75*
G02*
X12732500Y-6892000I12500J0D01*
G01*
X12732500Y-7280000D02*
G75*
G02*
X12707500Y-7280000I-12500J0D01*
G01*
X12707500Y-7280000D02*
G75*
G02*
X12732500Y-7280000I12500J0D01*
G01*
X12742500Y-8330000D02*
G75*
G02*
X12717500Y-8330000I-12500J0D01*
G01*
X12717500Y-8330000D02*
G75*
G02*
X12742500Y-8330000I12500J0D01*
G01*
X12774500Y-5555000D02*
G75*
G02*
X12749500Y-5555000I-12500J0D01*
G01*
X12749500Y-5555000D02*
G75*
G02*
X12774500Y-5555000I12500J0D01*
G01*
X12832500Y-7142000D02*
G75*
G02*
X12807500Y-7142000I-12500J0D01*
G01*
X12807500Y-7142000D02*
G75*
G02*
X12832500Y-7142000I12500J0D01*
G01*
X12841500Y-6230000D02*
G75*
G02*
X12816500Y-6230000I-12500J0D01*
G01*
X12816500Y-6230000D02*
G75*
G02*
X12841500Y-6230000I12500J0D01*
G01*
X12970052Y-6522054D02*
G75*
G02*
X12945052Y-6522054I-12500J0D01*
G01*
X12945052Y-6522054D02*
G75*
G02*
X12970052Y-6522054I12500J0D01*
G01*
X13006500Y-10000000D02*
G75*
G02*
X12981500Y-10000000I-12500J0D01*
G01*
X12981500Y-10000000D02*
G75*
G02*
X13006500Y-10000000I12500J0D01*
G01*
X13010500Y-11268000D02*
G75*
G02*
X12985500Y-11268000I-12500J0D01*
G01*
X12985500Y-11268000D02*
G75*
G02*
X13010500Y-11268000I12500J0D01*
G01*
X13072106Y-6420000D02*
G75*
G02*
X13047106Y-6420000I-12500J0D01*
G01*
X13047106Y-6420000D02*
G75*
G02*
X13072106Y-6420000I12500J0D01*
G01*
X13081500Y-8381000D02*
G75*
G02*
X13056500Y-8381000I-12500J0D01*
G01*
X13056500Y-8381000D02*
G75*
G02*
X13081500Y-8381000I12500J0D01*
G01*
X13082500Y-6716000D02*
G75*
G02*
X13057500Y-6716000I-12500J0D01*
G01*
X13057500Y-6716000D02*
G75*
G02*
X13082500Y-6716000I12500J0D01*
G01*
X13102500Y-5000000D02*
G75*
G02*
X13077500Y-5000000I-12500J0D01*
G01*
X13077500Y-5000000D02*
G75*
G02*
X13102500Y-5000000I12500J0D01*
G01*
X13112500Y-13040000D02*
G75*
G02*
X13087500Y-13040000I-12500J0D01*
G01*
X13087500Y-13040000D02*
G75*
G02*
X13112500Y-13040000I12500J0D01*
G01*
X13129500Y-13375000D02*
G75*
G02*
X13104500Y-13375000I-12500J0D01*
G01*
X13104500Y-13375000D02*
G75*
G02*
X13129500Y-13375000I12500J0D01*
G01*
X13197500Y-13033000D02*
G75*
G02*
X13172500Y-13033000I-12500J0D01*
G01*
X13172500Y-13033000D02*
G75*
G02*
X13197500Y-13033000I12500J0D01*
G01*
X13197500Y-13376000D02*
G75*
G02*
X13172500Y-13376000I-12500J0D01*
G01*
X13172500Y-13376000D02*
G75*
G02*
X13197500Y-13376000I12500J0D01*
G01*
X13242500Y-9160000D02*
G75*
G02*
X13217500Y-9160000I-12500J0D01*
G01*
X13217500Y-9160000D02*
G75*
G02*
X13242500Y-9160000I12500J0D01*
G01*
X13252500Y-8240000D02*
G75*
G02*
X13227500Y-8240000I-12500J0D01*
G01*
X13227500Y-8240000D02*
G75*
G02*
X13252500Y-8240000I12500J0D01*
G01*
X13255500Y-8743000D02*
G75*
G02*
X13230500Y-8743000I-12500J0D01*
G01*
X13230500Y-8743000D02*
G75*
G02*
X13255500Y-8743000I12500J0D01*
G01*
X13255500Y-13247000D02*
G75*
G02*
X13230500Y-13247000I-12500J0D01*
G01*
X13230500Y-13247000D02*
G75*
G02*
X13255500Y-13247000I12500J0D01*
G01*
X13260500Y-9869000D02*
G75*
G02*
X13235500Y-9869000I-12500J0D01*
G01*
X13235500Y-9869000D02*
G75*
G02*
X13260500Y-9869000I12500J0D01*
G01*
X13267500Y-13382000D02*
G75*
G02*
X13242500Y-13382000I-12500J0D01*
G01*
X13242500Y-13382000D02*
G75*
G02*
X13267500Y-13382000I12500J0D01*
G01*
X13270500Y-12838000D02*
G75*
G02*
X13245500Y-12838000I-12500J0D01*
G01*
X13245500Y-12838000D02*
G75*
G02*
X13270500Y-12838000I12500J0D01*
G01*
X13282500Y-7970000D02*
G75*
G02*
X13257500Y-7970000I-12500J0D01*
G01*
X13257500Y-7970000D02*
G75*
G02*
X13282500Y-7970000I12500J0D01*
G01*
X13283500Y-13016000D02*
G75*
G02*
X13258500Y-13016000I-12500J0D01*
G01*
X13258500Y-13016000D02*
G75*
G02*
X13283500Y-13016000I12500J0D01*
G01*
X13312500Y-6070000D02*
G75*
G02*
X13287500Y-6070000I-12500J0D01*
G01*
X13287500Y-6070000D02*
G75*
G02*
X13312500Y-6070000I12500J0D01*
G01*
X13322500Y-6001000D02*
G75*
G02*
X13297500Y-6001000I-12500J0D01*
G01*
X13297500Y-6001000D02*
G75*
G02*
X13322500Y-6001000I12500J0D01*
G01*
X13323500Y-5925000D02*
G75*
G02*
X13298500Y-5925000I-12500J0D01*
G01*
X13298500Y-5925000D02*
G75*
G02*
X13323500Y-5925000I12500J0D01*
G01*
X13389500Y-5881000D02*
G75*
G02*
X13364500Y-5881000I-12500J0D01*
G01*
X13364500Y-5881000D02*
G75*
G02*
X13389500Y-5881000I12500J0D01*
G01*
X13399678Y-5957178D02*
G75*
G02*
X13374678Y-5957178I-12500J0D01*
G01*
X13374678Y-5957178D02*
G75*
G02*
X13399678Y-5957178I12500J0D01*
G01*
X13412500Y-6200000D02*
G75*
G02*
X13387500Y-6200000I-12500J0D01*
G01*
X13387500Y-6200000D02*
G75*
G02*
X13412500Y-6200000I12500J0D01*
G01*
X13432714Y-4994806D02*
G75*
G02*
X13407714Y-4994806I-12500J0D01*
G01*
X13407714Y-4994806D02*
G75*
G02*
X13432714Y-4994806I12500J0D01*
G01*
X13442500Y-6270000D02*
G75*
G02*
X13417500Y-6270000I-12500J0D01*
G01*
X13417500Y-6270000D02*
G75*
G02*
X13442500Y-6270000I12500J0D01*
G01*
X13452500Y-5240000D02*
G75*
G02*
X13427500Y-5240000I-12500J0D01*
G01*
X13427500Y-5240000D02*
G75*
G02*
X13452500Y-5240000I12500J0D01*
G01*
X13457500Y-5985000D02*
G75*
G02*
X13432500Y-5985000I-12500J0D01*
G01*
X13432500Y-5985000D02*
G75*
G02*
X13457500Y-5985000I12500J0D01*
G01*
X13460500Y-5916000D02*
G75*
G02*
X13435500Y-5916000I-12500J0D01*
G01*
X13435500Y-5916000D02*
G75*
G02*
X13460500Y-5916000I12500J0D01*
G01*
X13511500Y-6053000D02*
G75*
G02*
X13486500Y-6053000I-12500J0D01*
G01*
X13486500Y-6053000D02*
G75*
G02*
X13511500Y-6053000I12500J0D01*
G01*
X13512500Y-6220000D02*
G75*
G02*
X13487500Y-6220000I-12500J0D01*
G01*
X13487500Y-6220000D02*
G75*
G02*
X13512500Y-6220000I12500J0D01*
G01*
X13512500Y-6290000D02*
G75*
G02*
X13487500Y-6290000I-12500J0D01*
G01*
X13487500Y-6290000D02*
G75*
G02*
X13512500Y-6290000I12500J0D01*
G01*
X13525500Y-5974000D02*
G75*
G02*
X13500500Y-5974000I-12500J0D01*
G01*
X13500500Y-5974000D02*
G75*
G02*
X13525500Y-5974000I12500J0D01*
G01*
X13552500Y-6160000D02*
G75*
G02*
X13527500Y-6160000I-12500J0D01*
G01*
X13527500Y-6160000D02*
G75*
G02*
X13552500Y-6160000I12500J0D01*
G01*
X13572500Y-6090000D02*
G75*
G02*
X13547500Y-6090000I-12500J0D01*
G01*
X13547500Y-6090000D02*
G75*
G02*
X13572500Y-6090000I12500J0D01*
G01*
X13582500Y-6280000D02*
G75*
G02*
X13557500Y-6280000I-12500J0D01*
G01*
X13557500Y-6280000D02*
G75*
G02*
X13582500Y-6280000I12500J0D01*
G01*
X13600500Y-5547000D02*
G75*
G02*
X13575500Y-5547000I-12500J0D01*
G01*
X13575500Y-5547000D02*
G75*
G02*
X13600500Y-5547000I12500J0D01*
G01*
X13601714Y-4825806D02*
G75*
G02*
X13576714Y-4825806I-12500J0D01*
G01*
X13576714Y-4825806D02*
G75*
G02*
X13601714Y-4825806I12500J0D01*
G01*
X13637500Y-6108000D02*
G75*
G02*
X13612500Y-6108000I-12500J0D01*
G01*
X13612500Y-6108000D02*
G75*
G02*
X13637500Y-6108000I12500J0D01*
G01*
X14042500Y-5840000D02*
G75*
G02*
X14017500Y-5840000I-12500J0D01*
G01*
X14017500Y-5840000D02*
G75*
G02*
X14042500Y-5840000I12500J0D01*
G01*
X14079500Y-15255000D02*
G75*
G02*
X14054500Y-15255000I-12500J0D01*
G01*
X14054500Y-15255000D02*
G75*
G02*
X14079500Y-15255000I12500J0D01*
G01*
X14105216Y-4339304D02*
G75*
G02*
X14080216Y-4339304I-12500J0D01*
G01*
X14080216Y-4339304D02*
G75*
G02*
X14105216Y-4339304I12500J0D01*
G01*
X14112500Y-5500000D02*
G75*
G02*
X14087500Y-5500000I-12500J0D01*
G01*
X14087500Y-5500000D02*
G75*
G02*
X14112500Y-5500000I12500J0D01*
G01*
X14122500Y-11420000D02*
G75*
G02*
X14097500Y-11420000I-12500J0D01*
G01*
X14097500Y-11420000D02*
G75*
G02*
X14122500Y-11420000I12500J0D01*
G01*
X14252500Y-5330000D02*
G75*
G02*
X14227500Y-5330000I-12500J0D01*
G01*
X14227500Y-5330000D02*
G75*
G02*
X14252500Y-5330000I12500J0D01*
G01*
X14282500Y-5640000D02*
G75*
G02*
X14257500Y-5640000I-12500J0D01*
G01*
X14257500Y-5640000D02*
G75*
G02*
X14282500Y-5640000I12500J0D01*
G01*
X14282500Y-5890000D02*
G75*
G02*
X14257500Y-5890000I-12500J0D01*
G01*
X14257500Y-5890000D02*
G75*
G02*
X14282500Y-5890000I12500J0D01*
G01*
X14352500Y-11150000D02*
G75*
G02*
X14327500Y-11150000I-12500J0D01*
G01*
X14327500Y-11150000D02*
G75*
G02*
X14352500Y-11150000I12500J0D01*
G01*
X14382500Y-5440000D02*
G75*
G02*
X14357500Y-5440000I-12500J0D01*
G01*
X14357500Y-5440000D02*
G75*
G02*
X14382500Y-5440000I12500J0D01*
G01*
X14422500Y-5170000D02*
G75*
G02*
X14397500Y-5170000I-12500J0D01*
G01*
X14397500Y-5170000D02*
G75*
G02*
X14422500Y-5170000I12500J0D01*
G01*
X14509107Y-3868580D02*
G75*
G02*
X14484107Y-3868580I-12500J0D01*
G01*
X14484107Y-3868580D02*
G75*
G02*
X14509107Y-3868580I12500J0D01*
G01*
X14514524Y-4738997D02*
G75*
G02*
X14489524Y-4738997I-12500J0D01*
G01*
X14489524Y-4738997D02*
G75*
G02*
X14514524Y-4738997I12500J0D01*
G01*
X14522500Y-5640000D02*
G75*
G02*
X14497500Y-5640000I-12500J0D01*
G01*
X14497500Y-5640000D02*
G75*
G02*
X14522500Y-5640000I12500J0D01*
G01*
X14592500Y-5450000D02*
G75*
G02*
X14567500Y-5450000I-12500J0D01*
G01*
X14567500Y-5450000D02*
G75*
G02*
X14592500Y-5450000I12500J0D01*
G01*
X14602500Y-4980000D02*
G75*
G02*
X14577500Y-4980000I-12500J0D01*
G01*
X14577500Y-4980000D02*
G75*
G02*
X14602500Y-4980000I12500J0D01*
G01*
X14642500Y-11792000D02*
G75*
G02*
X14617500Y-11792000I-12500J0D01*
G01*
X14617500Y-11792000D02*
G75*
G02*
X14642500Y-11792000I12500J0D01*
G01*
X14674524Y-4578997D02*
G75*
G02*
X14649524Y-4578997I-12500J0D01*
G01*
X14649524Y-4578997D02*
G75*
G02*
X14674524Y-4578997I12500J0D01*
G01*
X14682500Y-3205000D02*
G75*
G02*
X14657500Y-3205000I-12500J0D01*
G01*
X14657500Y-3205000D02*
G75*
G02*
X14682500Y-3205000I12500J0D01*
G01*
X14682500Y-10810000D02*
G75*
G02*
X14657500Y-10810000I-12500J0D01*
G01*
X14657500Y-10810000D02*
G75*
G02*
X14682500Y-10810000I12500J0D01*
G01*
X14692500Y-5140000D02*
G75*
G02*
X14667500Y-5140000I-12500J0D01*
G01*
X14667500Y-5140000D02*
G75*
G02*
X14692500Y-5140000I12500J0D01*
G01*
X14712500Y-11680000D02*
G75*
G02*
X14687500Y-11680000I-12500J0D01*
G01*
X14687500Y-11680000D02*
G75*
G02*
X14712500Y-11680000I12500J0D01*
G01*
X14762500Y-5600000D02*
G75*
G02*
X14737500Y-5600000I-12500J0D01*
G01*
X14737500Y-5600000D02*
G75*
G02*
X14762500Y-5600000I12500J0D01*
G01*
X14772500Y-5350000D02*
G75*
G02*
X14747500Y-5350000I-12500J0D01*
G01*
X14747500Y-5350000D02*
G75*
G02*
X14772500Y-5350000I12500J0D01*
G01*
X14812500Y-11930000D02*
G75*
G02*
X14787500Y-11930000I-12500J0D01*
G01*
X14787500Y-11930000D02*
G75*
G02*
X14812500Y-11930000I12500J0D01*
G01*
X14834524Y-4418997D02*
G75*
G02*
X14809524Y-4418997I-12500J0D01*
G01*
X14809524Y-4418997D02*
G75*
G02*
X14834524Y-4418997I12500J0D01*
G01*
X14902500Y-5510000D02*
G75*
G02*
X14877500Y-5510000I-12500J0D01*
G01*
X14877500Y-5510000D02*
G75*
G02*
X14902500Y-5510000I12500J0D01*
G01*
X14922500Y-5150000D02*
G75*
G02*
X14897500Y-5150000I-12500J0D01*
G01*
X14897500Y-5150000D02*
G75*
G02*
X14922500Y-5150000I12500J0D01*
G01*
X14962500Y-5340000D02*
G75*
G02*
X14937500Y-5340000I-12500J0D01*
G01*
X14937500Y-5340000D02*
G75*
G02*
X14962500Y-5340000I12500J0D01*
G01*
X14992500Y-10520000D02*
G75*
G02*
X14967500Y-10520000I-12500J0D01*
G01*
X14967500Y-10520000D02*
G75*
G02*
X14992500Y-10520000I12500J0D01*
G01*
X14999524Y-4253997D02*
G75*
G02*
X14974524Y-4253997I-12500J0D01*
G01*
X14974524Y-4253997D02*
G75*
G02*
X14999524Y-4253997I12500J0D01*
G01*
X15012500Y-6210000D02*
G75*
G02*
X14987500Y-6210000I-12500J0D01*
G01*
X14987500Y-6210000D02*
G75*
G02*
X15012500Y-6210000I12500J0D01*
G01*
X15052500Y-5150000D02*
G75*
G02*
X15027500Y-5150000I-12500J0D01*
G01*
X15027500Y-5150000D02*
G75*
G02*
X15052500Y-5150000I12500J0D01*
G01*
X15062500Y-5510000D02*
G75*
G02*
X15037500Y-5510000I-12500J0D01*
G01*
X15037500Y-5510000D02*
G75*
G02*
X15062500Y-5510000I12500J0D01*
G01*
X15082500Y-4920000D02*
G75*
G02*
X15057500Y-4920000I-12500J0D01*
G01*
X15057500Y-4920000D02*
G75*
G02*
X15082500Y-4920000I12500J0D01*
G01*
X15142500Y-11260000D02*
G75*
G02*
X15117500Y-11260000I-12500J0D01*
G01*
X15117500Y-11260000D02*
G75*
G02*
X15142500Y-11260000I12500J0D01*
G01*
X15152500Y-5330000D02*
G75*
G02*
X15127500Y-5330000I-12500J0D01*
G01*
X15127500Y-5330000D02*
G75*
G02*
X15152500Y-5330000I12500J0D01*
G01*
X15162500Y-6400000D02*
G75*
G02*
X15137500Y-6400000I-12500J0D01*
G01*
X15137500Y-6400000D02*
G75*
G02*
X15162500Y-6400000I12500J0D01*
G01*
X15222500Y-6210000D02*
G75*
G02*
X15197500Y-6210000I-12500J0D01*
G01*
X15197500Y-6210000D02*
G75*
G02*
X15222500Y-6210000I12500J0D01*
G01*
X15262500Y-5160000D02*
G75*
G02*
X15237500Y-5160000I-12500J0D01*
G01*
X15237500Y-5160000D02*
G75*
G02*
X15262500Y-5160000I12500J0D01*
G01*
X15272500Y-4930000D02*
G75*
G02*
X15247500Y-4930000I-12500J0D01*
G01*
X15247500Y-4930000D02*
G75*
G02*
X15272500Y-4930000I12500J0D01*
G01*
X15292500Y-5510000D02*
G75*
G02*
X15267500Y-5510000I-12500J0D01*
G01*
X15267500Y-5510000D02*
G75*
G02*
X15292500Y-5510000I12500J0D01*
G01*
X15312500Y-6560000D02*
G75*
G02*
X15287500Y-6560000I-12500J0D01*
G01*
X15287500Y-6560000D02*
G75*
G02*
X15312500Y-6560000I12500J0D01*
G01*
X15322500Y-10170000D02*
G75*
G02*
X15297500Y-10170000I-12500J0D01*
G01*
X15297500Y-10170000D02*
G75*
G02*
X15322500Y-10170000I12500J0D01*
G01*
X15382500Y-5330000D02*
G75*
G02*
X15357500Y-5330000I-12500J0D01*
G01*
X15357500Y-5330000D02*
G75*
G02*
X15382500Y-5330000I12500J0D01*
G01*
X15442500Y-4930000D02*
G75*
G02*
X15417500Y-4930000I-12500J0D01*
G01*
X15417500Y-4930000D02*
G75*
G02*
X15442500Y-4930000I12500J0D01*
G01*
X15452500Y-10940000D02*
G75*
G02*
X15427500Y-10940000I-12500J0D01*
G01*
X15427500Y-10940000D02*
G75*
G02*
X15452500Y-10940000I12500J0D01*
G01*
X15452500Y-11260000D02*
G75*
G02*
X15427500Y-11260000I-12500J0D01*
G01*
X15427500Y-11260000D02*
G75*
G02*
X15452500Y-11260000I12500J0D01*
G01*
X15472500Y-5160000D02*
G75*
G02*
X15447500Y-5160000I-12500J0D01*
G01*
X15447500Y-5160000D02*
G75*
G02*
X15472500Y-5160000I12500J0D01*
G01*
X15472500Y-11640000D02*
G75*
G02*
X15447500Y-11640000I-12500J0D01*
G01*
X15447500Y-11640000D02*
G75*
G02*
X15472500Y-11640000I12500J0D01*
G01*
X15482500Y-12630000D02*
G75*
G02*
X15457500Y-12630000I-12500J0D01*
G01*
X15457500Y-12630000D02*
G75*
G02*
X15482500Y-12630000I12500J0D01*
G01*
X15542500Y-5520000D02*
G75*
G02*
X15517500Y-5520000I-12500J0D01*
G01*
X15517500Y-5520000D02*
G75*
G02*
X15542500Y-5520000I12500J0D01*
G01*
X15542500Y-6610000D02*
G75*
G02*
X15517500Y-6610000I-12500J0D01*
G01*
X15517500Y-6610000D02*
G75*
G02*
X15542500Y-6610000I12500J0D01*
G01*
X15602500Y-5330000D02*
G75*
G02*
X15577500Y-5330000I-12500J0D01*
G01*
X15577500Y-5330000D02*
G75*
G02*
X15602500Y-5330000I12500J0D01*
G01*
X15652500Y-5160000D02*
G75*
G02*
X15627500Y-5160000I-12500J0D01*
G01*
X15627500Y-5160000D02*
G75*
G02*
X15652500Y-5160000I12500J0D01*
G01*
X15652500Y-10710000D02*
G75*
G02*
X15627500Y-10710000I-12500J0D01*
G01*
X15627500Y-10710000D02*
G75*
G02*
X15652500Y-10710000I12500J0D01*
G01*
X15662500Y-6870000D02*
G75*
G02*
X15637500Y-6870000I-12500J0D01*
G01*
X15637500Y-6870000D02*
G75*
G02*
X15662500Y-6870000I12500J0D01*
G01*
X15672500Y-4930000D02*
G75*
G02*
X15647500Y-4930000I-12500J0D01*
G01*
X15647500Y-4930000D02*
G75*
G02*
X15672500Y-4930000I12500J0D01*
G01*
X15672500Y-9830000D02*
G75*
G02*
X15647500Y-9830000I-12500J0D01*
G01*
X15647500Y-9830000D02*
G75*
G02*
X15672500Y-9830000I12500J0D01*
G01*
X15720500Y-12022000D02*
G75*
G02*
X15695500Y-12022000I-12500J0D01*
G01*
X15695500Y-12022000D02*
G75*
G02*
X15720500Y-12022000I12500J0D01*
G01*
X15722500Y-6070000D02*
G75*
G02*
X15697500Y-6070000I-12500J0D01*
G01*
X15697500Y-6070000D02*
G75*
G02*
X15722500Y-6070000I12500J0D01*
G01*
X15723500Y-12409000D02*
G75*
G02*
X15698500Y-12409000I-12500J0D01*
G01*
X15698500Y-12409000D02*
G75*
G02*
X15723500Y-12409000I12500J0D01*
G01*
X15732500Y-6370000D02*
G75*
G02*
X15707500Y-6370000I-12500J0D01*
G01*
X15707500Y-6370000D02*
G75*
G02*
X15732500Y-6370000I12500J0D01*
G01*
X15743921Y-3838579D02*
G75*
G02*
X15718921Y-3838579I-12500J0D01*
G01*
X15718921Y-3838579D02*
G75*
G02*
X15743921Y-3838579I12500J0D01*
G01*
X15752500Y-11820000D02*
G75*
G02*
X15727500Y-11820000I-12500J0D01*
G01*
X15727500Y-11820000D02*
G75*
G02*
X15752500Y-11820000I12500J0D01*
G01*
X15772500Y-5530000D02*
G75*
G02*
X15747500Y-5530000I-12500J0D01*
G01*
X15747500Y-5530000D02*
G75*
G02*
X15772500Y-5530000I12500J0D01*
G01*
X15792500Y-5370000D02*
G75*
G02*
X15767500Y-5370000I-12500J0D01*
G01*
X15767500Y-5370000D02*
G75*
G02*
X15792500Y-5370000I12500J0D01*
G01*
X15802500Y-5200000D02*
G75*
G02*
X15777500Y-5200000I-12500J0D01*
G01*
X15777500Y-5200000D02*
G75*
G02*
X15802500Y-5200000I12500J0D01*
G01*
X15842500Y-7010000D02*
G75*
G02*
X15817500Y-7010000I-12500J0D01*
G01*
X15817500Y-7010000D02*
G75*
G02*
X15842500Y-7010000I12500J0D01*
G01*
X15842500Y-12430000D02*
G75*
G02*
X15817500Y-12430000I-12500J0D01*
G01*
X15817500Y-12430000D02*
G75*
G02*
X15842500Y-12430000I12500J0D01*
G01*
X15862500Y-6240000D02*
G75*
G02*
X15837500Y-6240000I-12500J0D01*
G01*
X15837500Y-6240000D02*
G75*
G02*
X15862500Y-6240000I12500J0D01*
G01*
X15902500Y-5660000D02*
G75*
G02*
X15877500Y-5660000I-12500J0D01*
G01*
X15877500Y-5660000D02*
G75*
G02*
X15902500Y-5660000I12500J0D01*
G01*
X15912500Y-5880000D02*
G75*
G02*
X15887500Y-5880000I-12500J0D01*
G01*
X15887500Y-5880000D02*
G75*
G02*
X15912500Y-5880000I12500J0D01*
G01*
X15922500Y-5490000D02*
G75*
G02*
X15897500Y-5490000I-12500J0D01*
G01*
X15897500Y-5490000D02*
G75*
G02*
X15922500Y-5490000I12500J0D01*
G01*
X15922500Y-9560000D02*
G75*
G02*
X15897500Y-9560000I-12500J0D01*
G01*
X15897500Y-9560000D02*
G75*
G02*
X15922500Y-9560000I12500J0D01*
G01*
X15942500Y-12640000D02*
G75*
G02*
X15917500Y-12640000I-12500J0D01*
G01*
X15917500Y-12640000D02*
G75*
G02*
X15942500Y-12640000I12500J0D01*
G01*
X15952500Y-5350000D02*
G75*
G02*
X15927500Y-5350000I-12500J0D01*
G01*
X15927500Y-5350000D02*
G75*
G02*
X15952500Y-5350000I12500J0D01*
G01*
X16022500Y-7140000D02*
G75*
G02*
X15997500Y-7140000I-12500J0D01*
G01*
X15997500Y-7140000D02*
G75*
G02*
X16022500Y-7140000I12500J0D01*
G01*
X16072500Y-5640000D02*
G75*
G02*
X16047500Y-5640000I-12500J0D01*
G01*
X16047500Y-5640000D02*
G75*
G02*
X16072500Y-5640000I12500J0D01*
G01*
X16092500Y-5490000D02*
G75*
G02*
X16067500Y-5490000I-12500J0D01*
G01*
X16067500Y-5490000D02*
G75*
G02*
X16092500Y-5490000I12500J0D01*
G01*
X16172500Y-7070000D02*
G75*
G02*
X16147500Y-7070000I-12500J0D01*
G01*
X16147500Y-7070000D02*
G75*
G02*
X16172500Y-7070000I12500J0D01*
G01*
X16172500Y-7330000D02*
G75*
G02*
X16147500Y-7330000I-12500J0D01*
G01*
X16147500Y-7330000D02*
G75*
G02*
X16172500Y-7330000I12500J0D01*
G01*
X16182500Y-9330000D02*
G75*
G02*
X16157500Y-9330000I-12500J0D01*
G01*
X16157500Y-9330000D02*
G75*
G02*
X16182500Y-9330000I12500J0D01*
G01*
X16222500Y-5620000D02*
G75*
G02*
X16197500Y-5620000I-12500J0D01*
G01*
X16197500Y-5620000D02*
G75*
G02*
X16222500Y-5620000I12500J0D01*
G01*
X16312500Y-7500000D02*
G75*
G02*
X16287500Y-7500000I-12500J0D01*
G01*
X16287500Y-7500000D02*
G75*
G02*
X16312500Y-7500000I12500J0D01*
G01*
X16392500Y-12630000D02*
G75*
G02*
X16367500Y-12630000I-12500J0D01*
G01*
X16367500Y-12630000D02*
G75*
G02*
X16392500Y-12630000I12500J0D01*
G01*
X16404500Y-13784000D02*
G75*
G02*
X16379500Y-13784000I-12500J0D01*
G01*
X16379500Y-13784000D02*
G75*
G02*
X16404500Y-13784000I12500J0D01*
G01*
X16462500Y-7660000D02*
G75*
G02*
X16437500Y-7660000I-12500J0D01*
G01*
X16437500Y-7660000D02*
G75*
G02*
X16462500Y-7660000I12500J0D01*
G01*
X16512500Y-7310000D02*
G75*
G02*
X16487500Y-7310000I-12500J0D01*
G01*
X16487500Y-7310000D02*
G75*
G02*
X16512500Y-7310000I12500J0D01*
G01*
X16552500Y-12900000D02*
G75*
G02*
X16527500Y-12900000I-12500J0D01*
G01*
X16527500Y-12900000D02*
G75*
G02*
X16552500Y-12900000I12500J0D01*
G01*
X16592500Y-8910000D02*
G75*
G02*
X16567500Y-8910000I-12500J0D01*
G01*
X16567500Y-8910000D02*
G75*
G02*
X16592500Y-8910000I12500J0D01*
G01*
X16642500Y-7780000D02*
G75*
G02*
X16617500Y-7780000I-12500J0D01*
G01*
X16617500Y-7780000D02*
G75*
G02*
X16642500Y-7780000I12500J0D01*
G01*
X16779138Y-4853362D02*
G75*
G02*
X16754138Y-4853362I-12500J0D01*
G01*
X16754138Y-4853362D02*
G75*
G02*
X16779138Y-4853362I12500J0D01*
G01*
X16782500Y-7980000D02*
G75*
G02*
X16757500Y-7980000I-12500J0D01*
G01*
X16757500Y-7980000D02*
G75*
G02*
X16782500Y-7980000I12500J0D01*
G01*
X16792500Y-11040000D02*
G75*
G02*
X16767500Y-11040000I-12500J0D01*
G01*
X16767500Y-11040000D02*
G75*
G02*
X16792500Y-11040000I12500J0D01*
G01*
X16831500Y-13325000D02*
G75*
G02*
X16806500Y-13325000I-12500J0D01*
G01*
X16806500Y-13325000D02*
G75*
G02*
X16831500Y-13325000I12500J0D01*
G01*
X16872500Y-8680000D02*
G75*
G02*
X16847500Y-8680000I-12500J0D01*
G01*
X16847500Y-8680000D02*
G75*
G02*
X16872500Y-8680000I12500J0D01*
G01*
X16872500Y-10940000D02*
G75*
G02*
X16847500Y-10940000I-12500J0D01*
G01*
X16847500Y-10940000D02*
G75*
G02*
X16872500Y-10940000I12500J0D01*
G01*
X16902500Y-12430000D02*
G75*
G02*
X16877500Y-12430000I-12500J0D01*
G01*
X16877500Y-12430000D02*
G75*
G02*
X16902500Y-12430000I12500J0D01*
G01*
X16962500Y-12960000D02*
G75*
G02*
X16937500Y-12960000I-12500J0D01*
G01*
X16937500Y-12960000D02*
G75*
G02*
X16962500Y-12960000I12500J0D01*
G01*
X16968500Y-14695000D02*
G75*
G02*
X16943500Y-14695000I-12500J0D01*
G01*
X16943500Y-14695000D02*
G75*
G02*
X16968500Y-14695000I12500J0D01*
G01*
X16972500Y-8140000D02*
G75*
G02*
X16947500Y-8140000I-12500J0D01*
G01*
X16947500Y-8140000D02*
G75*
G02*
X16972500Y-8140000I12500J0D01*
G01*
X17022500Y-7420000D02*
G75*
G02*
X16997500Y-7420000I-12500J0D01*
G01*
X16997500Y-7420000D02*
G75*
G02*
X17022500Y-7420000I12500J0D01*
G01*
X17042500Y-12560000D02*
G75*
G02*
X17017500Y-12560000I-12500J0D01*
G01*
X17017500Y-12560000D02*
G75*
G02*
X17042500Y-12560000I12500J0D01*
G01*
X17067500Y-13823000D02*
G75*
G02*
X17042500Y-13823000I-12500J0D01*
G01*
X17042500Y-13823000D02*
G75*
G02*
X17067500Y-13823000I12500J0D01*
G01*
X17162500Y-8350000D02*
G75*
G02*
X17137500Y-8350000I-12500J0D01*
G01*
X17137500Y-8350000D02*
G75*
G02*
X17162500Y-8350000I12500J0D01*
G01*
X17312500Y-12010000D02*
G75*
G02*
X17287500Y-12010000I-12500J0D01*
G01*
X17287500Y-12010000D02*
G75*
G02*
X17312500Y-12010000I12500J0D01*
G01*
X17342500Y-7510000D02*
G75*
G02*
X17317500Y-7510000I-12500J0D01*
G01*
X17317500Y-7510000D02*
G75*
G02*
X17342500Y-7510000I12500J0D01*
G01*
X17362500Y-7375000D02*
G75*
G02*
X17337500Y-7375000I-12500J0D01*
G01*
X17337500Y-7375000D02*
G75*
G02*
X17362500Y-7375000I12500J0D01*
G01*
X17362500Y-11780000D02*
G75*
G02*
X17337500Y-11780000I-12500J0D01*
G01*
X17337500Y-11780000D02*
G75*
G02*
X17362500Y-11780000I12500J0D01*
G01*
X17372500Y-12910000D02*
G75*
G02*
X17347500Y-12910000I-12500J0D01*
G01*
X17347500Y-12910000D02*
G75*
G02*
X17372500Y-12910000I12500J0D01*
G01*
X17402500Y-12060000D02*
G75*
G02*
X17377500Y-12060000I-12500J0D01*
G01*
X17377500Y-12060000D02*
G75*
G02*
X17402500Y-12060000I12500J0D01*
G01*
X17413500Y-13260710D02*
G75*
G02*
X17388500Y-13260710I-12500J0D01*
G01*
X17388500Y-13260710D02*
G75*
G02*
X17413500Y-13260710I12500J0D01*
G01*
X17442500Y-12190000D02*
G75*
G02*
X17417500Y-12190000I-12500J0D01*
G01*
X17417500Y-12190000D02*
G75*
G02*
X17442500Y-12190000I12500J0D01*
G01*
X17458213Y-7298973D02*
G75*
G02*
X17433213Y-7298973I-12500J0D01*
G01*
X17433213Y-7298973D02*
G75*
G02*
X17458213Y-7298973I12500J0D01*
G01*
X17492500Y-7430000D02*
G75*
G02*
X17467500Y-7430000I-12500J0D01*
G01*
X17467500Y-7430000D02*
G75*
G02*
X17492500Y-7430000I12500J0D01*
G01*
X17492500Y-11970000D02*
G75*
G02*
X17467500Y-11970000I-12500J0D01*
G01*
X17467500Y-11970000D02*
G75*
G02*
X17492500Y-11970000I12500J0D01*
G01*
X17507500Y-11685000D02*
G75*
G02*
X17482500Y-11685000I-12500J0D01*
G01*
X17482500Y-11685000D02*
G75*
G02*
X17507500Y-11685000I12500J0D01*
G01*
X17516500Y-7183000D02*
G75*
G02*
X17491500Y-7183000I-12500J0D01*
G01*
X17491500Y-7183000D02*
G75*
G02*
X17516500Y-7183000I12500J0D01*
G01*
X17529144Y-11535000D02*
G75*
G02*
X17504144Y-11535000I-12500J0D01*
G01*
X17504144Y-11535000D02*
G75*
G02*
X17529144Y-11535000I12500J0D01*
G01*
X17564180Y-10888000D02*
G75*
G02*
X17539180Y-10888000I-12500J0D01*
G01*
X17539180Y-10888000D02*
G75*
G02*
X17564180Y-10888000I12500J0D01*
G01*
X17572500Y-12352500D02*
G75*
G02*
X17547500Y-12352500I-12500J0D01*
G01*
X17547500Y-12352500D02*
G75*
G02*
X17572500Y-12352500I12500J0D01*
G01*
X17582500Y-7340000D02*
G75*
G02*
X17557500Y-7340000I-12500J0D01*
G01*
X17557500Y-7340000D02*
G75*
G02*
X17582500Y-7340000I12500J0D01*
G01*
X17628322Y-11684178D02*
G75*
G02*
X17603322Y-11684178I-12500J0D01*
G01*
X17603322Y-11684178D02*
G75*
G02*
X17628322Y-11684178I12500J0D01*
G01*
X17632500Y-10500000D02*
G75*
G02*
X17607500Y-10500000I-12500J0D01*
G01*
X17607500Y-10500000D02*
G75*
G02*
X17632500Y-10500000I12500J0D01*
G01*
X17642500Y-7570000D02*
G75*
G02*
X17617500Y-7570000I-12500J0D01*
G01*
X17617500Y-7570000D02*
G75*
G02*
X17642500Y-7570000I12500J0D01*
G01*
X17642500Y-12132000D02*
G75*
G02*
X17617500Y-12132000I-12500J0D01*
G01*
X17617500Y-12132000D02*
G75*
G02*
X17642500Y-12132000I12500J0D01*
G01*
X17692500Y-14330000D02*
G75*
G02*
X17667500Y-14330000I-12500J0D01*
G01*
X17667500Y-14330000D02*
G75*
G02*
X17692500Y-14330000I12500J0D01*
G01*
X17712500Y-7460000D02*
G75*
G02*
X17687500Y-7460000I-12500J0D01*
G01*
X17687500Y-7460000D02*
G75*
G02*
X17712500Y-7460000I12500J0D01*
G01*
X17749500Y-12814000D02*
G75*
G02*
X17724500Y-12814000I-12500J0D01*
G01*
X17724500Y-12814000D02*
G75*
G02*
X17749500Y-12814000I12500J0D01*
G01*
X17842500Y-7370000D02*
G75*
G02*
X17817500Y-7370000I-12500J0D01*
G01*
X17817500Y-7370000D02*
G75*
G02*
X17842500Y-7370000I12500J0D01*
G01*
X17872500Y-7760000D02*
G75*
G02*
X17847500Y-7760000I-12500J0D01*
G01*
X17847500Y-7760000D02*
G75*
G02*
X17872500Y-7760000I12500J0D01*
G01*
X17882500Y-7580000D02*
G75*
G02*
X17857500Y-7580000I-12500J0D01*
G01*
X17857500Y-7580000D02*
G75*
G02*
X17882500Y-7580000I12500J0D01*
G01*
X17922500Y-10200000D02*
G75*
G02*
X17897500Y-10200000I-12500J0D01*
G01*
X17897500Y-10200000D02*
G75*
G02*
X17922500Y-10200000I12500J0D01*
G01*
X17932500Y-13820000D02*
G75*
G02*
X17907500Y-13820000I-12500J0D01*
G01*
X17907500Y-13820000D02*
G75*
G02*
X17932500Y-13820000I12500J0D01*
G01*
X17937950Y-12675000D02*
G75*
G02*
X17912950Y-12675000I-12500J0D01*
G01*
X17912950Y-12675000D02*
G75*
G02*
X17937950Y-12675000I12500J0D01*
G01*
X17945180Y-10888000D02*
G75*
G02*
X17920180Y-10888000I-12500J0D01*
G01*
X17920180Y-10888000D02*
G75*
G02*
X17945180Y-10888000I12500J0D01*
G01*
X17982500Y-12240000D02*
G75*
G02*
X17957500Y-12240000I-12500J0D01*
G01*
X17957500Y-12240000D02*
G75*
G02*
X17982500Y-12240000I12500J0D01*
G01*
X18022500Y-8350000D02*
G75*
G02*
X17997500Y-8350000I-12500J0D01*
G01*
X17997500Y-8350000D02*
G75*
G02*
X18022500Y-8350000I12500J0D01*
G01*
X18032500Y-7400000D02*
G75*
G02*
X18007500Y-7400000I-12500J0D01*
G01*
X18007500Y-7400000D02*
G75*
G02*
X18032500Y-7400000I12500J0D01*
G01*
X18042500Y-7570000D02*
G75*
G02*
X18017500Y-7570000I-12500J0D01*
G01*
X18017500Y-7570000D02*
G75*
G02*
X18042500Y-7570000I12500J0D01*
G01*
X18138220Y-10885720D02*
G75*
G02*
X18113220Y-10885720I-12500J0D01*
G01*
X18113220Y-10885720D02*
G75*
G02*
X18138220Y-10885720I12500J0D01*
G01*
X18192500Y-7240000D02*
G75*
G02*
X18167500Y-7240000I-12500J0D01*
G01*
X18167500Y-7240000D02*
G75*
G02*
X18192500Y-7240000I12500J0D01*
G01*
X18212500Y-9930000D02*
G75*
G02*
X18187500Y-9930000I-12500J0D01*
G01*
X18187500Y-9930000D02*
G75*
G02*
X18212500Y-9930000I12500J0D01*
G01*
X18222500Y-7410000D02*
G75*
G02*
X18197500Y-7410000I-12500J0D01*
G01*
X18197500Y-7410000D02*
G75*
G02*
X18222500Y-7410000I12500J0D01*
G01*
X18309176Y-6179903D02*
G75*
G02*
X18284176Y-6179903I-12500J0D01*
G01*
X18284176Y-6179903D02*
G75*
G02*
X18309176Y-6179903I12500J0D01*
G01*
X18332500Y-6990000D02*
G75*
G02*
X18307500Y-6990000I-12500J0D01*
G01*
X18307500Y-6990000D02*
G75*
G02*
X18332500Y-6990000I12500J0D01*
G01*
X18352500Y-10810000D02*
G75*
G02*
X18327500Y-10810000I-12500J0D01*
G01*
X18327500Y-10810000D02*
G75*
G02*
X18352500Y-10810000I12500J0D01*
G01*
X18412500Y-13690000D02*
G75*
G02*
X18387500Y-13690000I-12500J0D01*
G01*
X18387500Y-13690000D02*
G75*
G02*
X18412500Y-13690000I12500J0D01*
G01*
X18502500Y-12900000D02*
G75*
G02*
X18477500Y-12900000I-12500J0D01*
G01*
X18477500Y-12900000D02*
G75*
G02*
X18502500Y-12900000I12500J0D01*
G01*
X18512500Y-9630000D02*
G75*
G02*
X18487500Y-9630000I-12500J0D01*
G01*
X18487500Y-9630000D02*
G75*
G02*
X18512500Y-9630000I12500J0D01*
G01*
X18522500Y-7210000D02*
G75*
G02*
X18497500Y-7210000I-12500J0D01*
G01*
X18497500Y-7210000D02*
G75*
G02*
X18522500Y-7210000I12500J0D01*
G01*
X18578500Y-10570000D02*
G75*
G02*
X18553500Y-10570000I-12500J0D01*
G01*
X18553500Y-10570000D02*
G75*
G02*
X18578500Y-10570000I12500J0D01*
G01*
X18592500Y-10880000D02*
G75*
G02*
X18567500Y-10880000I-12500J0D01*
G01*
X18567500Y-10880000D02*
G75*
G02*
X18592500Y-10880000I12500J0D01*
G01*
X18909724Y-7457776D02*
G75*
G02*
X18884724Y-7457776I-12500J0D01*
G01*
X18884724Y-7457776D02*
G75*
G02*
X18909724Y-7457776I12500J0D01*
G01*
X18992500Y-6780000D02*
G75*
G02*
X18967500Y-6780000I-12500J0D01*
G01*
X18967500Y-6780000D02*
G75*
G02*
X18992500Y-6780000I12500J0D01*
G01*
X19022500Y-9160000D02*
G75*
G02*
X18997500Y-9160000I-12500J0D01*
G01*
X18997500Y-9160000D02*
G75*
G02*
X19022500Y-9160000I12500J0D01*
G01*
X19060500Y-9595000D02*
G75*
G02*
X19035500Y-9595000I-12500J0D01*
G01*
X19035500Y-9595000D02*
G75*
G02*
X19060500Y-9595000I12500J0D01*
G01*
X19079500Y-12898000D02*
G75*
G02*
X19054500Y-12898000I-12500J0D01*
G01*
X19054500Y-12898000D02*
G75*
G02*
X19079500Y-12898000I12500J0D01*
G01*
X19212500Y-7280000D02*
G75*
G02*
X19187500Y-7280000I-12500J0D01*
G01*
X19187500Y-7280000D02*
G75*
G02*
X19212500Y-7280000I12500J0D01*
G01*
X19245500Y-12602000D02*
G75*
G02*
X19220500Y-12602000I-12500J0D01*
G01*
X19220500Y-12602000D02*
G75*
G02*
X19245500Y-12602000I12500J0D01*
G01*
X19272500Y-7520000D02*
G75*
G02*
X19247500Y-7520000I-12500J0D01*
G01*
X19247500Y-7520000D02*
G75*
G02*
X19272500Y-7520000I12500J0D01*
G01*
X19272500Y-7730000D02*
G75*
G02*
X19247500Y-7730000I-12500J0D01*
G01*
X19247500Y-7730000D02*
G75*
G02*
X19272500Y-7730000I12500J0D01*
G01*
X19272500Y-8270000D02*
G75*
G02*
X19247500Y-8270000I-12500J0D01*
G01*
X19247500Y-8270000D02*
G75*
G02*
X19272500Y-8270000I12500J0D01*
G01*
X19272500Y-8510000D02*
G75*
G02*
X19247500Y-8510000I-12500J0D01*
G01*
X19247500Y-8510000D02*
G75*
G02*
X19272500Y-8510000I12500J0D01*
G01*
X19272500Y-8770000D02*
G75*
G02*
X19247500Y-8770000I-12500J0D01*
G01*
X19247500Y-8770000D02*
G75*
G02*
X19272500Y-8770000I12500J0D01*
G01*
X19282500Y-8030000D02*
G75*
G02*
X19257500Y-8030000I-12500J0D01*
G01*
X19257500Y-8030000D02*
G75*
G02*
X19282500Y-8030000I12500J0D01*
G01*
X19302500Y-7100000D02*
G75*
G02*
X19277500Y-7100000I-12500J0D01*
G01*
X19277500Y-7100000D02*
G75*
G02*
X19302500Y-7100000I12500J0D01*
G01*
X19382500Y-6330000D02*
G75*
G02*
X19357500Y-6330000I-12500J0D01*
G01*
X19357500Y-6330000D02*
G75*
G02*
X19382500Y-6330000I12500J0D01*
G01*
X19482500Y-7320000D02*
G75*
G02*
X19457500Y-7320000I-12500J0D01*
G01*
X19457500Y-7320000D02*
G75*
G02*
X19482500Y-7320000I12500J0D01*
G01*
X19572500Y-10190000D02*
G75*
G02*
X19547500Y-10190000I-12500J0D01*
G01*
X19547500Y-10190000D02*
G75*
G02*
X19572500Y-10190000I12500J0D01*
G01*
X19577500Y-10655000D02*
G75*
G02*
X19552500Y-10655000I-12500J0D01*
G01*
X19552500Y-10655000D02*
G75*
G02*
X19577500Y-10655000I12500J0D01*
G01*
X19622500Y-8620000D02*
G75*
G02*
X19597500Y-8620000I-12500J0D01*
G01*
X19597500Y-8620000D02*
G75*
G02*
X19622500Y-8620000I12500J0D01*
G01*
X19702500Y-7000000D02*
G75*
G02*
X19677500Y-7000000I-12500J0D01*
G01*
X19677500Y-7000000D02*
G75*
G02*
X19702500Y-7000000I12500J0D01*
G01*
X19892500Y-7505000D02*
G75*
G02*
X19867500Y-7505000I-12500J0D01*
G01*
X19867500Y-7505000D02*
G75*
G02*
X19892500Y-7505000I12500J0D01*
G01*
X20146500Y-9571000D02*
G75*
G02*
X20121500Y-9571000I-12500J0D01*
G01*
X20121500Y-9571000D02*
G75*
G02*
X20146500Y-9571000I12500J0D01*
G01*
X12983750Y-12785000D02*
X12983750Y-12815000D01*
X12968750Y-12800000D02*
X12998750Y-12800000D01*
X15129250Y-12612000D02*
X15129250Y-12642000D01*
X15114250Y-12627000D02*
X15144250Y-12627000D01*
X12357942Y-6833923D02*
X12357942Y-6783633D01*
X12307652Y-6783633D01*
X12307652Y-6833923D01*
X12357942Y-6833923D01*
X12662014Y-6529852D02*
X12662014Y-6479562D01*
X12611724Y-6479562D01*
X12611724Y-6529852D01*
X12662014Y-6529852D01*
X12697360Y-7173341D02*
X12697360Y-7123051D01*
X12647070Y-7123051D01*
X12647070Y-7173341D01*
X12697360Y-7173341D01*
X13001431Y-6869269D02*
X13001431Y-6818979D01*
X12951141Y-6818979D01*
X12951141Y-6869269D01*
X13001431Y-6869269D01*
X13735000Y-3694530D02*
X13784530Y-3645000D01*
X13735000Y-3595470D01*
X13685470Y-3645000D01*
X13735000Y-3694530D01*
X14185000Y-3694530D02*
X14234530Y-3645000D01*
X14185000Y-3595470D01*
X14135470Y-3645000D01*
X14185000Y-3694530D01*
X19718000Y-7716000D02*
X19818000Y-7816000D01*
X19818000Y-7716000D02*
X19718000Y-7816000D01*
X19818000Y-7766000D02*
G75*
G02*
X19718000Y-7766000I-50000J0D01*
G01*
X19718000Y-7766000D02*
G75*
G02*
X19818000Y-7766000I50000J0D01*
G01*
X19718000Y-7970000D02*
X19818000Y-8070000D01*
X19818000Y-7970000D02*
X19718000Y-8070000D01*
X19818000Y-8020000D02*
G75*
G02*
X19718000Y-8020000I-50000J0D01*
G01*
X19718000Y-8020000D02*
G75*
G02*
X19818000Y-8020000I50000J0D01*
G01*
X19718000Y-8224000D02*
X19818000Y-8324000D01*
X19818000Y-8224000D02*
X19718000Y-8324000D01*
X19818000Y-8274000D02*
G75*
G02*
X19718000Y-8274000I-50000J0D01*
G01*
X19718000Y-8274000D02*
G75*
G02*
X19818000Y-8274000I50000J0D01*
G01*
X19718000Y-8478000D02*
X19818000Y-8578000D01*
X19818000Y-8478000D02*
X19718000Y-8578000D01*
X19818000Y-8528000D02*
G75*
G02*
X19718000Y-8528000I-50000J0D01*
G01*
X19718000Y-8528000D02*
G75*
G02*
X19818000Y-8528000I50000J0D01*
G01*
X19718000Y-8732000D02*
X19818000Y-8832000D01*
X19818000Y-8732000D02*
X19718000Y-8832000D01*
X19818000Y-8782000D02*
G75*
G02*
X19718000Y-8782000I-50000J0D01*
G01*
X19718000Y-8782000D02*
G75*
G02*
X19818000Y-8782000I50000J0D01*
G01*
X19718000Y-8986000D02*
X19818000Y-9086000D01*
X19818000Y-8986000D02*
X19718000Y-9086000D01*
X19818000Y-9036000D02*
G75*
G02*
X19718000Y-9036000I-50000J0D01*
G01*
X19718000Y-9036000D02*
G75*
G02*
X19818000Y-9036000I50000J0D01*
G01*
X19718000Y-9240000D02*
X19818000Y-9340000D01*
X19818000Y-9240000D02*
X19718000Y-9340000D01*
X19818000Y-9290000D02*
G75*
G02*
X19718000Y-9290000I-50000J0D01*
G01*
X19718000Y-9290000D02*
G75*
G02*
X19818000Y-9290000I50000J0D01*
G01*
X19718000Y-9494000D02*
X19818000Y-9594000D01*
X19818000Y-9494000D02*
X19718000Y-9594000D01*
X19818000Y-9544000D02*
G75*
G02*
X19718000Y-9544000I-50000J0D01*
G01*
X19718000Y-9544000D02*
G75*
G02*
X19818000Y-9544000I50000J0D01*
G01*
X19718000Y-9748000D02*
X19818000Y-9848000D01*
X19818000Y-9748000D02*
X19718000Y-9848000D01*
X19818000Y-9798000D02*
G75*
G02*
X19718000Y-9798000I-50000J0D01*
G01*
X19718000Y-9798000D02*
G75*
G02*
X19818000Y-9798000I50000J0D01*
G01*
X19718000Y-10002000D02*
X19818000Y-10102000D01*
X19818000Y-10002000D02*
X19718000Y-10102000D01*
X19818000Y-10052000D02*
G75*
G02*
X19718000Y-10052000I-50000J0D01*
G01*
X19718000Y-10052000D02*
G75*
G02*
X19818000Y-10052000I50000J0D01*
G01*
X19718000Y-10256000D02*
X19818000Y-10356000D01*
X19818000Y-10256000D02*
X19718000Y-10356000D01*
X19818000Y-10306000D02*
G75*
G02*
X19718000Y-10306000I-50000J0D01*
G01*
X19718000Y-10306000D02*
G75*
G02*
X19818000Y-10306000I50000J0D01*
G01*
X19718000Y-10510000D02*
X19818000Y-10610000D01*
X19818000Y-10510000D02*
X19718000Y-10610000D01*
X19818000Y-10560000D02*
G75*
G02*
X19718000Y-10560000I-50000J0D01*
G01*
X19718000Y-10560000D02*
G75*
G02*
X19818000Y-10560000I50000J0D01*
G01*
X19718000Y-10764000D02*
X19818000Y-10864000D01*
X19818000Y-10764000D02*
X19718000Y-10864000D01*
X19818000Y-10814000D02*
G75*
G02*
X19718000Y-10814000I-50000J0D01*
G01*
X19718000Y-10814000D02*
G75*
G02*
X19818000Y-10814000I50000J0D01*
G01*
X19718000Y-11018000D02*
X19818000Y-11118000D01*
X19818000Y-11018000D02*
X19718000Y-11118000D01*
X19818000Y-11068000D02*
G75*
G02*
X19718000Y-11068000I-50000J0D01*
G01*
X19718000Y-11068000D02*
G75*
G02*
X19818000Y-11068000I50000J0D01*
G01*
D13*
X8407450Y-6758782D02*
X8527450Y-6878782D01*
X8527450Y-6758782D02*
X8407450Y-6878782D01*
X8467450Y-6758782D02*
X8467450Y-6878782D01*
X8407450Y-6818782D02*
X8527450Y-6818782D01*
X8407450Y-11881218D02*
X8527450Y-12001218D01*
X8527450Y-11881218D02*
X8407450Y-12001218D01*
X8467450Y-11881218D02*
X8467450Y-12001218D01*
X8407450Y-11941218D02*
X8527450Y-11941218D01*
X11338782Y-3827450D02*
X11458782Y-3947450D01*
X11458782Y-3827450D02*
X11338782Y-3947450D01*
X11398782Y-3827450D02*
X11398782Y-3947450D01*
X11338782Y-3887450D02*
X11458782Y-3887450D01*
X16461218Y-3827450D02*
X16581218Y-3947450D01*
X16581218Y-3827450D02*
X16461218Y-3947450D01*
X16521218Y-3827450D02*
X16521218Y-3947450D01*
X16461218Y-3887450D02*
X16581218Y-3887450D01*
X19392550Y-6758782D02*
X19512550Y-6878782D01*
X19512550Y-6758782D02*
X19392550Y-6878782D01*
X19452550Y-6758782D02*
X19452550Y-6878782D01*
X19392550Y-6818782D02*
X19512550Y-6818782D01*
X19392550Y-11881218D02*
X19512550Y-12001218D01*
X19512550Y-11881218D02*
X19392550Y-12001218D01*
X19452550Y-11881218D02*
X19452550Y-12001218D01*
X19392550Y-11941218D02*
X19512550Y-11941218D01*
D14*
X13544730Y-3829260D02*
X13674270Y-3958800D01*
X13674270Y-3829260D02*
X13544730Y-3958800D01*
X13655300Y-3939830D02*
X13655300Y-3848230D01*
X13563700Y-3848230D01*
X13563700Y-3939830D01*
X13655300Y-3939830D01*
X14245730Y-3829260D02*
X14375270Y-3958800D01*
X14375270Y-3829260D02*
X14245730Y-3958800D01*
X14356300Y-3939830D02*
X14356300Y-3848230D01*
X14264700Y-3848230D01*
X14264700Y-3939830D01*
X14356300Y-3939830D01*
D11*
X7958149Y-15654342D02*
X7958149Y-15454342D01*
X7958149Y-15454342D02*
X8005768Y-15454342D01*
X8005768Y-15454342D02*
X8034339Y-15463865D01*
X8034339Y-15463865D02*
X8053387Y-15482913D01*
X8053387Y-15482913D02*
X8062911Y-15501961D01*
X8062911Y-15501961D02*
X8072435Y-15540056D01*
X8072435Y-15540056D02*
X8072435Y-15568627D01*
X8072435Y-15568627D02*
X8062911Y-15606723D01*
X8062911Y-15606723D02*
X8053387Y-15625770D01*
X8053387Y-15625770D02*
X8034339Y-15644818D01*
X8034339Y-15644818D02*
X8005768Y-15654342D01*
X8005768Y-15654342D02*
X7958149Y-15654342D01*
X8158149Y-15654342D02*
X8158149Y-15521008D01*
X8158149Y-15559104D02*
X8167673Y-15540056D01*
X8167673Y-15540056D02*
X8177197Y-15530532D01*
X8177197Y-15530532D02*
X8196244Y-15521008D01*
X8196244Y-15521008D02*
X8215292Y-15521008D01*
X8281958Y-15654342D02*
X8281958Y-15521008D01*
X8281958Y-15454342D02*
X8272435Y-15463865D01*
X8272435Y-15463865D02*
X8281958Y-15473389D01*
X8281958Y-15473389D02*
X8291482Y-15463865D01*
X8291482Y-15463865D02*
X8281958Y-15454342D01*
X8281958Y-15454342D02*
X8281958Y-15473389D01*
X8405768Y-15654342D02*
X8386720Y-15644818D01*
X8386720Y-15644818D02*
X8377197Y-15625770D01*
X8377197Y-15625770D02*
X8377197Y-15454342D01*
X8510530Y-15654342D02*
X8491482Y-15644818D01*
X8491482Y-15644818D02*
X8481959Y-15625770D01*
X8481959Y-15625770D02*
X8481959Y-15454342D01*
X8739101Y-15654342D02*
X8739101Y-15454342D01*
X8739101Y-15454342D02*
X8805768Y-15597199D01*
X8805768Y-15597199D02*
X8872435Y-15454342D01*
X8872435Y-15454342D02*
X8872435Y-15654342D01*
X9053387Y-15654342D02*
X9053387Y-15549580D01*
X9053387Y-15549580D02*
X9043863Y-15530532D01*
X9043863Y-15530532D02*
X9024816Y-15521008D01*
X9024816Y-15521008D02*
X8986720Y-15521008D01*
X8986720Y-15521008D02*
X8967673Y-15530532D01*
X9053387Y-15644818D02*
X9034340Y-15654342D01*
X9034340Y-15654342D02*
X8986720Y-15654342D01*
X8986720Y-15654342D02*
X8967673Y-15644818D01*
X8967673Y-15644818D02*
X8958149Y-15625770D01*
X8958149Y-15625770D02*
X8958149Y-15606723D01*
X8958149Y-15606723D02*
X8967673Y-15587675D01*
X8967673Y-15587675D02*
X8986720Y-15578151D01*
X8986720Y-15578151D02*
X9034340Y-15578151D01*
X9034340Y-15578151D02*
X9053387Y-15568627D01*
X9148625Y-15521008D02*
X9148625Y-15721008D01*
X9148625Y-15530532D02*
X9167673Y-15521008D01*
X9167673Y-15521008D02*
X9205768Y-15521008D01*
X9205768Y-15521008D02*
X9224816Y-15530532D01*
X9224816Y-15530532D02*
X9234340Y-15540056D01*
X9234340Y-15540056D02*
X9243863Y-15559104D01*
X9243863Y-15559104D02*
X9243863Y-15616246D01*
X9243863Y-15616246D02*
X9234340Y-15635294D01*
X9234340Y-15635294D02*
X9224816Y-15644818D01*
X9224816Y-15644818D02*
X9205768Y-15654342D01*
X9205768Y-15654342D02*
X9167673Y-15654342D01*
X9167673Y-15654342D02*
X9148625Y-15644818D01*
X9329578Y-15635294D02*
X9339101Y-15644818D01*
X9339101Y-15644818D02*
X9329578Y-15654342D01*
X9329578Y-15654342D02*
X9320054Y-15644818D01*
X9320054Y-15644818D02*
X9329578Y-15635294D01*
X9329578Y-15635294D02*
X9329578Y-15654342D01*
X9329578Y-15530532D02*
X9339101Y-15540056D01*
X9339101Y-15540056D02*
X9329578Y-15549580D01*
X9329578Y-15549580D02*
X9320054Y-15540056D01*
X9320054Y-15540056D02*
X9329578Y-15530532D01*
X9329578Y-15530532D02*
X9329578Y-15549580D01*
D12*
X7677372Y-15972858D02*
X7697372Y-15992858D01*
X7697372Y-15972858D02*
X7677372Y-15992858D01*
D11*
X7996244Y-15874342D02*
X8015292Y-15874342D01*
X8015292Y-15874342D02*
X8034339Y-15883865D01*
X8034339Y-15883865D02*
X8043863Y-15893389D01*
X8043863Y-15893389D02*
X8053387Y-15912437D01*
X8053387Y-15912437D02*
X8062911Y-15950532D01*
X8062911Y-15950532D02*
X8062911Y-15998151D01*
X8062911Y-15998151D02*
X8053387Y-16036246D01*
X8053387Y-16036246D02*
X8043863Y-16055294D01*
X8043863Y-16055294D02*
X8034339Y-16064818D01*
X8034339Y-16064818D02*
X8015292Y-16074342D01*
X8015292Y-16074342D02*
X7996244Y-16074342D01*
X7996244Y-16074342D02*
X7977197Y-16064818D01*
X7977197Y-16064818D02*
X7967673Y-16055294D01*
X7967673Y-16055294D02*
X7958149Y-16036246D01*
X7958149Y-16036246D02*
X7948625Y-15998151D01*
X7948625Y-15998151D02*
X7948625Y-15950532D01*
X7948625Y-15950532D02*
X7958149Y-15912437D01*
X7958149Y-15912437D02*
X7967673Y-15893389D01*
X7967673Y-15893389D02*
X7977197Y-15883865D01*
X7977197Y-15883865D02*
X7996244Y-15874342D01*
X8148625Y-16055294D02*
X8158149Y-16064818D01*
X8158149Y-16064818D02*
X8148625Y-16074342D01*
X8148625Y-16074342D02*
X8139101Y-16064818D01*
X8139101Y-16064818D02*
X8148625Y-16055294D01*
X8148625Y-16055294D02*
X8148625Y-16074342D01*
X8234339Y-15893389D02*
X8243863Y-15883865D01*
X8243863Y-15883865D02*
X8262911Y-15874342D01*
X8262911Y-15874342D02*
X8310530Y-15874342D01*
X8310530Y-15874342D02*
X8329578Y-15883865D01*
X8329578Y-15883865D02*
X8339101Y-15893389D01*
X8339101Y-15893389D02*
X8348625Y-15912437D01*
X8348625Y-15912437D02*
X8348625Y-15931484D01*
X8348625Y-15931484D02*
X8339101Y-15960056D01*
X8339101Y-15960056D02*
X8224816Y-16074342D01*
X8224816Y-16074342D02*
X8348625Y-16074342D01*
X8472435Y-15874342D02*
X8491482Y-15874342D01*
X8491482Y-15874342D02*
X8510530Y-15883865D01*
X8510530Y-15883865D02*
X8520054Y-15893389D01*
X8520054Y-15893389D02*
X8529578Y-15912437D01*
X8529578Y-15912437D02*
X8539101Y-15950532D01*
X8539101Y-15950532D02*
X8539101Y-15998151D01*
X8539101Y-15998151D02*
X8529578Y-16036246D01*
X8529578Y-16036246D02*
X8520054Y-16055294D01*
X8520054Y-16055294D02*
X8510530Y-16064818D01*
X8510530Y-16064818D02*
X8491482Y-16074342D01*
X8491482Y-16074342D02*
X8472435Y-16074342D01*
X8472435Y-16074342D02*
X8453387Y-16064818D01*
X8453387Y-16064818D02*
X8443863Y-16055294D01*
X8443863Y-16055294D02*
X8434340Y-16036246D01*
X8434340Y-16036246D02*
X8424816Y-15998151D01*
X8424816Y-15998151D02*
X8424816Y-15950532D01*
X8424816Y-15950532D02*
X8434340Y-15912437D01*
X8434340Y-15912437D02*
X8443863Y-15893389D01*
X8443863Y-15893389D02*
X8453387Y-15883865D01*
X8453387Y-15883865D02*
X8472435Y-15874342D01*
X8662911Y-15874342D02*
X8681959Y-15874342D01*
X8681959Y-15874342D02*
X8701006Y-15883865D01*
X8701006Y-15883865D02*
X8710530Y-15893389D01*
X8710530Y-15893389D02*
X8720054Y-15912437D01*
X8720054Y-15912437D02*
X8729578Y-15950532D01*
X8729578Y-15950532D02*
X8729578Y-15998151D01*
X8729578Y-15998151D02*
X8720054Y-16036246D01*
X8720054Y-16036246D02*
X8710530Y-16055294D01*
X8710530Y-16055294D02*
X8701006Y-16064818D01*
X8701006Y-16064818D02*
X8681959Y-16074342D01*
X8681959Y-16074342D02*
X8662911Y-16074342D01*
X8662911Y-16074342D02*
X8643863Y-16064818D01*
X8643863Y-16064818D02*
X8634340Y-16055294D01*
X8634340Y-16055294D02*
X8624816Y-16036246D01*
X8624816Y-16036246D02*
X8615292Y-15998151D01*
X8615292Y-15998151D02*
X8615292Y-15950532D01*
X8615292Y-15950532D02*
X8624816Y-15912437D01*
X8624816Y-15912437D02*
X8634340Y-15893389D01*
X8634340Y-15893389D02*
X8643863Y-15883865D01*
X8643863Y-15883865D02*
X8662911Y-15874342D01*
X8815292Y-16074342D02*
X8815292Y-15941008D01*
X8815292Y-15960056D02*
X8824816Y-15950532D01*
X8824816Y-15950532D02*
X8843863Y-15941008D01*
X8843863Y-15941008D02*
X8872435Y-15941008D01*
X8872435Y-15941008D02*
X8891482Y-15950532D01*
X8891482Y-15950532D02*
X8901006Y-15969580D01*
X8901006Y-15969580D02*
X8901006Y-16074342D01*
X8901006Y-15969580D02*
X8910530Y-15950532D01*
X8910530Y-15950532D02*
X8929578Y-15941008D01*
X8929578Y-15941008D02*
X8958149Y-15941008D01*
X8958149Y-15941008D02*
X8977197Y-15950532D01*
X8977197Y-15950532D02*
X8986721Y-15969580D01*
X8986721Y-15969580D02*
X8986721Y-16074342D01*
X9081959Y-16074342D02*
X9081959Y-15941008D01*
X9081959Y-15960056D02*
X9091482Y-15950532D01*
X9091482Y-15950532D02*
X9110530Y-15941008D01*
X9110530Y-15941008D02*
X9139102Y-15941008D01*
X9139102Y-15941008D02*
X9158149Y-15950532D01*
X9158149Y-15950532D02*
X9167673Y-15969580D01*
X9167673Y-15969580D02*
X9167673Y-16074342D01*
X9167673Y-15969580D02*
X9177197Y-15950532D01*
X9177197Y-15950532D02*
X9196244Y-15941008D01*
X9196244Y-15941008D02*
X9224816Y-15941008D01*
X9224816Y-15941008D02*
X9243863Y-15950532D01*
X9243863Y-15950532D02*
X9253387Y-15969580D01*
X9253387Y-15969580D02*
X9253387Y-16074342D01*
X9643863Y-15864818D02*
X9472435Y-16121961D01*
X9901006Y-15874342D02*
X9920054Y-15874342D01*
X9920054Y-15874342D02*
X9939102Y-15883865D01*
X9939102Y-15883865D02*
X9948625Y-15893389D01*
X9948625Y-15893389D02*
X9958149Y-15912437D01*
X9958149Y-15912437D02*
X9967673Y-15950532D01*
X9967673Y-15950532D02*
X9967673Y-15998151D01*
X9967673Y-15998151D02*
X9958149Y-16036246D01*
X9958149Y-16036246D02*
X9948625Y-16055294D01*
X9948625Y-16055294D02*
X9939102Y-16064818D01*
X9939102Y-16064818D02*
X9920054Y-16074342D01*
X9920054Y-16074342D02*
X9901006Y-16074342D01*
X9901006Y-16074342D02*
X9881959Y-16064818D01*
X9881959Y-16064818D02*
X9872435Y-16055294D01*
X9872435Y-16055294D02*
X9862911Y-16036246D01*
X9862911Y-16036246D02*
X9853387Y-15998151D01*
X9853387Y-15998151D02*
X9853387Y-15950532D01*
X9853387Y-15950532D02*
X9862911Y-15912437D01*
X9862911Y-15912437D02*
X9872435Y-15893389D01*
X9872435Y-15893389D02*
X9881959Y-15883865D01*
X9881959Y-15883865D02*
X9901006Y-15874342D01*
X10053387Y-16055294D02*
X10062911Y-16064818D01*
X10062911Y-16064818D02*
X10053387Y-16074342D01*
X10053387Y-16074342D02*
X10043864Y-16064818D01*
X10043864Y-16064818D02*
X10053387Y-16055294D01*
X10053387Y-16055294D02*
X10053387Y-16074342D01*
X10186721Y-15874342D02*
X10205768Y-15874342D01*
X10205768Y-15874342D02*
X10224816Y-15883865D01*
X10224816Y-15883865D02*
X10234340Y-15893389D01*
X10234340Y-15893389D02*
X10243864Y-15912437D01*
X10243864Y-15912437D02*
X10253387Y-15950532D01*
X10253387Y-15950532D02*
X10253387Y-15998151D01*
X10253387Y-15998151D02*
X10243864Y-16036246D01*
X10243864Y-16036246D02*
X10234340Y-16055294D01*
X10234340Y-16055294D02*
X10224816Y-16064818D01*
X10224816Y-16064818D02*
X10205768Y-16074342D01*
X10205768Y-16074342D02*
X10186721Y-16074342D01*
X10186721Y-16074342D02*
X10167673Y-16064818D01*
X10167673Y-16064818D02*
X10158149Y-16055294D01*
X10158149Y-16055294D02*
X10148625Y-16036246D01*
X10148625Y-16036246D02*
X10139102Y-15998151D01*
X10139102Y-15998151D02*
X10139102Y-15950532D01*
X10139102Y-15950532D02*
X10148625Y-15912437D01*
X10148625Y-15912437D02*
X10158149Y-15893389D01*
X10158149Y-15893389D02*
X10167673Y-15883865D01*
X10167673Y-15883865D02*
X10186721Y-15874342D01*
X10377197Y-15874342D02*
X10396245Y-15874342D01*
X10396245Y-15874342D02*
X10415292Y-15883865D01*
X10415292Y-15883865D02*
X10424816Y-15893389D01*
X10424816Y-15893389D02*
X10434340Y-15912437D01*
X10434340Y-15912437D02*
X10443864Y-15950532D01*
X10443864Y-15950532D02*
X10443864Y-15998151D01*
X10443864Y-15998151D02*
X10434340Y-16036246D01*
X10434340Y-16036246D02*
X10424816Y-16055294D01*
X10424816Y-16055294D02*
X10415292Y-16064818D01*
X10415292Y-16064818D02*
X10396245Y-16074342D01*
X10396245Y-16074342D02*
X10377197Y-16074342D01*
X10377197Y-16074342D02*
X10358149Y-16064818D01*
X10358149Y-16064818D02*
X10348625Y-16055294D01*
X10348625Y-16055294D02*
X10339102Y-16036246D01*
X10339102Y-16036246D02*
X10329578Y-15998151D01*
X10329578Y-15998151D02*
X10329578Y-15950532D01*
X10329578Y-15950532D02*
X10339102Y-15912437D01*
X10339102Y-15912437D02*
X10348625Y-15893389D01*
X10348625Y-15893389D02*
X10358149Y-15883865D01*
X10358149Y-15883865D02*
X10377197Y-15874342D01*
X10510530Y-15874342D02*
X10643864Y-15874342D01*
X10643864Y-15874342D02*
X10558149Y-16074342D01*
X10729578Y-16074342D02*
X10767673Y-16074342D01*
X10767673Y-16074342D02*
X10786721Y-16064818D01*
X10786721Y-16064818D02*
X10796245Y-16055294D01*
X10796245Y-16055294D02*
X10815292Y-16026723D01*
X10815292Y-16026723D02*
X10824816Y-15988627D01*
X10824816Y-15988627D02*
X10824816Y-15912437D01*
X10824816Y-15912437D02*
X10815292Y-15893389D01*
X10815292Y-15893389D02*
X10805768Y-15883865D01*
X10805768Y-15883865D02*
X10786721Y-15874342D01*
X10786721Y-15874342D02*
X10748625Y-15874342D01*
X10748625Y-15874342D02*
X10729578Y-15883865D01*
X10729578Y-15883865D02*
X10720054Y-15893389D01*
X10720054Y-15893389D02*
X10710530Y-15912437D01*
X10710530Y-15912437D02*
X10710530Y-15960056D01*
X10710530Y-15960056D02*
X10720054Y-15979104D01*
X10720054Y-15979104D02*
X10729578Y-15988627D01*
X10729578Y-15988627D02*
X10748625Y-15998151D01*
X10748625Y-15998151D02*
X10786721Y-15998151D01*
X10786721Y-15998151D02*
X10805768Y-15988627D01*
X10805768Y-15988627D02*
X10815292Y-15979104D01*
X10815292Y-15979104D02*
X10824816Y-15960056D01*
X10901006Y-15874342D02*
X10901006Y-15912437D01*
X10977197Y-15874342D02*
X10977197Y-15912437D01*
X11272435Y-16150532D02*
X11262911Y-16141008D01*
X11262911Y-16141008D02*
X11243864Y-16112437D01*
X11243864Y-16112437D02*
X11234340Y-16093389D01*
X11234340Y-16093389D02*
X11224816Y-16064818D01*
X11224816Y-16064818D02*
X11215292Y-16017199D01*
X11215292Y-16017199D02*
X11215292Y-15979104D01*
X11215292Y-15979104D02*
X11224816Y-15931484D01*
X11224816Y-15931484D02*
X11234340Y-15902913D01*
X11234340Y-15902913D02*
X11243864Y-15883865D01*
X11243864Y-15883865D02*
X11262911Y-15855294D01*
X11262911Y-15855294D02*
X11272435Y-15845770D01*
X11453387Y-16074342D02*
X11339102Y-16074342D01*
X11396244Y-16074342D02*
X11396244Y-15874342D01*
X11396244Y-15874342D02*
X11377197Y-15902913D01*
X11377197Y-15902913D02*
X11358149Y-15921961D01*
X11358149Y-15921961D02*
X11339102Y-15931484D01*
X11529578Y-15893389D02*
X11539102Y-15883865D01*
X11539102Y-15883865D02*
X11558149Y-15874342D01*
X11558149Y-15874342D02*
X11605768Y-15874342D01*
X11605768Y-15874342D02*
X11624816Y-15883865D01*
X11624816Y-15883865D02*
X11634340Y-15893389D01*
X11634340Y-15893389D02*
X11643864Y-15912437D01*
X11643864Y-15912437D02*
X11643864Y-15931484D01*
X11643864Y-15931484D02*
X11634340Y-15960056D01*
X11634340Y-15960056D02*
X11520054Y-16074342D01*
X11520054Y-16074342D02*
X11643864Y-16074342D01*
X11881959Y-16074342D02*
X11881959Y-15874342D01*
X11967673Y-16074342D02*
X11967673Y-15969580D01*
X11967673Y-15969580D02*
X11958149Y-15950532D01*
X11958149Y-15950532D02*
X11939102Y-15941008D01*
X11939102Y-15941008D02*
X11910530Y-15941008D01*
X11910530Y-15941008D02*
X11891483Y-15950532D01*
X11891483Y-15950532D02*
X11881959Y-15960056D01*
X12091483Y-16074342D02*
X12072435Y-16064818D01*
X12072435Y-16064818D02*
X12062911Y-16055294D01*
X12062911Y-16055294D02*
X12053387Y-16036246D01*
X12053387Y-16036246D02*
X12053387Y-15979104D01*
X12053387Y-15979104D02*
X12062911Y-15960056D01*
X12062911Y-15960056D02*
X12072435Y-15950532D01*
X12072435Y-15950532D02*
X12091483Y-15941008D01*
X12091483Y-15941008D02*
X12120054Y-15941008D01*
X12120054Y-15941008D02*
X12139102Y-15950532D01*
X12139102Y-15950532D02*
X12148626Y-15960056D01*
X12148626Y-15960056D02*
X12158149Y-15979104D01*
X12158149Y-15979104D02*
X12158149Y-16036246D01*
X12158149Y-16036246D02*
X12148626Y-16055294D01*
X12148626Y-16055294D02*
X12139102Y-16064818D01*
X12139102Y-16064818D02*
X12120054Y-16074342D01*
X12120054Y-16074342D02*
X12091483Y-16074342D01*
X12272435Y-16074342D02*
X12253387Y-16064818D01*
X12253387Y-16064818D02*
X12243864Y-16045770D01*
X12243864Y-16045770D02*
X12243864Y-15874342D01*
X12424816Y-16064818D02*
X12405768Y-16074342D01*
X12405768Y-16074342D02*
X12367673Y-16074342D01*
X12367673Y-16074342D02*
X12348626Y-16064818D01*
X12348626Y-16064818D02*
X12339102Y-16045770D01*
X12339102Y-16045770D02*
X12339102Y-15969580D01*
X12339102Y-15969580D02*
X12348626Y-15950532D01*
X12348626Y-15950532D02*
X12367673Y-15941008D01*
X12367673Y-15941008D02*
X12405768Y-15941008D01*
X12405768Y-15941008D02*
X12424816Y-15950532D01*
X12424816Y-15950532D02*
X12434340Y-15969580D01*
X12434340Y-15969580D02*
X12434340Y-15988627D01*
X12434340Y-15988627D02*
X12339102Y-16007675D01*
X12510530Y-16064818D02*
X12529578Y-16074342D01*
X12529578Y-16074342D02*
X12567673Y-16074342D01*
X12567673Y-16074342D02*
X12586721Y-16064818D01*
X12586721Y-16064818D02*
X12596245Y-16045770D01*
X12596245Y-16045770D02*
X12596245Y-16036246D01*
X12596245Y-16036246D02*
X12586721Y-16017199D01*
X12586721Y-16017199D02*
X12567673Y-16007675D01*
X12567673Y-16007675D02*
X12539102Y-16007675D01*
X12539102Y-16007675D02*
X12520054Y-15998151D01*
X12520054Y-15998151D02*
X12510530Y-15979104D01*
X12510530Y-15979104D02*
X12510530Y-15969580D01*
X12510530Y-15969580D02*
X12520054Y-15950532D01*
X12520054Y-15950532D02*
X12539102Y-15941008D01*
X12539102Y-15941008D02*
X12567673Y-15941008D01*
X12567673Y-15941008D02*
X12586721Y-15950532D01*
X12662911Y-16150532D02*
X12672435Y-16141008D01*
X12672435Y-16141008D02*
X12691483Y-16112437D01*
X12691483Y-16112437D02*
X12701007Y-16093389D01*
X12701007Y-16093389D02*
X12710530Y-16064818D01*
X12710530Y-16064818D02*
X12720054Y-16017199D01*
X12720054Y-16017199D02*
X12720054Y-15979104D01*
X12720054Y-15979104D02*
X12710530Y-15931484D01*
X12710530Y-15931484D02*
X12701007Y-15902913D01*
X12701007Y-15902913D02*
X12691483Y-15883865D01*
X12691483Y-15883865D02*
X12672435Y-15855294D01*
X12672435Y-15855294D02*
X12662911Y-15845770D01*
D12*
X7697372Y-16246858D02*
G75*
G02*
X7672372Y-16246858I-12500J0D01*
G01*
X7672372Y-16246858D02*
G75*
G02*
X7697372Y-16246858I12500J0D01*
G01*
D11*
X7996244Y-16138342D02*
X8015292Y-16138342D01*
X8015292Y-16138342D02*
X8034339Y-16147865D01*
X8034339Y-16147865D02*
X8043863Y-16157389D01*
X8043863Y-16157389D02*
X8053387Y-16176437D01*
X8053387Y-16176437D02*
X8062911Y-16214532D01*
X8062911Y-16214532D02*
X8062911Y-16262151D01*
X8062911Y-16262151D02*
X8053387Y-16300246D01*
X8053387Y-16300246D02*
X8043863Y-16319294D01*
X8043863Y-16319294D02*
X8034339Y-16328818D01*
X8034339Y-16328818D02*
X8015292Y-16338342D01*
X8015292Y-16338342D02*
X7996244Y-16338342D01*
X7996244Y-16338342D02*
X7977197Y-16328818D01*
X7977197Y-16328818D02*
X7967673Y-16319294D01*
X7967673Y-16319294D02*
X7958149Y-16300246D01*
X7958149Y-16300246D02*
X7948625Y-16262151D01*
X7948625Y-16262151D02*
X7948625Y-16214532D01*
X7948625Y-16214532D02*
X7958149Y-16176437D01*
X7958149Y-16176437D02*
X7967673Y-16157389D01*
X7967673Y-16157389D02*
X7977197Y-16147865D01*
X7977197Y-16147865D02*
X7996244Y-16138342D01*
X8148625Y-16319294D02*
X8158149Y-16328818D01*
X8158149Y-16328818D02*
X8148625Y-16338342D01*
X8148625Y-16338342D02*
X8139101Y-16328818D01*
X8139101Y-16328818D02*
X8148625Y-16319294D01*
X8148625Y-16319294D02*
X8148625Y-16338342D01*
X8234339Y-16157389D02*
X8243863Y-16147865D01*
X8243863Y-16147865D02*
X8262911Y-16138342D01*
X8262911Y-16138342D02*
X8310530Y-16138342D01*
X8310530Y-16138342D02*
X8329578Y-16147865D01*
X8329578Y-16147865D02*
X8339101Y-16157389D01*
X8339101Y-16157389D02*
X8348625Y-16176437D01*
X8348625Y-16176437D02*
X8348625Y-16195484D01*
X8348625Y-16195484D02*
X8339101Y-16224056D01*
X8339101Y-16224056D02*
X8224816Y-16338342D01*
X8224816Y-16338342D02*
X8348625Y-16338342D01*
X8529578Y-16138342D02*
X8434340Y-16138342D01*
X8434340Y-16138342D02*
X8424816Y-16233580D01*
X8424816Y-16233580D02*
X8434340Y-16224056D01*
X8434340Y-16224056D02*
X8453387Y-16214532D01*
X8453387Y-16214532D02*
X8501006Y-16214532D01*
X8501006Y-16214532D02*
X8520054Y-16224056D01*
X8520054Y-16224056D02*
X8529578Y-16233580D01*
X8529578Y-16233580D02*
X8539101Y-16252627D01*
X8539101Y-16252627D02*
X8539101Y-16300246D01*
X8539101Y-16300246D02*
X8529578Y-16319294D01*
X8529578Y-16319294D02*
X8520054Y-16328818D01*
X8520054Y-16328818D02*
X8501006Y-16338342D01*
X8501006Y-16338342D02*
X8453387Y-16338342D01*
X8453387Y-16338342D02*
X8434340Y-16328818D01*
X8434340Y-16328818D02*
X8424816Y-16319294D01*
X8662911Y-16138342D02*
X8681959Y-16138342D01*
X8681959Y-16138342D02*
X8701006Y-16147865D01*
X8701006Y-16147865D02*
X8710530Y-16157389D01*
X8710530Y-16157389D02*
X8720054Y-16176437D01*
X8720054Y-16176437D02*
X8729578Y-16214532D01*
X8729578Y-16214532D02*
X8729578Y-16262151D01*
X8729578Y-16262151D02*
X8720054Y-16300246D01*
X8720054Y-16300246D02*
X8710530Y-16319294D01*
X8710530Y-16319294D02*
X8701006Y-16328818D01*
X8701006Y-16328818D02*
X8681959Y-16338342D01*
X8681959Y-16338342D02*
X8662911Y-16338342D01*
X8662911Y-16338342D02*
X8643863Y-16328818D01*
X8643863Y-16328818D02*
X8634340Y-16319294D01*
X8634340Y-16319294D02*
X8624816Y-16300246D01*
X8624816Y-16300246D02*
X8615292Y-16262151D01*
X8615292Y-16262151D02*
X8615292Y-16214532D01*
X8615292Y-16214532D02*
X8624816Y-16176437D01*
X8624816Y-16176437D02*
X8634340Y-16157389D01*
X8634340Y-16157389D02*
X8643863Y-16147865D01*
X8643863Y-16147865D02*
X8662911Y-16138342D01*
X8815292Y-16338342D02*
X8815292Y-16205008D01*
X8815292Y-16224056D02*
X8824816Y-16214532D01*
X8824816Y-16214532D02*
X8843863Y-16205008D01*
X8843863Y-16205008D02*
X8872435Y-16205008D01*
X8872435Y-16205008D02*
X8891482Y-16214532D01*
X8891482Y-16214532D02*
X8901006Y-16233580D01*
X8901006Y-16233580D02*
X8901006Y-16338342D01*
X8901006Y-16233580D02*
X8910530Y-16214532D01*
X8910530Y-16214532D02*
X8929578Y-16205008D01*
X8929578Y-16205008D02*
X8958149Y-16205008D01*
X8958149Y-16205008D02*
X8977197Y-16214532D01*
X8977197Y-16214532D02*
X8986721Y-16233580D01*
X8986721Y-16233580D02*
X8986721Y-16338342D01*
X9081959Y-16338342D02*
X9081959Y-16205008D01*
X9081959Y-16224056D02*
X9091482Y-16214532D01*
X9091482Y-16214532D02*
X9110530Y-16205008D01*
X9110530Y-16205008D02*
X9139102Y-16205008D01*
X9139102Y-16205008D02*
X9158149Y-16214532D01*
X9158149Y-16214532D02*
X9167673Y-16233580D01*
X9167673Y-16233580D02*
X9167673Y-16338342D01*
X9167673Y-16233580D02*
X9177197Y-16214532D01*
X9177197Y-16214532D02*
X9196244Y-16205008D01*
X9196244Y-16205008D02*
X9224816Y-16205008D01*
X9224816Y-16205008D02*
X9243863Y-16214532D01*
X9243863Y-16214532D02*
X9253387Y-16233580D01*
X9253387Y-16233580D02*
X9253387Y-16338342D01*
X9643863Y-16128818D02*
X9472435Y-16385961D01*
X9901006Y-16138342D02*
X9920054Y-16138342D01*
X9920054Y-16138342D02*
X9939102Y-16147865D01*
X9939102Y-16147865D02*
X9948625Y-16157389D01*
X9948625Y-16157389D02*
X9958149Y-16176437D01*
X9958149Y-16176437D02*
X9967673Y-16214532D01*
X9967673Y-16214532D02*
X9967673Y-16262151D01*
X9967673Y-16262151D02*
X9958149Y-16300246D01*
X9958149Y-16300246D02*
X9948625Y-16319294D01*
X9948625Y-16319294D02*
X9939102Y-16328818D01*
X9939102Y-16328818D02*
X9920054Y-16338342D01*
X9920054Y-16338342D02*
X9901006Y-16338342D01*
X9901006Y-16338342D02*
X9881959Y-16328818D01*
X9881959Y-16328818D02*
X9872435Y-16319294D01*
X9872435Y-16319294D02*
X9862911Y-16300246D01*
X9862911Y-16300246D02*
X9853387Y-16262151D01*
X9853387Y-16262151D02*
X9853387Y-16214532D01*
X9853387Y-16214532D02*
X9862911Y-16176437D01*
X9862911Y-16176437D02*
X9872435Y-16157389D01*
X9872435Y-16157389D02*
X9881959Y-16147865D01*
X9881959Y-16147865D02*
X9901006Y-16138342D01*
X10053387Y-16319294D02*
X10062911Y-16328818D01*
X10062911Y-16328818D02*
X10053387Y-16338342D01*
X10053387Y-16338342D02*
X10043864Y-16328818D01*
X10043864Y-16328818D02*
X10053387Y-16319294D01*
X10053387Y-16319294D02*
X10053387Y-16338342D01*
X10186721Y-16138342D02*
X10205768Y-16138342D01*
X10205768Y-16138342D02*
X10224816Y-16147865D01*
X10224816Y-16147865D02*
X10234340Y-16157389D01*
X10234340Y-16157389D02*
X10243864Y-16176437D01*
X10243864Y-16176437D02*
X10253387Y-16214532D01*
X10253387Y-16214532D02*
X10253387Y-16262151D01*
X10253387Y-16262151D02*
X10243864Y-16300246D01*
X10243864Y-16300246D02*
X10234340Y-16319294D01*
X10234340Y-16319294D02*
X10224816Y-16328818D01*
X10224816Y-16328818D02*
X10205768Y-16338342D01*
X10205768Y-16338342D02*
X10186721Y-16338342D01*
X10186721Y-16338342D02*
X10167673Y-16328818D01*
X10167673Y-16328818D02*
X10158149Y-16319294D01*
X10158149Y-16319294D02*
X10148625Y-16300246D01*
X10148625Y-16300246D02*
X10139102Y-16262151D01*
X10139102Y-16262151D02*
X10139102Y-16214532D01*
X10139102Y-16214532D02*
X10148625Y-16176437D01*
X10148625Y-16176437D02*
X10158149Y-16157389D01*
X10158149Y-16157389D02*
X10167673Y-16147865D01*
X10167673Y-16147865D02*
X10186721Y-16138342D01*
X10377197Y-16138342D02*
X10396245Y-16138342D01*
X10396245Y-16138342D02*
X10415292Y-16147865D01*
X10415292Y-16147865D02*
X10424816Y-16157389D01*
X10424816Y-16157389D02*
X10434340Y-16176437D01*
X10434340Y-16176437D02*
X10443864Y-16214532D01*
X10443864Y-16214532D02*
X10443864Y-16262151D01*
X10443864Y-16262151D02*
X10434340Y-16300246D01*
X10434340Y-16300246D02*
X10424816Y-16319294D01*
X10424816Y-16319294D02*
X10415292Y-16328818D01*
X10415292Y-16328818D02*
X10396245Y-16338342D01*
X10396245Y-16338342D02*
X10377197Y-16338342D01*
X10377197Y-16338342D02*
X10358149Y-16328818D01*
X10358149Y-16328818D02*
X10348625Y-16319294D01*
X10348625Y-16319294D02*
X10339102Y-16300246D01*
X10339102Y-16300246D02*
X10329578Y-16262151D01*
X10329578Y-16262151D02*
X10329578Y-16214532D01*
X10329578Y-16214532D02*
X10339102Y-16176437D01*
X10339102Y-16176437D02*
X10348625Y-16157389D01*
X10348625Y-16157389D02*
X10358149Y-16147865D01*
X10358149Y-16147865D02*
X10377197Y-16138342D01*
X10539102Y-16338342D02*
X10577197Y-16338342D01*
X10577197Y-16338342D02*
X10596245Y-16328818D01*
X10596245Y-16328818D02*
X10605768Y-16319294D01*
X10605768Y-16319294D02*
X10624816Y-16290723D01*
X10624816Y-16290723D02*
X10634340Y-16252627D01*
X10634340Y-16252627D02*
X10634340Y-16176437D01*
X10634340Y-16176437D02*
X10624816Y-16157389D01*
X10624816Y-16157389D02*
X10615292Y-16147865D01*
X10615292Y-16147865D02*
X10596245Y-16138342D01*
X10596245Y-16138342D02*
X10558149Y-16138342D01*
X10558149Y-16138342D02*
X10539102Y-16147865D01*
X10539102Y-16147865D02*
X10529578Y-16157389D01*
X10529578Y-16157389D02*
X10520054Y-16176437D01*
X10520054Y-16176437D02*
X10520054Y-16224056D01*
X10520054Y-16224056D02*
X10529578Y-16243104D01*
X10529578Y-16243104D02*
X10539102Y-16252627D01*
X10539102Y-16252627D02*
X10558149Y-16262151D01*
X10558149Y-16262151D02*
X10596245Y-16262151D01*
X10596245Y-16262151D02*
X10615292Y-16252627D01*
X10615292Y-16252627D02*
X10624816Y-16243104D01*
X10624816Y-16243104D02*
X10634340Y-16224056D01*
X10748625Y-16224056D02*
X10729578Y-16214532D01*
X10729578Y-16214532D02*
X10720054Y-16205008D01*
X10720054Y-16205008D02*
X10710530Y-16185961D01*
X10710530Y-16185961D02*
X10710530Y-16176437D01*
X10710530Y-16176437D02*
X10720054Y-16157389D01*
X10720054Y-16157389D02*
X10729578Y-16147865D01*
X10729578Y-16147865D02*
X10748625Y-16138342D01*
X10748625Y-16138342D02*
X10786721Y-16138342D01*
X10786721Y-16138342D02*
X10805768Y-16147865D01*
X10805768Y-16147865D02*
X10815292Y-16157389D01*
X10815292Y-16157389D02*
X10824816Y-16176437D01*
X10824816Y-16176437D02*
X10824816Y-16185961D01*
X10824816Y-16185961D02*
X10815292Y-16205008D01*
X10815292Y-16205008D02*
X10805768Y-16214532D01*
X10805768Y-16214532D02*
X10786721Y-16224056D01*
X10786721Y-16224056D02*
X10748625Y-16224056D01*
X10748625Y-16224056D02*
X10729578Y-16233580D01*
X10729578Y-16233580D02*
X10720054Y-16243104D01*
X10720054Y-16243104D02*
X10710530Y-16262151D01*
X10710530Y-16262151D02*
X10710530Y-16300246D01*
X10710530Y-16300246D02*
X10720054Y-16319294D01*
X10720054Y-16319294D02*
X10729578Y-16328818D01*
X10729578Y-16328818D02*
X10748625Y-16338342D01*
X10748625Y-16338342D02*
X10786721Y-16338342D01*
X10786721Y-16338342D02*
X10805768Y-16328818D01*
X10805768Y-16328818D02*
X10815292Y-16319294D01*
X10815292Y-16319294D02*
X10824816Y-16300246D01*
X10824816Y-16300246D02*
X10824816Y-16262151D01*
X10824816Y-16262151D02*
X10815292Y-16243104D01*
X10815292Y-16243104D02*
X10805768Y-16233580D01*
X10805768Y-16233580D02*
X10786721Y-16224056D01*
X10901006Y-16138342D02*
X10901006Y-16176437D01*
X10977197Y-16138342D02*
X10977197Y-16176437D01*
X11272435Y-16414532D02*
X11262911Y-16405008D01*
X11262911Y-16405008D02*
X11243864Y-16376437D01*
X11243864Y-16376437D02*
X11234340Y-16357389D01*
X11234340Y-16357389D02*
X11224816Y-16328818D01*
X11224816Y-16328818D02*
X11215292Y-16281199D01*
X11215292Y-16281199D02*
X11215292Y-16243104D01*
X11215292Y-16243104D02*
X11224816Y-16195484D01*
X11224816Y-16195484D02*
X11234340Y-16166913D01*
X11234340Y-16166913D02*
X11243864Y-16147865D01*
X11243864Y-16147865D02*
X11262911Y-16119294D01*
X11262911Y-16119294D02*
X11272435Y-16109770D01*
X11329578Y-16138342D02*
X11453387Y-16138342D01*
X11453387Y-16138342D02*
X11386721Y-16214532D01*
X11386721Y-16214532D02*
X11415292Y-16214532D01*
X11415292Y-16214532D02*
X11434340Y-16224056D01*
X11434340Y-16224056D02*
X11443864Y-16233580D01*
X11443864Y-16233580D02*
X11453387Y-16252627D01*
X11453387Y-16252627D02*
X11453387Y-16300246D01*
X11453387Y-16300246D02*
X11443864Y-16319294D01*
X11443864Y-16319294D02*
X11434340Y-16328818D01*
X11434340Y-16328818D02*
X11415292Y-16338342D01*
X11415292Y-16338342D02*
X11358149Y-16338342D01*
X11358149Y-16338342D02*
X11339102Y-16328818D01*
X11339102Y-16328818D02*
X11329578Y-16319294D01*
X11643864Y-16338342D02*
X11529578Y-16338342D01*
X11586721Y-16338342D02*
X11586721Y-16138342D01*
X11586721Y-16138342D02*
X11567673Y-16166913D01*
X11567673Y-16166913D02*
X11548625Y-16185961D01*
X11548625Y-16185961D02*
X11529578Y-16195484D01*
X11767673Y-16138342D02*
X11786721Y-16138342D01*
X11786721Y-16138342D02*
X11805768Y-16147865D01*
X11805768Y-16147865D02*
X11815292Y-16157389D01*
X11815292Y-16157389D02*
X11824816Y-16176437D01*
X11824816Y-16176437D02*
X11834340Y-16214532D01*
X11834340Y-16214532D02*
X11834340Y-16262151D01*
X11834340Y-16262151D02*
X11824816Y-16300246D01*
X11824816Y-16300246D02*
X11815292Y-16319294D01*
X11815292Y-16319294D02*
X11805768Y-16328818D01*
X11805768Y-16328818D02*
X11786721Y-16338342D01*
X11786721Y-16338342D02*
X11767673Y-16338342D01*
X11767673Y-16338342D02*
X11748625Y-16328818D01*
X11748625Y-16328818D02*
X11739102Y-16319294D01*
X11739102Y-16319294D02*
X11729578Y-16300246D01*
X11729578Y-16300246D02*
X11720054Y-16262151D01*
X11720054Y-16262151D02*
X11720054Y-16214532D01*
X11720054Y-16214532D02*
X11729578Y-16176437D01*
X11729578Y-16176437D02*
X11739102Y-16157389D01*
X11739102Y-16157389D02*
X11748625Y-16147865D01*
X11748625Y-16147865D02*
X11767673Y-16138342D01*
X12072435Y-16338342D02*
X12072435Y-16138342D01*
X12158149Y-16338342D02*
X12158149Y-16233580D01*
X12158149Y-16233580D02*
X12148626Y-16214532D01*
X12148626Y-16214532D02*
X12129578Y-16205008D01*
X12129578Y-16205008D02*
X12101006Y-16205008D01*
X12101006Y-16205008D02*
X12081959Y-16214532D01*
X12081959Y-16214532D02*
X12072435Y-16224056D01*
X12281959Y-16338342D02*
X12262911Y-16328818D01*
X12262911Y-16328818D02*
X12253387Y-16319294D01*
X12253387Y-16319294D02*
X12243864Y-16300246D01*
X12243864Y-16300246D02*
X12243864Y-16243104D01*
X12243864Y-16243104D02*
X12253387Y-16224056D01*
X12253387Y-16224056D02*
X12262911Y-16214532D01*
X12262911Y-16214532D02*
X12281959Y-16205008D01*
X12281959Y-16205008D02*
X12310530Y-16205008D01*
X12310530Y-16205008D02*
X12329578Y-16214532D01*
X12329578Y-16214532D02*
X12339102Y-16224056D01*
X12339102Y-16224056D02*
X12348626Y-16243104D01*
X12348626Y-16243104D02*
X12348626Y-16300246D01*
X12348626Y-16300246D02*
X12339102Y-16319294D01*
X12339102Y-16319294D02*
X12329578Y-16328818D01*
X12329578Y-16328818D02*
X12310530Y-16338342D01*
X12310530Y-16338342D02*
X12281959Y-16338342D01*
X12462911Y-16338342D02*
X12443864Y-16328818D01*
X12443864Y-16328818D02*
X12434340Y-16309770D01*
X12434340Y-16309770D02*
X12434340Y-16138342D01*
X12615292Y-16328818D02*
X12596245Y-16338342D01*
X12596245Y-16338342D02*
X12558149Y-16338342D01*
X12558149Y-16338342D02*
X12539102Y-16328818D01*
X12539102Y-16328818D02*
X12529578Y-16309770D01*
X12529578Y-16309770D02*
X12529578Y-16233580D01*
X12529578Y-16233580D02*
X12539102Y-16214532D01*
X12539102Y-16214532D02*
X12558149Y-16205008D01*
X12558149Y-16205008D02*
X12596245Y-16205008D01*
X12596245Y-16205008D02*
X12615292Y-16214532D01*
X12615292Y-16214532D02*
X12624816Y-16233580D01*
X12624816Y-16233580D02*
X12624816Y-16252627D01*
X12624816Y-16252627D02*
X12529578Y-16271675D01*
X12701007Y-16328818D02*
X12720054Y-16338342D01*
X12720054Y-16338342D02*
X12758149Y-16338342D01*
X12758149Y-16338342D02*
X12777197Y-16328818D01*
X12777197Y-16328818D02*
X12786721Y-16309770D01*
X12786721Y-16309770D02*
X12786721Y-16300246D01*
X12786721Y-16300246D02*
X12777197Y-16281199D01*
X12777197Y-16281199D02*
X12758149Y-16271675D01*
X12758149Y-16271675D02*
X12729578Y-16271675D01*
X12729578Y-16271675D02*
X12710530Y-16262151D01*
X12710530Y-16262151D02*
X12701007Y-16243104D01*
X12701007Y-16243104D02*
X12701007Y-16233580D01*
X12701007Y-16233580D02*
X12710530Y-16214532D01*
X12710530Y-16214532D02*
X12729578Y-16205008D01*
X12729578Y-16205008D02*
X12758149Y-16205008D01*
X12758149Y-16205008D02*
X12777197Y-16214532D01*
X12853388Y-16414532D02*
X12862911Y-16405008D01*
X12862911Y-16405008D02*
X12881959Y-16376437D01*
X12881959Y-16376437D02*
X12891483Y-16357389D01*
X12891483Y-16357389D02*
X12901007Y-16328818D01*
X12901007Y-16328818D02*
X12910530Y-16281199D01*
X12910530Y-16281199D02*
X12910530Y-16243104D01*
X12910530Y-16243104D02*
X12901007Y-16195484D01*
X12901007Y-16195484D02*
X12891483Y-16166913D01*
X12891483Y-16166913D02*
X12881959Y-16147865D01*
X12881959Y-16147865D02*
X12862911Y-16119294D01*
X12862911Y-16119294D02*
X12853388Y-16109770D01*
D12*
X7682372Y-16495858D02*
X7682372Y-16525858D01*
X7667372Y-16510858D02*
X7697372Y-16510858D01*
D11*
X7996244Y-16402342D02*
X8015292Y-16402342D01*
X8015292Y-16402342D02*
X8034339Y-16411865D01*
X8034339Y-16411865D02*
X8043863Y-16421389D01*
X8043863Y-16421389D02*
X8053387Y-16440437D01*
X8053387Y-16440437D02*
X8062911Y-16478532D01*
X8062911Y-16478532D02*
X8062911Y-16526151D01*
X8062911Y-16526151D02*
X8053387Y-16564246D01*
X8053387Y-16564246D02*
X8043863Y-16583294D01*
X8043863Y-16583294D02*
X8034339Y-16592818D01*
X8034339Y-16592818D02*
X8015292Y-16602342D01*
X8015292Y-16602342D02*
X7996244Y-16602342D01*
X7996244Y-16602342D02*
X7977197Y-16592818D01*
X7977197Y-16592818D02*
X7967673Y-16583294D01*
X7967673Y-16583294D02*
X7958149Y-16564246D01*
X7958149Y-16564246D02*
X7948625Y-16526151D01*
X7948625Y-16526151D02*
X7948625Y-16478532D01*
X7948625Y-16478532D02*
X7958149Y-16440437D01*
X7958149Y-16440437D02*
X7967673Y-16421389D01*
X7967673Y-16421389D02*
X7977197Y-16411865D01*
X7977197Y-16411865D02*
X7996244Y-16402342D01*
X8148625Y-16583294D02*
X8158149Y-16592818D01*
X8158149Y-16592818D02*
X8148625Y-16602342D01*
X8148625Y-16602342D02*
X8139101Y-16592818D01*
X8139101Y-16592818D02*
X8148625Y-16583294D01*
X8148625Y-16583294D02*
X8148625Y-16602342D01*
X8224816Y-16402342D02*
X8348625Y-16402342D01*
X8348625Y-16402342D02*
X8281958Y-16478532D01*
X8281958Y-16478532D02*
X8310530Y-16478532D01*
X8310530Y-16478532D02*
X8329578Y-16488056D01*
X8329578Y-16488056D02*
X8339101Y-16497580D01*
X8339101Y-16497580D02*
X8348625Y-16516627D01*
X8348625Y-16516627D02*
X8348625Y-16564246D01*
X8348625Y-16564246D02*
X8339101Y-16583294D01*
X8339101Y-16583294D02*
X8329578Y-16592818D01*
X8329578Y-16592818D02*
X8310530Y-16602342D01*
X8310530Y-16602342D02*
X8253387Y-16602342D01*
X8253387Y-16602342D02*
X8234339Y-16592818D01*
X8234339Y-16592818D02*
X8224816Y-16583294D01*
X8472435Y-16402342D02*
X8491482Y-16402342D01*
X8491482Y-16402342D02*
X8510530Y-16411865D01*
X8510530Y-16411865D02*
X8520054Y-16421389D01*
X8520054Y-16421389D02*
X8529578Y-16440437D01*
X8529578Y-16440437D02*
X8539101Y-16478532D01*
X8539101Y-16478532D02*
X8539101Y-16526151D01*
X8539101Y-16526151D02*
X8529578Y-16564246D01*
X8529578Y-16564246D02*
X8520054Y-16583294D01*
X8520054Y-16583294D02*
X8510530Y-16592818D01*
X8510530Y-16592818D02*
X8491482Y-16602342D01*
X8491482Y-16602342D02*
X8472435Y-16602342D01*
X8472435Y-16602342D02*
X8453387Y-16592818D01*
X8453387Y-16592818D02*
X8443863Y-16583294D01*
X8443863Y-16583294D02*
X8434340Y-16564246D01*
X8434340Y-16564246D02*
X8424816Y-16526151D01*
X8424816Y-16526151D02*
X8424816Y-16478532D01*
X8424816Y-16478532D02*
X8434340Y-16440437D01*
X8434340Y-16440437D02*
X8443863Y-16421389D01*
X8443863Y-16421389D02*
X8453387Y-16411865D01*
X8453387Y-16411865D02*
X8472435Y-16402342D01*
X8662911Y-16402342D02*
X8681959Y-16402342D01*
X8681959Y-16402342D02*
X8701006Y-16411865D01*
X8701006Y-16411865D02*
X8710530Y-16421389D01*
X8710530Y-16421389D02*
X8720054Y-16440437D01*
X8720054Y-16440437D02*
X8729578Y-16478532D01*
X8729578Y-16478532D02*
X8729578Y-16526151D01*
X8729578Y-16526151D02*
X8720054Y-16564246D01*
X8720054Y-16564246D02*
X8710530Y-16583294D01*
X8710530Y-16583294D02*
X8701006Y-16592818D01*
X8701006Y-16592818D02*
X8681959Y-16602342D01*
X8681959Y-16602342D02*
X8662911Y-16602342D01*
X8662911Y-16602342D02*
X8643863Y-16592818D01*
X8643863Y-16592818D02*
X8634340Y-16583294D01*
X8634340Y-16583294D02*
X8624816Y-16564246D01*
X8624816Y-16564246D02*
X8615292Y-16526151D01*
X8615292Y-16526151D02*
X8615292Y-16478532D01*
X8615292Y-16478532D02*
X8624816Y-16440437D01*
X8624816Y-16440437D02*
X8634340Y-16421389D01*
X8634340Y-16421389D02*
X8643863Y-16411865D01*
X8643863Y-16411865D02*
X8662911Y-16402342D01*
X8815292Y-16602342D02*
X8815292Y-16469008D01*
X8815292Y-16488056D02*
X8824816Y-16478532D01*
X8824816Y-16478532D02*
X8843863Y-16469008D01*
X8843863Y-16469008D02*
X8872435Y-16469008D01*
X8872435Y-16469008D02*
X8891482Y-16478532D01*
X8891482Y-16478532D02*
X8901006Y-16497580D01*
X8901006Y-16497580D02*
X8901006Y-16602342D01*
X8901006Y-16497580D02*
X8910530Y-16478532D01*
X8910530Y-16478532D02*
X8929578Y-16469008D01*
X8929578Y-16469008D02*
X8958149Y-16469008D01*
X8958149Y-16469008D02*
X8977197Y-16478532D01*
X8977197Y-16478532D02*
X8986721Y-16497580D01*
X8986721Y-16497580D02*
X8986721Y-16602342D01*
X9081959Y-16602342D02*
X9081959Y-16469008D01*
X9081959Y-16488056D02*
X9091482Y-16478532D01*
X9091482Y-16478532D02*
X9110530Y-16469008D01*
X9110530Y-16469008D02*
X9139102Y-16469008D01*
X9139102Y-16469008D02*
X9158149Y-16478532D01*
X9158149Y-16478532D02*
X9167673Y-16497580D01*
X9167673Y-16497580D02*
X9167673Y-16602342D01*
X9167673Y-16497580D02*
X9177197Y-16478532D01*
X9177197Y-16478532D02*
X9196244Y-16469008D01*
X9196244Y-16469008D02*
X9224816Y-16469008D01*
X9224816Y-16469008D02*
X9243863Y-16478532D01*
X9243863Y-16478532D02*
X9253387Y-16497580D01*
X9253387Y-16497580D02*
X9253387Y-16602342D01*
X9643863Y-16392818D02*
X9472435Y-16649961D01*
X9901006Y-16402342D02*
X9920054Y-16402342D01*
X9920054Y-16402342D02*
X9939102Y-16411865D01*
X9939102Y-16411865D02*
X9948625Y-16421389D01*
X9948625Y-16421389D02*
X9958149Y-16440437D01*
X9958149Y-16440437D02*
X9967673Y-16478532D01*
X9967673Y-16478532D02*
X9967673Y-16526151D01*
X9967673Y-16526151D02*
X9958149Y-16564246D01*
X9958149Y-16564246D02*
X9948625Y-16583294D01*
X9948625Y-16583294D02*
X9939102Y-16592818D01*
X9939102Y-16592818D02*
X9920054Y-16602342D01*
X9920054Y-16602342D02*
X9901006Y-16602342D01*
X9901006Y-16602342D02*
X9881959Y-16592818D01*
X9881959Y-16592818D02*
X9872435Y-16583294D01*
X9872435Y-16583294D02*
X9862911Y-16564246D01*
X9862911Y-16564246D02*
X9853387Y-16526151D01*
X9853387Y-16526151D02*
X9853387Y-16478532D01*
X9853387Y-16478532D02*
X9862911Y-16440437D01*
X9862911Y-16440437D02*
X9872435Y-16421389D01*
X9872435Y-16421389D02*
X9881959Y-16411865D01*
X9881959Y-16411865D02*
X9901006Y-16402342D01*
X10053387Y-16583294D02*
X10062911Y-16592818D01*
X10062911Y-16592818D02*
X10053387Y-16602342D01*
X10053387Y-16602342D02*
X10043864Y-16592818D01*
X10043864Y-16592818D02*
X10053387Y-16583294D01*
X10053387Y-16583294D02*
X10053387Y-16602342D01*
X10186721Y-16402342D02*
X10205768Y-16402342D01*
X10205768Y-16402342D02*
X10224816Y-16411865D01*
X10224816Y-16411865D02*
X10234340Y-16421389D01*
X10234340Y-16421389D02*
X10243864Y-16440437D01*
X10243864Y-16440437D02*
X10253387Y-16478532D01*
X10253387Y-16478532D02*
X10253387Y-16526151D01*
X10253387Y-16526151D02*
X10243864Y-16564246D01*
X10243864Y-16564246D02*
X10234340Y-16583294D01*
X10234340Y-16583294D02*
X10224816Y-16592818D01*
X10224816Y-16592818D02*
X10205768Y-16602342D01*
X10205768Y-16602342D02*
X10186721Y-16602342D01*
X10186721Y-16602342D02*
X10167673Y-16592818D01*
X10167673Y-16592818D02*
X10158149Y-16583294D01*
X10158149Y-16583294D02*
X10148625Y-16564246D01*
X10148625Y-16564246D02*
X10139102Y-16526151D01*
X10139102Y-16526151D02*
X10139102Y-16478532D01*
X10139102Y-16478532D02*
X10148625Y-16440437D01*
X10148625Y-16440437D02*
X10158149Y-16421389D01*
X10158149Y-16421389D02*
X10167673Y-16411865D01*
X10167673Y-16411865D02*
X10186721Y-16402342D01*
X10443864Y-16602342D02*
X10329578Y-16602342D01*
X10386721Y-16602342D02*
X10386721Y-16402342D01*
X10386721Y-16402342D02*
X10367673Y-16430913D01*
X10367673Y-16430913D02*
X10348625Y-16449961D01*
X10348625Y-16449961D02*
X10329578Y-16459484D01*
X10634340Y-16602342D02*
X10520054Y-16602342D01*
X10577197Y-16602342D02*
X10577197Y-16402342D01*
X10577197Y-16402342D02*
X10558149Y-16430913D01*
X10558149Y-16430913D02*
X10539102Y-16449961D01*
X10539102Y-16449961D02*
X10520054Y-16459484D01*
X10748625Y-16488056D02*
X10729578Y-16478532D01*
X10729578Y-16478532D02*
X10720054Y-16469008D01*
X10720054Y-16469008D02*
X10710530Y-16449961D01*
X10710530Y-16449961D02*
X10710530Y-16440437D01*
X10710530Y-16440437D02*
X10720054Y-16421389D01*
X10720054Y-16421389D02*
X10729578Y-16411865D01*
X10729578Y-16411865D02*
X10748625Y-16402342D01*
X10748625Y-16402342D02*
X10786721Y-16402342D01*
X10786721Y-16402342D02*
X10805768Y-16411865D01*
X10805768Y-16411865D02*
X10815292Y-16421389D01*
X10815292Y-16421389D02*
X10824816Y-16440437D01*
X10824816Y-16440437D02*
X10824816Y-16449961D01*
X10824816Y-16449961D02*
X10815292Y-16469008D01*
X10815292Y-16469008D02*
X10805768Y-16478532D01*
X10805768Y-16478532D02*
X10786721Y-16488056D01*
X10786721Y-16488056D02*
X10748625Y-16488056D01*
X10748625Y-16488056D02*
X10729578Y-16497580D01*
X10729578Y-16497580D02*
X10720054Y-16507104D01*
X10720054Y-16507104D02*
X10710530Y-16526151D01*
X10710530Y-16526151D02*
X10710530Y-16564246D01*
X10710530Y-16564246D02*
X10720054Y-16583294D01*
X10720054Y-16583294D02*
X10729578Y-16592818D01*
X10729578Y-16592818D02*
X10748625Y-16602342D01*
X10748625Y-16602342D02*
X10786721Y-16602342D01*
X10786721Y-16602342D02*
X10805768Y-16592818D01*
X10805768Y-16592818D02*
X10815292Y-16583294D01*
X10815292Y-16583294D02*
X10824816Y-16564246D01*
X10824816Y-16564246D02*
X10824816Y-16526151D01*
X10824816Y-16526151D02*
X10815292Y-16507104D01*
X10815292Y-16507104D02*
X10805768Y-16497580D01*
X10805768Y-16497580D02*
X10786721Y-16488056D01*
X10901006Y-16402342D02*
X10901006Y-16440437D01*
X10977197Y-16402342D02*
X10977197Y-16440437D01*
X11272435Y-16678532D02*
X11262911Y-16669008D01*
X11262911Y-16669008D02*
X11243864Y-16640437D01*
X11243864Y-16640437D02*
X11234340Y-16621389D01*
X11234340Y-16621389D02*
X11224816Y-16592818D01*
X11224816Y-16592818D02*
X11215292Y-16545199D01*
X11215292Y-16545199D02*
X11215292Y-16507104D01*
X11215292Y-16507104D02*
X11224816Y-16459484D01*
X11224816Y-16459484D02*
X11234340Y-16430913D01*
X11234340Y-16430913D02*
X11243864Y-16411865D01*
X11243864Y-16411865D02*
X11262911Y-16383294D01*
X11262911Y-16383294D02*
X11272435Y-16373770D01*
X11339102Y-16421389D02*
X11348625Y-16411865D01*
X11348625Y-16411865D02*
X11367673Y-16402342D01*
X11367673Y-16402342D02*
X11415292Y-16402342D01*
X11415292Y-16402342D02*
X11434340Y-16411865D01*
X11434340Y-16411865D02*
X11443864Y-16421389D01*
X11443864Y-16421389D02*
X11453387Y-16440437D01*
X11453387Y-16440437D02*
X11453387Y-16459484D01*
X11453387Y-16459484D02*
X11443864Y-16488056D01*
X11443864Y-16488056D02*
X11329578Y-16602342D01*
X11329578Y-16602342D02*
X11453387Y-16602342D01*
X11691483Y-16602342D02*
X11691483Y-16402342D01*
X11777197Y-16602342D02*
X11777197Y-16497580D01*
X11777197Y-16497580D02*
X11767673Y-16478532D01*
X11767673Y-16478532D02*
X11748626Y-16469008D01*
X11748626Y-16469008D02*
X11720054Y-16469008D01*
X11720054Y-16469008D02*
X11701006Y-16478532D01*
X11701006Y-16478532D02*
X11691483Y-16488056D01*
X11901006Y-16602342D02*
X11881959Y-16592818D01*
X11881959Y-16592818D02*
X11872435Y-16583294D01*
X11872435Y-16583294D02*
X11862911Y-16564246D01*
X11862911Y-16564246D02*
X11862911Y-16507104D01*
X11862911Y-16507104D02*
X11872435Y-16488056D01*
X11872435Y-16488056D02*
X11881959Y-16478532D01*
X11881959Y-16478532D02*
X11901006Y-16469008D01*
X11901006Y-16469008D02*
X11929578Y-16469008D01*
X11929578Y-16469008D02*
X11948626Y-16478532D01*
X11948626Y-16478532D02*
X11958149Y-16488056D01*
X11958149Y-16488056D02*
X11967673Y-16507104D01*
X11967673Y-16507104D02*
X11967673Y-16564246D01*
X11967673Y-16564246D02*
X11958149Y-16583294D01*
X11958149Y-16583294D02*
X11948626Y-16592818D01*
X11948626Y-16592818D02*
X11929578Y-16602342D01*
X11929578Y-16602342D02*
X11901006Y-16602342D01*
X12081959Y-16602342D02*
X12062911Y-16592818D01*
X12062911Y-16592818D02*
X12053387Y-16573770D01*
X12053387Y-16573770D02*
X12053387Y-16402342D01*
X12234340Y-16592818D02*
X12215292Y-16602342D01*
X12215292Y-16602342D02*
X12177197Y-16602342D01*
X12177197Y-16602342D02*
X12158149Y-16592818D01*
X12158149Y-16592818D02*
X12148626Y-16573770D01*
X12148626Y-16573770D02*
X12148626Y-16497580D01*
X12148626Y-16497580D02*
X12158149Y-16478532D01*
X12158149Y-16478532D02*
X12177197Y-16469008D01*
X12177197Y-16469008D02*
X12215292Y-16469008D01*
X12215292Y-16469008D02*
X12234340Y-16478532D01*
X12234340Y-16478532D02*
X12243864Y-16497580D01*
X12243864Y-16497580D02*
X12243864Y-16516627D01*
X12243864Y-16516627D02*
X12148626Y-16535675D01*
X12320054Y-16592818D02*
X12339102Y-16602342D01*
X12339102Y-16602342D02*
X12377197Y-16602342D01*
X12377197Y-16602342D02*
X12396245Y-16592818D01*
X12396245Y-16592818D02*
X12405768Y-16573770D01*
X12405768Y-16573770D02*
X12405768Y-16564246D01*
X12405768Y-16564246D02*
X12396245Y-16545199D01*
X12396245Y-16545199D02*
X12377197Y-16535675D01*
X12377197Y-16535675D02*
X12348626Y-16535675D01*
X12348626Y-16535675D02*
X12329578Y-16526151D01*
X12329578Y-16526151D02*
X12320054Y-16507104D01*
X12320054Y-16507104D02*
X12320054Y-16497580D01*
X12320054Y-16497580D02*
X12329578Y-16478532D01*
X12329578Y-16478532D02*
X12348626Y-16469008D01*
X12348626Y-16469008D02*
X12377197Y-16469008D01*
X12377197Y-16469008D02*
X12396245Y-16478532D01*
X12472435Y-16678532D02*
X12481959Y-16669008D01*
X12481959Y-16669008D02*
X12501007Y-16640437D01*
X12501007Y-16640437D02*
X12510530Y-16621389D01*
X12510530Y-16621389D02*
X12520054Y-16592818D01*
X12520054Y-16592818D02*
X12529578Y-16545199D01*
X12529578Y-16545199D02*
X12529578Y-16507104D01*
X12529578Y-16507104D02*
X12520054Y-16459484D01*
X12520054Y-16459484D02*
X12510530Y-16430913D01*
X12510530Y-16430913D02*
X12501007Y-16411865D01*
X12501007Y-16411865D02*
X12481959Y-16383294D01*
X12481959Y-16383294D02*
X12472435Y-16373770D01*
D12*
X7686957Y-16800003D02*
X7686957Y-16749713D01*
X7636667Y-16749713D01*
X7636667Y-16800003D01*
X7686957Y-16800003D01*
D11*
X7996244Y-16666342D02*
X8015292Y-16666342D01*
X8015292Y-16666342D02*
X8034339Y-16675865D01*
X8034339Y-16675865D02*
X8043863Y-16685389D01*
X8043863Y-16685389D02*
X8053387Y-16704437D01*
X8053387Y-16704437D02*
X8062911Y-16742532D01*
X8062911Y-16742532D02*
X8062911Y-16790151D01*
X8062911Y-16790151D02*
X8053387Y-16828246D01*
X8053387Y-16828246D02*
X8043863Y-16847294D01*
X8043863Y-16847294D02*
X8034339Y-16856818D01*
X8034339Y-16856818D02*
X8015292Y-16866342D01*
X8015292Y-16866342D02*
X7996244Y-16866342D01*
X7996244Y-16866342D02*
X7977197Y-16856818D01*
X7977197Y-16856818D02*
X7967673Y-16847294D01*
X7967673Y-16847294D02*
X7958149Y-16828246D01*
X7958149Y-16828246D02*
X7948625Y-16790151D01*
X7948625Y-16790151D02*
X7948625Y-16742532D01*
X7948625Y-16742532D02*
X7958149Y-16704437D01*
X7958149Y-16704437D02*
X7967673Y-16685389D01*
X7967673Y-16685389D02*
X7977197Y-16675865D01*
X7977197Y-16675865D02*
X7996244Y-16666342D01*
X8148625Y-16847294D02*
X8158149Y-16856818D01*
X8158149Y-16856818D02*
X8148625Y-16866342D01*
X8148625Y-16866342D02*
X8139101Y-16856818D01*
X8139101Y-16856818D02*
X8148625Y-16847294D01*
X8148625Y-16847294D02*
X8148625Y-16866342D01*
X8224816Y-16666342D02*
X8358149Y-16666342D01*
X8358149Y-16666342D02*
X8272435Y-16866342D01*
X8539101Y-16866342D02*
X8424816Y-16866342D01*
X8481959Y-16866342D02*
X8481959Y-16666342D01*
X8481959Y-16666342D02*
X8462911Y-16694913D01*
X8462911Y-16694913D02*
X8443863Y-16713961D01*
X8443863Y-16713961D02*
X8424816Y-16723484D01*
X8729578Y-16866342D02*
X8615292Y-16866342D01*
X8672435Y-16866342D02*
X8672435Y-16666342D01*
X8672435Y-16666342D02*
X8653387Y-16694913D01*
X8653387Y-16694913D02*
X8634340Y-16713961D01*
X8634340Y-16713961D02*
X8615292Y-16723484D01*
X8815292Y-16866342D02*
X8815292Y-16733008D01*
X8815292Y-16752056D02*
X8824816Y-16742532D01*
X8824816Y-16742532D02*
X8843863Y-16733008D01*
X8843863Y-16733008D02*
X8872435Y-16733008D01*
X8872435Y-16733008D02*
X8891482Y-16742532D01*
X8891482Y-16742532D02*
X8901006Y-16761580D01*
X8901006Y-16761580D02*
X8901006Y-16866342D01*
X8901006Y-16761580D02*
X8910530Y-16742532D01*
X8910530Y-16742532D02*
X8929578Y-16733008D01*
X8929578Y-16733008D02*
X8958149Y-16733008D01*
X8958149Y-16733008D02*
X8977197Y-16742532D01*
X8977197Y-16742532D02*
X8986721Y-16761580D01*
X8986721Y-16761580D02*
X8986721Y-16866342D01*
X9081959Y-16866342D02*
X9081959Y-16733008D01*
X9081959Y-16752056D02*
X9091482Y-16742532D01*
X9091482Y-16742532D02*
X9110530Y-16733008D01*
X9110530Y-16733008D02*
X9139102Y-16733008D01*
X9139102Y-16733008D02*
X9158149Y-16742532D01*
X9158149Y-16742532D02*
X9167673Y-16761580D01*
X9167673Y-16761580D02*
X9167673Y-16866342D01*
X9167673Y-16761580D02*
X9177197Y-16742532D01*
X9177197Y-16742532D02*
X9196244Y-16733008D01*
X9196244Y-16733008D02*
X9224816Y-16733008D01*
X9224816Y-16733008D02*
X9243863Y-16742532D01*
X9243863Y-16742532D02*
X9253387Y-16761580D01*
X9253387Y-16761580D02*
X9253387Y-16866342D01*
X9643863Y-16656818D02*
X9472435Y-16913961D01*
X9901006Y-16666342D02*
X9920054Y-16666342D01*
X9920054Y-16666342D02*
X9939102Y-16675865D01*
X9939102Y-16675865D02*
X9948625Y-16685389D01*
X9948625Y-16685389D02*
X9958149Y-16704437D01*
X9958149Y-16704437D02*
X9967673Y-16742532D01*
X9967673Y-16742532D02*
X9967673Y-16790151D01*
X9967673Y-16790151D02*
X9958149Y-16828246D01*
X9958149Y-16828246D02*
X9948625Y-16847294D01*
X9948625Y-16847294D02*
X9939102Y-16856818D01*
X9939102Y-16856818D02*
X9920054Y-16866342D01*
X9920054Y-16866342D02*
X9901006Y-16866342D01*
X9901006Y-16866342D02*
X9881959Y-16856818D01*
X9881959Y-16856818D02*
X9872435Y-16847294D01*
X9872435Y-16847294D02*
X9862911Y-16828246D01*
X9862911Y-16828246D02*
X9853387Y-16790151D01*
X9853387Y-16790151D02*
X9853387Y-16742532D01*
X9853387Y-16742532D02*
X9862911Y-16704437D01*
X9862911Y-16704437D02*
X9872435Y-16685389D01*
X9872435Y-16685389D02*
X9881959Y-16675865D01*
X9881959Y-16675865D02*
X9901006Y-16666342D01*
X10053387Y-16847294D02*
X10062911Y-16856818D01*
X10062911Y-16856818D02*
X10053387Y-16866342D01*
X10053387Y-16866342D02*
X10043864Y-16856818D01*
X10043864Y-16856818D02*
X10053387Y-16847294D01*
X10053387Y-16847294D02*
X10053387Y-16866342D01*
X10186721Y-16666342D02*
X10205768Y-16666342D01*
X10205768Y-16666342D02*
X10224816Y-16675865D01*
X10224816Y-16675865D02*
X10234340Y-16685389D01*
X10234340Y-16685389D02*
X10243864Y-16704437D01*
X10243864Y-16704437D02*
X10253387Y-16742532D01*
X10253387Y-16742532D02*
X10253387Y-16790151D01*
X10253387Y-16790151D02*
X10243864Y-16828246D01*
X10243864Y-16828246D02*
X10234340Y-16847294D01*
X10234340Y-16847294D02*
X10224816Y-16856818D01*
X10224816Y-16856818D02*
X10205768Y-16866342D01*
X10205768Y-16866342D02*
X10186721Y-16866342D01*
X10186721Y-16866342D02*
X10167673Y-16856818D01*
X10167673Y-16856818D02*
X10158149Y-16847294D01*
X10158149Y-16847294D02*
X10148625Y-16828246D01*
X10148625Y-16828246D02*
X10139102Y-16790151D01*
X10139102Y-16790151D02*
X10139102Y-16742532D01*
X10139102Y-16742532D02*
X10148625Y-16704437D01*
X10148625Y-16704437D02*
X10158149Y-16685389D01*
X10158149Y-16685389D02*
X10167673Y-16675865D01*
X10167673Y-16675865D02*
X10186721Y-16666342D01*
X10329578Y-16685389D02*
X10339102Y-16675865D01*
X10339102Y-16675865D02*
X10358149Y-16666342D01*
X10358149Y-16666342D02*
X10405768Y-16666342D01*
X10405768Y-16666342D02*
X10424816Y-16675865D01*
X10424816Y-16675865D02*
X10434340Y-16685389D01*
X10434340Y-16685389D02*
X10443864Y-16704437D01*
X10443864Y-16704437D02*
X10443864Y-16723484D01*
X10443864Y-16723484D02*
X10434340Y-16752056D01*
X10434340Y-16752056D02*
X10320054Y-16866342D01*
X10320054Y-16866342D02*
X10443864Y-16866342D01*
X10558149Y-16752056D02*
X10539102Y-16742532D01*
X10539102Y-16742532D02*
X10529578Y-16733008D01*
X10529578Y-16733008D02*
X10520054Y-16713961D01*
X10520054Y-16713961D02*
X10520054Y-16704437D01*
X10520054Y-16704437D02*
X10529578Y-16685389D01*
X10529578Y-16685389D02*
X10539102Y-16675865D01*
X10539102Y-16675865D02*
X10558149Y-16666342D01*
X10558149Y-16666342D02*
X10596245Y-16666342D01*
X10596245Y-16666342D02*
X10615292Y-16675865D01*
X10615292Y-16675865D02*
X10624816Y-16685389D01*
X10624816Y-16685389D02*
X10634340Y-16704437D01*
X10634340Y-16704437D02*
X10634340Y-16713961D01*
X10634340Y-16713961D02*
X10624816Y-16733008D01*
X10624816Y-16733008D02*
X10615292Y-16742532D01*
X10615292Y-16742532D02*
X10596245Y-16752056D01*
X10596245Y-16752056D02*
X10558149Y-16752056D01*
X10558149Y-16752056D02*
X10539102Y-16761580D01*
X10539102Y-16761580D02*
X10529578Y-16771104D01*
X10529578Y-16771104D02*
X10520054Y-16790151D01*
X10520054Y-16790151D02*
X10520054Y-16828246D01*
X10520054Y-16828246D02*
X10529578Y-16847294D01*
X10529578Y-16847294D02*
X10539102Y-16856818D01*
X10539102Y-16856818D02*
X10558149Y-16866342D01*
X10558149Y-16866342D02*
X10596245Y-16866342D01*
X10596245Y-16866342D02*
X10615292Y-16856818D01*
X10615292Y-16856818D02*
X10624816Y-16847294D01*
X10624816Y-16847294D02*
X10634340Y-16828246D01*
X10634340Y-16828246D02*
X10634340Y-16790151D01*
X10634340Y-16790151D02*
X10624816Y-16771104D01*
X10624816Y-16771104D02*
X10615292Y-16761580D01*
X10615292Y-16761580D02*
X10596245Y-16752056D01*
X10758149Y-16666342D02*
X10777197Y-16666342D01*
X10777197Y-16666342D02*
X10796245Y-16675865D01*
X10796245Y-16675865D02*
X10805768Y-16685389D01*
X10805768Y-16685389D02*
X10815292Y-16704437D01*
X10815292Y-16704437D02*
X10824816Y-16742532D01*
X10824816Y-16742532D02*
X10824816Y-16790151D01*
X10824816Y-16790151D02*
X10815292Y-16828246D01*
X10815292Y-16828246D02*
X10805768Y-16847294D01*
X10805768Y-16847294D02*
X10796245Y-16856818D01*
X10796245Y-16856818D02*
X10777197Y-16866342D01*
X10777197Y-16866342D02*
X10758149Y-16866342D01*
X10758149Y-16866342D02*
X10739102Y-16856818D01*
X10739102Y-16856818D02*
X10729578Y-16847294D01*
X10729578Y-16847294D02*
X10720054Y-16828246D01*
X10720054Y-16828246D02*
X10710530Y-16790151D01*
X10710530Y-16790151D02*
X10710530Y-16742532D01*
X10710530Y-16742532D02*
X10720054Y-16704437D01*
X10720054Y-16704437D02*
X10729578Y-16685389D01*
X10729578Y-16685389D02*
X10739102Y-16675865D01*
X10739102Y-16675865D02*
X10758149Y-16666342D01*
X10901006Y-16666342D02*
X10901006Y-16704437D01*
X10977197Y-16666342D02*
X10977197Y-16704437D01*
X11272435Y-16942532D02*
X11262911Y-16933008D01*
X11262911Y-16933008D02*
X11243864Y-16904437D01*
X11243864Y-16904437D02*
X11234340Y-16885389D01*
X11234340Y-16885389D02*
X11224816Y-16856818D01*
X11224816Y-16856818D02*
X11215292Y-16809199D01*
X11215292Y-16809199D02*
X11215292Y-16771104D01*
X11215292Y-16771104D02*
X11224816Y-16723484D01*
X11224816Y-16723484D02*
X11234340Y-16694913D01*
X11234340Y-16694913D02*
X11243864Y-16675865D01*
X11243864Y-16675865D02*
X11262911Y-16647294D01*
X11262911Y-16647294D02*
X11272435Y-16637770D01*
X11434340Y-16733008D02*
X11434340Y-16866342D01*
X11386721Y-16656818D02*
X11339102Y-16799675D01*
X11339102Y-16799675D02*
X11462911Y-16799675D01*
X11691483Y-16866342D02*
X11691483Y-16666342D01*
X11777197Y-16866342D02*
X11777197Y-16761580D01*
X11777197Y-16761580D02*
X11767673Y-16742532D01*
X11767673Y-16742532D02*
X11748626Y-16733008D01*
X11748626Y-16733008D02*
X11720054Y-16733008D01*
X11720054Y-16733008D02*
X11701006Y-16742532D01*
X11701006Y-16742532D02*
X11691483Y-16752056D01*
X11901006Y-16866342D02*
X11881959Y-16856818D01*
X11881959Y-16856818D02*
X11872435Y-16847294D01*
X11872435Y-16847294D02*
X11862911Y-16828246D01*
X11862911Y-16828246D02*
X11862911Y-16771104D01*
X11862911Y-16771104D02*
X11872435Y-16752056D01*
X11872435Y-16752056D02*
X11881959Y-16742532D01*
X11881959Y-16742532D02*
X11901006Y-16733008D01*
X11901006Y-16733008D02*
X11929578Y-16733008D01*
X11929578Y-16733008D02*
X11948626Y-16742532D01*
X11948626Y-16742532D02*
X11958149Y-16752056D01*
X11958149Y-16752056D02*
X11967673Y-16771104D01*
X11967673Y-16771104D02*
X11967673Y-16828246D01*
X11967673Y-16828246D02*
X11958149Y-16847294D01*
X11958149Y-16847294D02*
X11948626Y-16856818D01*
X11948626Y-16856818D02*
X11929578Y-16866342D01*
X11929578Y-16866342D02*
X11901006Y-16866342D01*
X12081959Y-16866342D02*
X12062911Y-16856818D01*
X12062911Y-16856818D02*
X12053387Y-16837770D01*
X12053387Y-16837770D02*
X12053387Y-16666342D01*
X12234340Y-16856818D02*
X12215292Y-16866342D01*
X12215292Y-16866342D02*
X12177197Y-16866342D01*
X12177197Y-16866342D02*
X12158149Y-16856818D01*
X12158149Y-16856818D02*
X12148626Y-16837770D01*
X12148626Y-16837770D02*
X12148626Y-16761580D01*
X12148626Y-16761580D02*
X12158149Y-16742532D01*
X12158149Y-16742532D02*
X12177197Y-16733008D01*
X12177197Y-16733008D02*
X12215292Y-16733008D01*
X12215292Y-16733008D02*
X12234340Y-16742532D01*
X12234340Y-16742532D02*
X12243864Y-16761580D01*
X12243864Y-16761580D02*
X12243864Y-16780627D01*
X12243864Y-16780627D02*
X12148626Y-16799675D01*
X12320054Y-16856818D02*
X12339102Y-16866342D01*
X12339102Y-16866342D02*
X12377197Y-16866342D01*
X12377197Y-16866342D02*
X12396245Y-16856818D01*
X12396245Y-16856818D02*
X12405768Y-16837770D01*
X12405768Y-16837770D02*
X12405768Y-16828246D01*
X12405768Y-16828246D02*
X12396245Y-16809199D01*
X12396245Y-16809199D02*
X12377197Y-16799675D01*
X12377197Y-16799675D02*
X12348626Y-16799675D01*
X12348626Y-16799675D02*
X12329578Y-16790151D01*
X12329578Y-16790151D02*
X12320054Y-16771104D01*
X12320054Y-16771104D02*
X12320054Y-16761580D01*
X12320054Y-16761580D02*
X12329578Y-16742532D01*
X12329578Y-16742532D02*
X12348626Y-16733008D01*
X12348626Y-16733008D02*
X12377197Y-16733008D01*
X12377197Y-16733008D02*
X12396245Y-16742532D01*
X12472435Y-16942532D02*
X12481959Y-16933008D01*
X12481959Y-16933008D02*
X12501007Y-16904437D01*
X12501007Y-16904437D02*
X12510530Y-16885389D01*
X12510530Y-16885389D02*
X12520054Y-16856818D01*
X12520054Y-16856818D02*
X12529578Y-16809199D01*
X12529578Y-16809199D02*
X12529578Y-16771104D01*
X12529578Y-16771104D02*
X12520054Y-16723484D01*
X12520054Y-16723484D02*
X12510530Y-16694913D01*
X12510530Y-16694913D02*
X12501007Y-16675865D01*
X12501007Y-16675865D02*
X12481959Y-16647294D01*
X12481959Y-16647294D02*
X12472435Y-16637770D01*
D12*
X7647842Y-17088388D02*
X7697372Y-17038858D01*
X7647842Y-16989328D01*
X7598312Y-17038858D01*
X7647842Y-17088388D01*
D11*
X7996244Y-16930342D02*
X8015292Y-16930342D01*
X8015292Y-16930342D02*
X8034339Y-16939866D01*
X8034339Y-16939866D02*
X8043863Y-16949389D01*
X8043863Y-16949389D02*
X8053387Y-16968437D01*
X8053387Y-16968437D02*
X8062911Y-17006532D01*
X8062911Y-17006532D02*
X8062911Y-17054151D01*
X8062911Y-17054151D02*
X8053387Y-17092246D01*
X8053387Y-17092246D02*
X8043863Y-17111294D01*
X8043863Y-17111294D02*
X8034339Y-17120818D01*
X8034339Y-17120818D02*
X8015292Y-17130342D01*
X8015292Y-17130342D02*
X7996244Y-17130342D01*
X7996244Y-17130342D02*
X7977197Y-17120818D01*
X7977197Y-17120818D02*
X7967673Y-17111294D01*
X7967673Y-17111294D02*
X7958149Y-17092246D01*
X7958149Y-17092246D02*
X7948625Y-17054151D01*
X7948625Y-17054151D02*
X7948625Y-17006532D01*
X7948625Y-17006532D02*
X7958149Y-16968437D01*
X7958149Y-16968437D02*
X7967673Y-16949389D01*
X7967673Y-16949389D02*
X7977197Y-16939866D01*
X7977197Y-16939866D02*
X7996244Y-16930342D01*
X8148625Y-17111294D02*
X8158149Y-17120818D01*
X8158149Y-17120818D02*
X8148625Y-17130342D01*
X8148625Y-17130342D02*
X8139101Y-17120818D01*
X8139101Y-17120818D02*
X8148625Y-17111294D01*
X8148625Y-17111294D02*
X8148625Y-17130342D01*
X8253387Y-17130342D02*
X8291482Y-17130342D01*
X8291482Y-17130342D02*
X8310530Y-17120818D01*
X8310530Y-17120818D02*
X8320054Y-17111294D01*
X8320054Y-17111294D02*
X8339101Y-17082723D01*
X8339101Y-17082723D02*
X8348625Y-17044627D01*
X8348625Y-17044627D02*
X8348625Y-16968437D01*
X8348625Y-16968437D02*
X8339101Y-16949389D01*
X8339101Y-16949389D02*
X8329578Y-16939866D01*
X8329578Y-16939866D02*
X8310530Y-16930342D01*
X8310530Y-16930342D02*
X8272435Y-16930342D01*
X8272435Y-16930342D02*
X8253387Y-16939866D01*
X8253387Y-16939866D02*
X8243863Y-16949389D01*
X8243863Y-16949389D02*
X8234339Y-16968437D01*
X8234339Y-16968437D02*
X8234339Y-17016056D01*
X8234339Y-17016056D02*
X8243863Y-17035104D01*
X8243863Y-17035104D02*
X8253387Y-17044627D01*
X8253387Y-17044627D02*
X8272435Y-17054151D01*
X8272435Y-17054151D02*
X8310530Y-17054151D01*
X8310530Y-17054151D02*
X8329578Y-17044627D01*
X8329578Y-17044627D02*
X8339101Y-17035104D01*
X8339101Y-17035104D02*
X8348625Y-17016056D01*
X8443863Y-17130342D02*
X8481959Y-17130342D01*
X8481959Y-17130342D02*
X8501006Y-17120818D01*
X8501006Y-17120818D02*
X8510530Y-17111294D01*
X8510530Y-17111294D02*
X8529578Y-17082723D01*
X8529578Y-17082723D02*
X8539101Y-17044627D01*
X8539101Y-17044627D02*
X8539101Y-16968437D01*
X8539101Y-16968437D02*
X8529578Y-16949389D01*
X8529578Y-16949389D02*
X8520054Y-16939866D01*
X8520054Y-16939866D02*
X8501006Y-16930342D01*
X8501006Y-16930342D02*
X8462911Y-16930342D01*
X8462911Y-16930342D02*
X8443863Y-16939866D01*
X8443863Y-16939866D02*
X8434340Y-16949389D01*
X8434340Y-16949389D02*
X8424816Y-16968437D01*
X8424816Y-16968437D02*
X8424816Y-17016056D01*
X8424816Y-17016056D02*
X8434340Y-17035104D01*
X8434340Y-17035104D02*
X8443863Y-17044627D01*
X8443863Y-17044627D02*
X8462911Y-17054151D01*
X8462911Y-17054151D02*
X8501006Y-17054151D01*
X8501006Y-17054151D02*
X8520054Y-17044627D01*
X8520054Y-17044627D02*
X8529578Y-17035104D01*
X8529578Y-17035104D02*
X8539101Y-17016056D01*
X8729578Y-17130342D02*
X8615292Y-17130342D01*
X8672435Y-17130342D02*
X8672435Y-16930342D01*
X8672435Y-16930342D02*
X8653387Y-16958913D01*
X8653387Y-16958913D02*
X8634340Y-16977961D01*
X8634340Y-16977961D02*
X8615292Y-16987485D01*
X8815292Y-17130342D02*
X8815292Y-16997008D01*
X8815292Y-17016056D02*
X8824816Y-17006532D01*
X8824816Y-17006532D02*
X8843863Y-16997008D01*
X8843863Y-16997008D02*
X8872435Y-16997008D01*
X8872435Y-16997008D02*
X8891482Y-17006532D01*
X8891482Y-17006532D02*
X8901006Y-17025580D01*
X8901006Y-17025580D02*
X8901006Y-17130342D01*
X8901006Y-17025580D02*
X8910530Y-17006532D01*
X8910530Y-17006532D02*
X8929578Y-16997008D01*
X8929578Y-16997008D02*
X8958149Y-16997008D01*
X8958149Y-16997008D02*
X8977197Y-17006532D01*
X8977197Y-17006532D02*
X8986721Y-17025580D01*
X8986721Y-17025580D02*
X8986721Y-17130342D01*
X9081959Y-17130342D02*
X9081959Y-16997008D01*
X9081959Y-17016056D02*
X9091482Y-17006532D01*
X9091482Y-17006532D02*
X9110530Y-16997008D01*
X9110530Y-16997008D02*
X9139102Y-16997008D01*
X9139102Y-16997008D02*
X9158149Y-17006532D01*
X9158149Y-17006532D02*
X9167673Y-17025580D01*
X9167673Y-17025580D02*
X9167673Y-17130342D01*
X9167673Y-17025580D02*
X9177197Y-17006532D01*
X9177197Y-17006532D02*
X9196244Y-16997008D01*
X9196244Y-16997008D02*
X9224816Y-16997008D01*
X9224816Y-16997008D02*
X9243863Y-17006532D01*
X9243863Y-17006532D02*
X9253387Y-17025580D01*
X9253387Y-17025580D02*
X9253387Y-17130342D01*
X9643863Y-16920818D02*
X9472435Y-17177961D01*
X9901006Y-16930342D02*
X9920054Y-16930342D01*
X9920054Y-16930342D02*
X9939102Y-16939866D01*
X9939102Y-16939866D02*
X9948625Y-16949389D01*
X9948625Y-16949389D02*
X9958149Y-16968437D01*
X9958149Y-16968437D02*
X9967673Y-17006532D01*
X9967673Y-17006532D02*
X9967673Y-17054151D01*
X9967673Y-17054151D02*
X9958149Y-17092246D01*
X9958149Y-17092246D02*
X9948625Y-17111294D01*
X9948625Y-17111294D02*
X9939102Y-17120818D01*
X9939102Y-17120818D02*
X9920054Y-17130342D01*
X9920054Y-17130342D02*
X9901006Y-17130342D01*
X9901006Y-17130342D02*
X9881959Y-17120818D01*
X9881959Y-17120818D02*
X9872435Y-17111294D01*
X9872435Y-17111294D02*
X9862911Y-17092246D01*
X9862911Y-17092246D02*
X9853387Y-17054151D01*
X9853387Y-17054151D02*
X9853387Y-17006532D01*
X9853387Y-17006532D02*
X9862911Y-16968437D01*
X9862911Y-16968437D02*
X9872435Y-16949389D01*
X9872435Y-16949389D02*
X9881959Y-16939866D01*
X9881959Y-16939866D02*
X9901006Y-16930342D01*
X10053387Y-17111294D02*
X10062911Y-17120818D01*
X10062911Y-17120818D02*
X10053387Y-17130342D01*
X10053387Y-17130342D02*
X10043864Y-17120818D01*
X10043864Y-17120818D02*
X10053387Y-17111294D01*
X10053387Y-17111294D02*
X10053387Y-17130342D01*
X10186721Y-16930342D02*
X10205768Y-16930342D01*
X10205768Y-16930342D02*
X10224816Y-16939866D01*
X10224816Y-16939866D02*
X10234340Y-16949389D01*
X10234340Y-16949389D02*
X10243864Y-16968437D01*
X10243864Y-16968437D02*
X10253387Y-17006532D01*
X10253387Y-17006532D02*
X10253387Y-17054151D01*
X10253387Y-17054151D02*
X10243864Y-17092246D01*
X10243864Y-17092246D02*
X10234340Y-17111294D01*
X10234340Y-17111294D02*
X10224816Y-17120818D01*
X10224816Y-17120818D02*
X10205768Y-17130342D01*
X10205768Y-17130342D02*
X10186721Y-17130342D01*
X10186721Y-17130342D02*
X10167673Y-17120818D01*
X10167673Y-17120818D02*
X10158149Y-17111294D01*
X10158149Y-17111294D02*
X10148625Y-17092246D01*
X10148625Y-17092246D02*
X10139102Y-17054151D01*
X10139102Y-17054151D02*
X10139102Y-17006532D01*
X10139102Y-17006532D02*
X10148625Y-16968437D01*
X10148625Y-16968437D02*
X10158149Y-16949389D01*
X10158149Y-16949389D02*
X10167673Y-16939866D01*
X10167673Y-16939866D02*
X10186721Y-16930342D01*
X10320054Y-16930342D02*
X10443864Y-16930342D01*
X10443864Y-16930342D02*
X10377197Y-17006532D01*
X10377197Y-17006532D02*
X10405768Y-17006532D01*
X10405768Y-17006532D02*
X10424816Y-17016056D01*
X10424816Y-17016056D02*
X10434340Y-17025580D01*
X10434340Y-17025580D02*
X10443864Y-17044627D01*
X10443864Y-17044627D02*
X10443864Y-17092246D01*
X10443864Y-17092246D02*
X10434340Y-17111294D01*
X10434340Y-17111294D02*
X10424816Y-17120818D01*
X10424816Y-17120818D02*
X10405768Y-17130342D01*
X10405768Y-17130342D02*
X10348625Y-17130342D01*
X10348625Y-17130342D02*
X10329578Y-17120818D01*
X10329578Y-17120818D02*
X10320054Y-17111294D01*
X10539102Y-17130342D02*
X10577197Y-17130342D01*
X10577197Y-17130342D02*
X10596245Y-17120818D01*
X10596245Y-17120818D02*
X10605768Y-17111294D01*
X10605768Y-17111294D02*
X10624816Y-17082723D01*
X10624816Y-17082723D02*
X10634340Y-17044627D01*
X10634340Y-17044627D02*
X10634340Y-16968437D01*
X10634340Y-16968437D02*
X10624816Y-16949389D01*
X10624816Y-16949389D02*
X10615292Y-16939866D01*
X10615292Y-16939866D02*
X10596245Y-16930342D01*
X10596245Y-16930342D02*
X10558149Y-16930342D01*
X10558149Y-16930342D02*
X10539102Y-16939866D01*
X10539102Y-16939866D02*
X10529578Y-16949389D01*
X10529578Y-16949389D02*
X10520054Y-16968437D01*
X10520054Y-16968437D02*
X10520054Y-17016056D01*
X10520054Y-17016056D02*
X10529578Y-17035104D01*
X10529578Y-17035104D02*
X10539102Y-17044627D01*
X10539102Y-17044627D02*
X10558149Y-17054151D01*
X10558149Y-17054151D02*
X10596245Y-17054151D01*
X10596245Y-17054151D02*
X10615292Y-17044627D01*
X10615292Y-17044627D02*
X10624816Y-17035104D01*
X10624816Y-17035104D02*
X10634340Y-17016056D01*
X10758149Y-16930342D02*
X10777197Y-16930342D01*
X10777197Y-16930342D02*
X10796245Y-16939866D01*
X10796245Y-16939866D02*
X10805768Y-16949389D01*
X10805768Y-16949389D02*
X10815292Y-16968437D01*
X10815292Y-16968437D02*
X10824816Y-17006532D01*
X10824816Y-17006532D02*
X10824816Y-17054151D01*
X10824816Y-17054151D02*
X10815292Y-17092246D01*
X10815292Y-17092246D02*
X10805768Y-17111294D01*
X10805768Y-17111294D02*
X10796245Y-17120818D01*
X10796245Y-17120818D02*
X10777197Y-17130342D01*
X10777197Y-17130342D02*
X10758149Y-17130342D01*
X10758149Y-17130342D02*
X10739102Y-17120818D01*
X10739102Y-17120818D02*
X10729578Y-17111294D01*
X10729578Y-17111294D02*
X10720054Y-17092246D01*
X10720054Y-17092246D02*
X10710530Y-17054151D01*
X10710530Y-17054151D02*
X10710530Y-17006532D01*
X10710530Y-17006532D02*
X10720054Y-16968437D01*
X10720054Y-16968437D02*
X10729578Y-16949389D01*
X10729578Y-16949389D02*
X10739102Y-16939866D01*
X10739102Y-16939866D02*
X10758149Y-16930342D01*
X10901006Y-16930342D02*
X10901006Y-16968437D01*
X10977197Y-16930342D02*
X10977197Y-16968437D01*
X11272435Y-17206532D02*
X11262911Y-17197008D01*
X11262911Y-17197008D02*
X11243864Y-17168437D01*
X11243864Y-17168437D02*
X11234340Y-17149389D01*
X11234340Y-17149389D02*
X11224816Y-17120818D01*
X11224816Y-17120818D02*
X11215292Y-17073199D01*
X11215292Y-17073199D02*
X11215292Y-17035104D01*
X11215292Y-17035104D02*
X11224816Y-16987485D01*
X11224816Y-16987485D02*
X11234340Y-16958913D01*
X11234340Y-16958913D02*
X11243864Y-16939866D01*
X11243864Y-16939866D02*
X11262911Y-16911294D01*
X11262911Y-16911294D02*
X11272435Y-16901770D01*
X11339102Y-16949389D02*
X11348625Y-16939866D01*
X11348625Y-16939866D02*
X11367673Y-16930342D01*
X11367673Y-16930342D02*
X11415292Y-16930342D01*
X11415292Y-16930342D02*
X11434340Y-16939866D01*
X11434340Y-16939866D02*
X11443864Y-16949389D01*
X11443864Y-16949389D02*
X11453387Y-16968437D01*
X11453387Y-16968437D02*
X11453387Y-16987485D01*
X11453387Y-16987485D02*
X11443864Y-17016056D01*
X11443864Y-17016056D02*
X11329578Y-17130342D01*
X11329578Y-17130342D02*
X11453387Y-17130342D01*
X11691483Y-17130342D02*
X11691483Y-16930342D01*
X11777197Y-17130342D02*
X11777197Y-17025580D01*
X11777197Y-17025580D02*
X11767673Y-17006532D01*
X11767673Y-17006532D02*
X11748626Y-16997008D01*
X11748626Y-16997008D02*
X11720054Y-16997008D01*
X11720054Y-16997008D02*
X11701006Y-17006532D01*
X11701006Y-17006532D02*
X11691483Y-17016056D01*
X11901006Y-17130342D02*
X11881959Y-17120818D01*
X11881959Y-17120818D02*
X11872435Y-17111294D01*
X11872435Y-17111294D02*
X11862911Y-17092246D01*
X11862911Y-17092246D02*
X11862911Y-17035104D01*
X11862911Y-17035104D02*
X11872435Y-17016056D01*
X11872435Y-17016056D02*
X11881959Y-17006532D01*
X11881959Y-17006532D02*
X11901006Y-16997008D01*
X11901006Y-16997008D02*
X11929578Y-16997008D01*
X11929578Y-16997008D02*
X11948626Y-17006532D01*
X11948626Y-17006532D02*
X11958149Y-17016056D01*
X11958149Y-17016056D02*
X11967673Y-17035104D01*
X11967673Y-17035104D02*
X11967673Y-17092246D01*
X11967673Y-17092246D02*
X11958149Y-17111294D01*
X11958149Y-17111294D02*
X11948626Y-17120818D01*
X11948626Y-17120818D02*
X11929578Y-17130342D01*
X11929578Y-17130342D02*
X11901006Y-17130342D01*
X12081959Y-17130342D02*
X12062911Y-17120818D01*
X12062911Y-17120818D02*
X12053387Y-17101770D01*
X12053387Y-17101770D02*
X12053387Y-16930342D01*
X12234340Y-17120818D02*
X12215292Y-17130342D01*
X12215292Y-17130342D02*
X12177197Y-17130342D01*
X12177197Y-17130342D02*
X12158149Y-17120818D01*
X12158149Y-17120818D02*
X12148626Y-17101770D01*
X12148626Y-17101770D02*
X12148626Y-17025580D01*
X12148626Y-17025580D02*
X12158149Y-17006532D01*
X12158149Y-17006532D02*
X12177197Y-16997008D01*
X12177197Y-16997008D02*
X12215292Y-16997008D01*
X12215292Y-16997008D02*
X12234340Y-17006532D01*
X12234340Y-17006532D02*
X12243864Y-17025580D01*
X12243864Y-17025580D02*
X12243864Y-17044627D01*
X12243864Y-17044627D02*
X12148626Y-17063675D01*
X12320054Y-17120818D02*
X12339102Y-17130342D01*
X12339102Y-17130342D02*
X12377197Y-17130342D01*
X12377197Y-17130342D02*
X12396245Y-17120818D01*
X12396245Y-17120818D02*
X12405768Y-17101770D01*
X12405768Y-17101770D02*
X12405768Y-17092246D01*
X12405768Y-17092246D02*
X12396245Y-17073199D01*
X12396245Y-17073199D02*
X12377197Y-17063675D01*
X12377197Y-17063675D02*
X12348626Y-17063675D01*
X12348626Y-17063675D02*
X12329578Y-17054151D01*
X12329578Y-17054151D02*
X12320054Y-17035104D01*
X12320054Y-17035104D02*
X12320054Y-17025580D01*
X12320054Y-17025580D02*
X12329578Y-17006532D01*
X12329578Y-17006532D02*
X12348626Y-16997008D01*
X12348626Y-16997008D02*
X12377197Y-16997008D01*
X12377197Y-16997008D02*
X12396245Y-17006532D01*
X12472435Y-17206532D02*
X12481959Y-17197008D01*
X12481959Y-17197008D02*
X12501007Y-17168437D01*
X12501007Y-17168437D02*
X12510530Y-17149389D01*
X12510530Y-17149389D02*
X12520054Y-17120818D01*
X12520054Y-17120818D02*
X12529578Y-17073199D01*
X12529578Y-17073199D02*
X12529578Y-17035104D01*
X12529578Y-17035104D02*
X12520054Y-16987485D01*
X12520054Y-16987485D02*
X12510530Y-16958913D01*
X12510530Y-16958913D02*
X12501007Y-16939866D01*
X12501007Y-16939866D02*
X12481959Y-16911294D01*
X12481959Y-16911294D02*
X12472435Y-16901770D01*
D12*
X7597372Y-17252858D02*
X7697372Y-17352858D01*
X7697372Y-17252858D02*
X7597372Y-17352858D01*
X7697372Y-17302858D02*
G75*
G02*
X7597372Y-17302858I-50000J0D01*
G01*
X7597372Y-17302858D02*
G75*
G02*
X7697372Y-17302858I50000J0D01*
G01*
D11*
X8062911Y-17394342D02*
X7948625Y-17394342D01*
X8005768Y-17394342D02*
X8005768Y-17194342D01*
X8005768Y-17194342D02*
X7986720Y-17222913D01*
X7986720Y-17222913D02*
X7967673Y-17241961D01*
X7967673Y-17241961D02*
X7948625Y-17251485D01*
X8148625Y-17375294D02*
X8158149Y-17384818D01*
X8158149Y-17384818D02*
X8148625Y-17394342D01*
X8148625Y-17394342D02*
X8139101Y-17384818D01*
X8139101Y-17384818D02*
X8148625Y-17375294D01*
X8148625Y-17375294D02*
X8148625Y-17394342D01*
X8281958Y-17194342D02*
X8301006Y-17194342D01*
X8301006Y-17194342D02*
X8320054Y-17203866D01*
X8320054Y-17203866D02*
X8329578Y-17213389D01*
X8329578Y-17213389D02*
X8339101Y-17232437D01*
X8339101Y-17232437D02*
X8348625Y-17270532D01*
X8348625Y-17270532D02*
X8348625Y-17318151D01*
X8348625Y-17318151D02*
X8339101Y-17356246D01*
X8339101Y-17356246D02*
X8329578Y-17375294D01*
X8329578Y-17375294D02*
X8320054Y-17384818D01*
X8320054Y-17384818D02*
X8301006Y-17394342D01*
X8301006Y-17394342D02*
X8281958Y-17394342D01*
X8281958Y-17394342D02*
X8262911Y-17384818D01*
X8262911Y-17384818D02*
X8253387Y-17375294D01*
X8253387Y-17375294D02*
X8243863Y-17356246D01*
X8243863Y-17356246D02*
X8234339Y-17318151D01*
X8234339Y-17318151D02*
X8234339Y-17270532D01*
X8234339Y-17270532D02*
X8243863Y-17232437D01*
X8243863Y-17232437D02*
X8253387Y-17213389D01*
X8253387Y-17213389D02*
X8262911Y-17203866D01*
X8262911Y-17203866D02*
X8281958Y-17194342D01*
X8472435Y-17194342D02*
X8491482Y-17194342D01*
X8491482Y-17194342D02*
X8510530Y-17203866D01*
X8510530Y-17203866D02*
X8520054Y-17213389D01*
X8520054Y-17213389D02*
X8529578Y-17232437D01*
X8529578Y-17232437D02*
X8539101Y-17270532D01*
X8539101Y-17270532D02*
X8539101Y-17318151D01*
X8539101Y-17318151D02*
X8529578Y-17356246D01*
X8529578Y-17356246D02*
X8520054Y-17375294D01*
X8520054Y-17375294D02*
X8510530Y-17384818D01*
X8510530Y-17384818D02*
X8491482Y-17394342D01*
X8491482Y-17394342D02*
X8472435Y-17394342D01*
X8472435Y-17394342D02*
X8453387Y-17384818D01*
X8453387Y-17384818D02*
X8443863Y-17375294D01*
X8443863Y-17375294D02*
X8434340Y-17356246D01*
X8434340Y-17356246D02*
X8424816Y-17318151D01*
X8424816Y-17318151D02*
X8424816Y-17270532D01*
X8424816Y-17270532D02*
X8434340Y-17232437D01*
X8434340Y-17232437D02*
X8443863Y-17213389D01*
X8443863Y-17213389D02*
X8453387Y-17203866D01*
X8453387Y-17203866D02*
X8472435Y-17194342D01*
X8662911Y-17194342D02*
X8681959Y-17194342D01*
X8681959Y-17194342D02*
X8701006Y-17203866D01*
X8701006Y-17203866D02*
X8710530Y-17213389D01*
X8710530Y-17213389D02*
X8720054Y-17232437D01*
X8720054Y-17232437D02*
X8729578Y-17270532D01*
X8729578Y-17270532D02*
X8729578Y-17318151D01*
X8729578Y-17318151D02*
X8720054Y-17356246D01*
X8720054Y-17356246D02*
X8710530Y-17375294D01*
X8710530Y-17375294D02*
X8701006Y-17384818D01*
X8701006Y-17384818D02*
X8681959Y-17394342D01*
X8681959Y-17394342D02*
X8662911Y-17394342D01*
X8662911Y-17394342D02*
X8643863Y-17384818D01*
X8643863Y-17384818D02*
X8634340Y-17375294D01*
X8634340Y-17375294D02*
X8624816Y-17356246D01*
X8624816Y-17356246D02*
X8615292Y-17318151D01*
X8615292Y-17318151D02*
X8615292Y-17270532D01*
X8615292Y-17270532D02*
X8624816Y-17232437D01*
X8624816Y-17232437D02*
X8634340Y-17213389D01*
X8634340Y-17213389D02*
X8643863Y-17203866D01*
X8643863Y-17203866D02*
X8662911Y-17194342D01*
X8815292Y-17394342D02*
X8815292Y-17261008D01*
X8815292Y-17280056D02*
X8824816Y-17270532D01*
X8824816Y-17270532D02*
X8843863Y-17261008D01*
X8843863Y-17261008D02*
X8872435Y-17261008D01*
X8872435Y-17261008D02*
X8891482Y-17270532D01*
X8891482Y-17270532D02*
X8901006Y-17289580D01*
X8901006Y-17289580D02*
X8901006Y-17394342D01*
X8901006Y-17289580D02*
X8910530Y-17270532D01*
X8910530Y-17270532D02*
X8929578Y-17261008D01*
X8929578Y-17261008D02*
X8958149Y-17261008D01*
X8958149Y-17261008D02*
X8977197Y-17270532D01*
X8977197Y-17270532D02*
X8986721Y-17289580D01*
X8986721Y-17289580D02*
X8986721Y-17394342D01*
X9081959Y-17394342D02*
X9081959Y-17261008D01*
X9081959Y-17280056D02*
X9091482Y-17270532D01*
X9091482Y-17270532D02*
X9110530Y-17261008D01*
X9110530Y-17261008D02*
X9139102Y-17261008D01*
X9139102Y-17261008D02*
X9158149Y-17270532D01*
X9158149Y-17270532D02*
X9167673Y-17289580D01*
X9167673Y-17289580D02*
X9167673Y-17394342D01*
X9167673Y-17289580D02*
X9177197Y-17270532D01*
X9177197Y-17270532D02*
X9196244Y-17261008D01*
X9196244Y-17261008D02*
X9224816Y-17261008D01*
X9224816Y-17261008D02*
X9243863Y-17270532D01*
X9243863Y-17270532D02*
X9253387Y-17289580D01*
X9253387Y-17289580D02*
X9253387Y-17394342D01*
X9643863Y-17184818D02*
X9472435Y-17441961D01*
X9901006Y-17194342D02*
X9920054Y-17194342D01*
X9920054Y-17194342D02*
X9939102Y-17203866D01*
X9939102Y-17203866D02*
X9948625Y-17213389D01*
X9948625Y-17213389D02*
X9958149Y-17232437D01*
X9958149Y-17232437D02*
X9967673Y-17270532D01*
X9967673Y-17270532D02*
X9967673Y-17318151D01*
X9967673Y-17318151D02*
X9958149Y-17356246D01*
X9958149Y-17356246D02*
X9948625Y-17375294D01*
X9948625Y-17375294D02*
X9939102Y-17384818D01*
X9939102Y-17384818D02*
X9920054Y-17394342D01*
X9920054Y-17394342D02*
X9901006Y-17394342D01*
X9901006Y-17394342D02*
X9881959Y-17384818D01*
X9881959Y-17384818D02*
X9872435Y-17375294D01*
X9872435Y-17375294D02*
X9862911Y-17356246D01*
X9862911Y-17356246D02*
X9853387Y-17318151D01*
X9853387Y-17318151D02*
X9853387Y-17270532D01*
X9853387Y-17270532D02*
X9862911Y-17232437D01*
X9862911Y-17232437D02*
X9872435Y-17213389D01*
X9872435Y-17213389D02*
X9881959Y-17203866D01*
X9881959Y-17203866D02*
X9901006Y-17194342D01*
X10053387Y-17375294D02*
X10062911Y-17384818D01*
X10062911Y-17384818D02*
X10053387Y-17394342D01*
X10053387Y-17394342D02*
X10043864Y-17384818D01*
X10043864Y-17384818D02*
X10053387Y-17375294D01*
X10053387Y-17375294D02*
X10053387Y-17394342D01*
X10186721Y-17194342D02*
X10205768Y-17194342D01*
X10205768Y-17194342D02*
X10224816Y-17203866D01*
X10224816Y-17203866D02*
X10234340Y-17213389D01*
X10234340Y-17213389D02*
X10243864Y-17232437D01*
X10243864Y-17232437D02*
X10253387Y-17270532D01*
X10253387Y-17270532D02*
X10253387Y-17318151D01*
X10253387Y-17318151D02*
X10243864Y-17356246D01*
X10243864Y-17356246D02*
X10234340Y-17375294D01*
X10234340Y-17375294D02*
X10224816Y-17384818D01*
X10224816Y-17384818D02*
X10205768Y-17394342D01*
X10205768Y-17394342D02*
X10186721Y-17394342D01*
X10186721Y-17394342D02*
X10167673Y-17384818D01*
X10167673Y-17384818D02*
X10158149Y-17375294D01*
X10158149Y-17375294D02*
X10148625Y-17356246D01*
X10148625Y-17356246D02*
X10139102Y-17318151D01*
X10139102Y-17318151D02*
X10139102Y-17270532D01*
X10139102Y-17270532D02*
X10148625Y-17232437D01*
X10148625Y-17232437D02*
X10158149Y-17213389D01*
X10158149Y-17213389D02*
X10167673Y-17203866D01*
X10167673Y-17203866D02*
X10186721Y-17194342D01*
X10320054Y-17194342D02*
X10443864Y-17194342D01*
X10443864Y-17194342D02*
X10377197Y-17270532D01*
X10377197Y-17270532D02*
X10405768Y-17270532D01*
X10405768Y-17270532D02*
X10424816Y-17280056D01*
X10424816Y-17280056D02*
X10434340Y-17289580D01*
X10434340Y-17289580D02*
X10443864Y-17308627D01*
X10443864Y-17308627D02*
X10443864Y-17356246D01*
X10443864Y-17356246D02*
X10434340Y-17375294D01*
X10434340Y-17375294D02*
X10424816Y-17384818D01*
X10424816Y-17384818D02*
X10405768Y-17394342D01*
X10405768Y-17394342D02*
X10348625Y-17394342D01*
X10348625Y-17394342D02*
X10329578Y-17384818D01*
X10329578Y-17384818D02*
X10320054Y-17375294D01*
X10539102Y-17394342D02*
X10577197Y-17394342D01*
X10577197Y-17394342D02*
X10596245Y-17384818D01*
X10596245Y-17384818D02*
X10605768Y-17375294D01*
X10605768Y-17375294D02*
X10624816Y-17346723D01*
X10624816Y-17346723D02*
X10634340Y-17308627D01*
X10634340Y-17308627D02*
X10634340Y-17232437D01*
X10634340Y-17232437D02*
X10624816Y-17213389D01*
X10624816Y-17213389D02*
X10615292Y-17203866D01*
X10615292Y-17203866D02*
X10596245Y-17194342D01*
X10596245Y-17194342D02*
X10558149Y-17194342D01*
X10558149Y-17194342D02*
X10539102Y-17203866D01*
X10539102Y-17203866D02*
X10529578Y-17213389D01*
X10529578Y-17213389D02*
X10520054Y-17232437D01*
X10520054Y-17232437D02*
X10520054Y-17280056D01*
X10520054Y-17280056D02*
X10529578Y-17299104D01*
X10529578Y-17299104D02*
X10539102Y-17308627D01*
X10539102Y-17308627D02*
X10558149Y-17318151D01*
X10558149Y-17318151D02*
X10596245Y-17318151D01*
X10596245Y-17318151D02*
X10615292Y-17308627D01*
X10615292Y-17308627D02*
X10624816Y-17299104D01*
X10624816Y-17299104D02*
X10634340Y-17280056D01*
X10805768Y-17261008D02*
X10805768Y-17394342D01*
X10758149Y-17184818D02*
X10710530Y-17327675D01*
X10710530Y-17327675D02*
X10834340Y-17327675D01*
X10901006Y-17194342D02*
X10901006Y-17232437D01*
X10977197Y-17194342D02*
X10977197Y-17232437D01*
X11272435Y-17470532D02*
X11262911Y-17461008D01*
X11262911Y-17461008D02*
X11243864Y-17432437D01*
X11243864Y-17432437D02*
X11234340Y-17413389D01*
X11234340Y-17413389D02*
X11224816Y-17384818D01*
X11224816Y-17384818D02*
X11215292Y-17337199D01*
X11215292Y-17337199D02*
X11215292Y-17299104D01*
X11215292Y-17299104D02*
X11224816Y-17251485D01*
X11224816Y-17251485D02*
X11234340Y-17222913D01*
X11234340Y-17222913D02*
X11243864Y-17203866D01*
X11243864Y-17203866D02*
X11262911Y-17175294D01*
X11262911Y-17175294D02*
X11272435Y-17165770D01*
X11453387Y-17394342D02*
X11339102Y-17394342D01*
X11396244Y-17394342D02*
X11396244Y-17194342D01*
X11396244Y-17194342D02*
X11377197Y-17222913D01*
X11377197Y-17222913D02*
X11358149Y-17241961D01*
X11358149Y-17241961D02*
X11339102Y-17251485D01*
X11624816Y-17261008D02*
X11624816Y-17394342D01*
X11577197Y-17184818D02*
X11529578Y-17327675D01*
X11529578Y-17327675D02*
X11653387Y-17327675D01*
X11881959Y-17394342D02*
X11881959Y-17194342D01*
X11967673Y-17394342D02*
X11967673Y-17289580D01*
X11967673Y-17289580D02*
X11958149Y-17270532D01*
X11958149Y-17270532D02*
X11939102Y-17261008D01*
X11939102Y-17261008D02*
X11910530Y-17261008D01*
X11910530Y-17261008D02*
X11891483Y-17270532D01*
X11891483Y-17270532D02*
X11881959Y-17280056D01*
X12091483Y-17394342D02*
X12072435Y-17384818D01*
X12072435Y-17384818D02*
X12062911Y-17375294D01*
X12062911Y-17375294D02*
X12053387Y-17356246D01*
X12053387Y-17356246D02*
X12053387Y-17299104D01*
X12053387Y-17299104D02*
X12062911Y-17280056D01*
X12062911Y-17280056D02*
X12072435Y-17270532D01*
X12072435Y-17270532D02*
X12091483Y-17261008D01*
X12091483Y-17261008D02*
X12120054Y-17261008D01*
X12120054Y-17261008D02*
X12139102Y-17270532D01*
X12139102Y-17270532D02*
X12148626Y-17280056D01*
X12148626Y-17280056D02*
X12158149Y-17299104D01*
X12158149Y-17299104D02*
X12158149Y-17356246D01*
X12158149Y-17356246D02*
X12148626Y-17375294D01*
X12148626Y-17375294D02*
X12139102Y-17384818D01*
X12139102Y-17384818D02*
X12120054Y-17394342D01*
X12120054Y-17394342D02*
X12091483Y-17394342D01*
X12272435Y-17394342D02*
X12253387Y-17384818D01*
X12253387Y-17384818D02*
X12243864Y-17365770D01*
X12243864Y-17365770D02*
X12243864Y-17194342D01*
X12424816Y-17384818D02*
X12405768Y-17394342D01*
X12405768Y-17394342D02*
X12367673Y-17394342D01*
X12367673Y-17394342D02*
X12348626Y-17384818D01*
X12348626Y-17384818D02*
X12339102Y-17365770D01*
X12339102Y-17365770D02*
X12339102Y-17289580D01*
X12339102Y-17289580D02*
X12348626Y-17270532D01*
X12348626Y-17270532D02*
X12367673Y-17261008D01*
X12367673Y-17261008D02*
X12405768Y-17261008D01*
X12405768Y-17261008D02*
X12424816Y-17270532D01*
X12424816Y-17270532D02*
X12434340Y-17289580D01*
X12434340Y-17289580D02*
X12434340Y-17308627D01*
X12434340Y-17308627D02*
X12339102Y-17327675D01*
X12510530Y-17384818D02*
X12529578Y-17394342D01*
X12529578Y-17394342D02*
X12567673Y-17394342D01*
X12567673Y-17394342D02*
X12586721Y-17384818D01*
X12586721Y-17384818D02*
X12596245Y-17365770D01*
X12596245Y-17365770D02*
X12596245Y-17356246D01*
X12596245Y-17356246D02*
X12586721Y-17337199D01*
X12586721Y-17337199D02*
X12567673Y-17327675D01*
X12567673Y-17327675D02*
X12539102Y-17327675D01*
X12539102Y-17327675D02*
X12520054Y-17318151D01*
X12520054Y-17318151D02*
X12510530Y-17299104D01*
X12510530Y-17299104D02*
X12510530Y-17289580D01*
X12510530Y-17289580D02*
X12520054Y-17270532D01*
X12520054Y-17270532D02*
X12539102Y-17261008D01*
X12539102Y-17261008D02*
X12567673Y-17261008D01*
X12567673Y-17261008D02*
X12586721Y-17270532D01*
X12662911Y-17470532D02*
X12672435Y-17461008D01*
X12672435Y-17461008D02*
X12691483Y-17432437D01*
X12691483Y-17432437D02*
X12701007Y-17413389D01*
X12701007Y-17413389D02*
X12710530Y-17384818D01*
X12710530Y-17384818D02*
X12720054Y-17337199D01*
X12720054Y-17337199D02*
X12720054Y-17299104D01*
X12720054Y-17299104D02*
X12710530Y-17251485D01*
X12710530Y-17251485D02*
X12701007Y-17222913D01*
X12701007Y-17222913D02*
X12691483Y-17203866D01*
X12691483Y-17203866D02*
X12672435Y-17175294D01*
X12672435Y-17175294D02*
X12662911Y-17165770D01*
D13*
X7577372Y-17506858D02*
X7697372Y-17626858D01*
X7697372Y-17506858D02*
X7577372Y-17626858D01*
X7637372Y-17506858D02*
X7637372Y-17626858D01*
X7577372Y-17566858D02*
X7697372Y-17566858D01*
D11*
X8062911Y-17658342D02*
X7948625Y-17658342D01*
X8005768Y-17658342D02*
X8005768Y-17458342D01*
X8005768Y-17458342D02*
X7986720Y-17486913D01*
X7986720Y-17486913D02*
X7967673Y-17505961D01*
X7967673Y-17505961D02*
X7948625Y-17515485D01*
X8148625Y-17639294D02*
X8158149Y-17648818D01*
X8158149Y-17648818D02*
X8148625Y-17658342D01*
X8148625Y-17658342D02*
X8139101Y-17648818D01*
X8139101Y-17648818D02*
X8148625Y-17639294D01*
X8148625Y-17639294D02*
X8148625Y-17658342D01*
X8234339Y-17477389D02*
X8243863Y-17467866D01*
X8243863Y-17467866D02*
X8262911Y-17458342D01*
X8262911Y-17458342D02*
X8310530Y-17458342D01*
X8310530Y-17458342D02*
X8329578Y-17467866D01*
X8329578Y-17467866D02*
X8339101Y-17477389D01*
X8339101Y-17477389D02*
X8348625Y-17496437D01*
X8348625Y-17496437D02*
X8348625Y-17515485D01*
X8348625Y-17515485D02*
X8339101Y-17544056D01*
X8339101Y-17544056D02*
X8224816Y-17658342D01*
X8224816Y-17658342D02*
X8348625Y-17658342D01*
X8472435Y-17458342D02*
X8491482Y-17458342D01*
X8491482Y-17458342D02*
X8510530Y-17467866D01*
X8510530Y-17467866D02*
X8520054Y-17477389D01*
X8520054Y-17477389D02*
X8529578Y-17496437D01*
X8529578Y-17496437D02*
X8539101Y-17534532D01*
X8539101Y-17534532D02*
X8539101Y-17582151D01*
X8539101Y-17582151D02*
X8529578Y-17620246D01*
X8529578Y-17620246D02*
X8520054Y-17639294D01*
X8520054Y-17639294D02*
X8510530Y-17648818D01*
X8510530Y-17648818D02*
X8491482Y-17658342D01*
X8491482Y-17658342D02*
X8472435Y-17658342D01*
X8472435Y-17658342D02*
X8453387Y-17648818D01*
X8453387Y-17648818D02*
X8443863Y-17639294D01*
X8443863Y-17639294D02*
X8434340Y-17620246D01*
X8434340Y-17620246D02*
X8424816Y-17582151D01*
X8424816Y-17582151D02*
X8424816Y-17534532D01*
X8424816Y-17534532D02*
X8434340Y-17496437D01*
X8434340Y-17496437D02*
X8443863Y-17477389D01*
X8443863Y-17477389D02*
X8453387Y-17467866D01*
X8453387Y-17467866D02*
X8472435Y-17458342D01*
X8662911Y-17458342D02*
X8681959Y-17458342D01*
X8681959Y-17458342D02*
X8701006Y-17467866D01*
X8701006Y-17467866D02*
X8710530Y-17477389D01*
X8710530Y-17477389D02*
X8720054Y-17496437D01*
X8720054Y-17496437D02*
X8729578Y-17534532D01*
X8729578Y-17534532D02*
X8729578Y-17582151D01*
X8729578Y-17582151D02*
X8720054Y-17620246D01*
X8720054Y-17620246D02*
X8710530Y-17639294D01*
X8710530Y-17639294D02*
X8701006Y-17648818D01*
X8701006Y-17648818D02*
X8681959Y-17658342D01*
X8681959Y-17658342D02*
X8662911Y-17658342D01*
X8662911Y-17658342D02*
X8643863Y-17648818D01*
X8643863Y-17648818D02*
X8634340Y-17639294D01*
X8634340Y-17639294D02*
X8624816Y-17620246D01*
X8624816Y-17620246D02*
X8615292Y-17582151D01*
X8615292Y-17582151D02*
X8615292Y-17534532D01*
X8615292Y-17534532D02*
X8624816Y-17496437D01*
X8624816Y-17496437D02*
X8634340Y-17477389D01*
X8634340Y-17477389D02*
X8643863Y-17467866D01*
X8643863Y-17467866D02*
X8662911Y-17458342D01*
X8815292Y-17658342D02*
X8815292Y-17525008D01*
X8815292Y-17544056D02*
X8824816Y-17534532D01*
X8824816Y-17534532D02*
X8843863Y-17525008D01*
X8843863Y-17525008D02*
X8872435Y-17525008D01*
X8872435Y-17525008D02*
X8891482Y-17534532D01*
X8891482Y-17534532D02*
X8901006Y-17553580D01*
X8901006Y-17553580D02*
X8901006Y-17658342D01*
X8901006Y-17553580D02*
X8910530Y-17534532D01*
X8910530Y-17534532D02*
X8929578Y-17525008D01*
X8929578Y-17525008D02*
X8958149Y-17525008D01*
X8958149Y-17525008D02*
X8977197Y-17534532D01*
X8977197Y-17534532D02*
X8986721Y-17553580D01*
X8986721Y-17553580D02*
X8986721Y-17658342D01*
X9081959Y-17658342D02*
X9081959Y-17525008D01*
X9081959Y-17544056D02*
X9091482Y-17534532D01*
X9091482Y-17534532D02*
X9110530Y-17525008D01*
X9110530Y-17525008D02*
X9139102Y-17525008D01*
X9139102Y-17525008D02*
X9158149Y-17534532D01*
X9158149Y-17534532D02*
X9167673Y-17553580D01*
X9167673Y-17553580D02*
X9167673Y-17658342D01*
X9167673Y-17553580D02*
X9177197Y-17534532D01*
X9177197Y-17534532D02*
X9196244Y-17525008D01*
X9196244Y-17525008D02*
X9224816Y-17525008D01*
X9224816Y-17525008D02*
X9243863Y-17534532D01*
X9243863Y-17534532D02*
X9253387Y-17553580D01*
X9253387Y-17553580D02*
X9253387Y-17658342D01*
X9643863Y-17448818D02*
X9472435Y-17705961D01*
X9901006Y-17458342D02*
X9920054Y-17458342D01*
X9920054Y-17458342D02*
X9939102Y-17467866D01*
X9939102Y-17467866D02*
X9948625Y-17477389D01*
X9948625Y-17477389D02*
X9958149Y-17496437D01*
X9958149Y-17496437D02*
X9967673Y-17534532D01*
X9967673Y-17534532D02*
X9967673Y-17582151D01*
X9967673Y-17582151D02*
X9958149Y-17620246D01*
X9958149Y-17620246D02*
X9948625Y-17639294D01*
X9948625Y-17639294D02*
X9939102Y-17648818D01*
X9939102Y-17648818D02*
X9920054Y-17658342D01*
X9920054Y-17658342D02*
X9901006Y-17658342D01*
X9901006Y-17658342D02*
X9881959Y-17648818D01*
X9881959Y-17648818D02*
X9872435Y-17639294D01*
X9872435Y-17639294D02*
X9862911Y-17620246D01*
X9862911Y-17620246D02*
X9853387Y-17582151D01*
X9853387Y-17582151D02*
X9853387Y-17534532D01*
X9853387Y-17534532D02*
X9862911Y-17496437D01*
X9862911Y-17496437D02*
X9872435Y-17477389D01*
X9872435Y-17477389D02*
X9881959Y-17467866D01*
X9881959Y-17467866D02*
X9901006Y-17458342D01*
X10053387Y-17639294D02*
X10062911Y-17648818D01*
X10062911Y-17648818D02*
X10053387Y-17658342D01*
X10053387Y-17658342D02*
X10043864Y-17648818D01*
X10043864Y-17648818D02*
X10053387Y-17639294D01*
X10053387Y-17639294D02*
X10053387Y-17658342D01*
X10186721Y-17458342D02*
X10205768Y-17458342D01*
X10205768Y-17458342D02*
X10224816Y-17467866D01*
X10224816Y-17467866D02*
X10234340Y-17477389D01*
X10234340Y-17477389D02*
X10243864Y-17496437D01*
X10243864Y-17496437D02*
X10253387Y-17534532D01*
X10253387Y-17534532D02*
X10253387Y-17582151D01*
X10253387Y-17582151D02*
X10243864Y-17620246D01*
X10243864Y-17620246D02*
X10234340Y-17639294D01*
X10234340Y-17639294D02*
X10224816Y-17648818D01*
X10224816Y-17648818D02*
X10205768Y-17658342D01*
X10205768Y-17658342D02*
X10186721Y-17658342D01*
X10186721Y-17658342D02*
X10167673Y-17648818D01*
X10167673Y-17648818D02*
X10158149Y-17639294D01*
X10158149Y-17639294D02*
X10148625Y-17620246D01*
X10148625Y-17620246D02*
X10139102Y-17582151D01*
X10139102Y-17582151D02*
X10139102Y-17534532D01*
X10139102Y-17534532D02*
X10148625Y-17496437D01*
X10148625Y-17496437D02*
X10158149Y-17477389D01*
X10158149Y-17477389D02*
X10167673Y-17467866D01*
X10167673Y-17467866D02*
X10186721Y-17458342D01*
X10424816Y-17525008D02*
X10424816Y-17658342D01*
X10377197Y-17448818D02*
X10329578Y-17591675D01*
X10329578Y-17591675D02*
X10453387Y-17591675D01*
X10510530Y-17458342D02*
X10643864Y-17458342D01*
X10643864Y-17458342D02*
X10558149Y-17658342D01*
X10710530Y-17477389D02*
X10720054Y-17467866D01*
X10720054Y-17467866D02*
X10739102Y-17458342D01*
X10739102Y-17458342D02*
X10786721Y-17458342D01*
X10786721Y-17458342D02*
X10805768Y-17467866D01*
X10805768Y-17467866D02*
X10815292Y-17477389D01*
X10815292Y-17477389D02*
X10824816Y-17496437D01*
X10824816Y-17496437D02*
X10824816Y-17515485D01*
X10824816Y-17515485D02*
X10815292Y-17544056D01*
X10815292Y-17544056D02*
X10701006Y-17658342D01*
X10701006Y-17658342D02*
X10824816Y-17658342D01*
X10901006Y-17458342D02*
X10901006Y-17496437D01*
X10977197Y-17458342D02*
X10977197Y-17496437D01*
X11272435Y-17734532D02*
X11262911Y-17725008D01*
X11262911Y-17725008D02*
X11243864Y-17696437D01*
X11243864Y-17696437D02*
X11234340Y-17677389D01*
X11234340Y-17677389D02*
X11224816Y-17648818D01*
X11224816Y-17648818D02*
X11215292Y-17601199D01*
X11215292Y-17601199D02*
X11215292Y-17563104D01*
X11215292Y-17563104D02*
X11224816Y-17515485D01*
X11224816Y-17515485D02*
X11234340Y-17486913D01*
X11234340Y-17486913D02*
X11243864Y-17467866D01*
X11243864Y-17467866D02*
X11262911Y-17439294D01*
X11262911Y-17439294D02*
X11272435Y-17429770D01*
X11434340Y-17458342D02*
X11396244Y-17458342D01*
X11396244Y-17458342D02*
X11377197Y-17467866D01*
X11377197Y-17467866D02*
X11367673Y-17477389D01*
X11367673Y-17477389D02*
X11348625Y-17505961D01*
X11348625Y-17505961D02*
X11339102Y-17544056D01*
X11339102Y-17544056D02*
X11339102Y-17620246D01*
X11339102Y-17620246D02*
X11348625Y-17639294D01*
X11348625Y-17639294D02*
X11358149Y-17648818D01*
X11358149Y-17648818D02*
X11377197Y-17658342D01*
X11377197Y-17658342D02*
X11415292Y-17658342D01*
X11415292Y-17658342D02*
X11434340Y-17648818D01*
X11434340Y-17648818D02*
X11443864Y-17639294D01*
X11443864Y-17639294D02*
X11453387Y-17620246D01*
X11453387Y-17620246D02*
X11453387Y-17572627D01*
X11453387Y-17572627D02*
X11443864Y-17553580D01*
X11443864Y-17553580D02*
X11434340Y-17544056D01*
X11434340Y-17544056D02*
X11415292Y-17534532D01*
X11415292Y-17534532D02*
X11377197Y-17534532D01*
X11377197Y-17534532D02*
X11358149Y-17544056D01*
X11358149Y-17544056D02*
X11348625Y-17553580D01*
X11348625Y-17553580D02*
X11339102Y-17572627D01*
X11691483Y-17658342D02*
X11691483Y-17458342D01*
X11777197Y-17658342D02*
X11777197Y-17553580D01*
X11777197Y-17553580D02*
X11767673Y-17534532D01*
X11767673Y-17534532D02*
X11748626Y-17525008D01*
X11748626Y-17525008D02*
X11720054Y-17525008D01*
X11720054Y-17525008D02*
X11701006Y-17534532D01*
X11701006Y-17534532D02*
X11691483Y-17544056D01*
X11901006Y-17658342D02*
X11881959Y-17648818D01*
X11881959Y-17648818D02*
X11872435Y-17639294D01*
X11872435Y-17639294D02*
X11862911Y-17620246D01*
X11862911Y-17620246D02*
X11862911Y-17563104D01*
X11862911Y-17563104D02*
X11872435Y-17544056D01*
X11872435Y-17544056D02*
X11881959Y-17534532D01*
X11881959Y-17534532D02*
X11901006Y-17525008D01*
X11901006Y-17525008D02*
X11929578Y-17525008D01*
X11929578Y-17525008D02*
X11948626Y-17534532D01*
X11948626Y-17534532D02*
X11958149Y-17544056D01*
X11958149Y-17544056D02*
X11967673Y-17563104D01*
X11967673Y-17563104D02*
X11967673Y-17620246D01*
X11967673Y-17620246D02*
X11958149Y-17639294D01*
X11958149Y-17639294D02*
X11948626Y-17648818D01*
X11948626Y-17648818D02*
X11929578Y-17658342D01*
X11929578Y-17658342D02*
X11901006Y-17658342D01*
X12081959Y-17658342D02*
X12062911Y-17648818D01*
X12062911Y-17648818D02*
X12053387Y-17629770D01*
X12053387Y-17629770D02*
X12053387Y-17458342D01*
X12234340Y-17648818D02*
X12215292Y-17658342D01*
X12215292Y-17658342D02*
X12177197Y-17658342D01*
X12177197Y-17658342D02*
X12158149Y-17648818D01*
X12158149Y-17648818D02*
X12148626Y-17629770D01*
X12148626Y-17629770D02*
X12148626Y-17553580D01*
X12148626Y-17553580D02*
X12158149Y-17534532D01*
X12158149Y-17534532D02*
X12177197Y-17525008D01*
X12177197Y-17525008D02*
X12215292Y-17525008D01*
X12215292Y-17525008D02*
X12234340Y-17534532D01*
X12234340Y-17534532D02*
X12243864Y-17553580D01*
X12243864Y-17553580D02*
X12243864Y-17572627D01*
X12243864Y-17572627D02*
X12148626Y-17591675D01*
X12320054Y-17648818D02*
X12339102Y-17658342D01*
X12339102Y-17658342D02*
X12377197Y-17658342D01*
X12377197Y-17658342D02*
X12396245Y-17648818D01*
X12396245Y-17648818D02*
X12405768Y-17629770D01*
X12405768Y-17629770D02*
X12405768Y-17620246D01*
X12405768Y-17620246D02*
X12396245Y-17601199D01*
X12396245Y-17601199D02*
X12377197Y-17591675D01*
X12377197Y-17591675D02*
X12348626Y-17591675D01*
X12348626Y-17591675D02*
X12329578Y-17582151D01*
X12329578Y-17582151D02*
X12320054Y-17563104D01*
X12320054Y-17563104D02*
X12320054Y-17553580D01*
X12320054Y-17553580D02*
X12329578Y-17534532D01*
X12329578Y-17534532D02*
X12348626Y-17525008D01*
X12348626Y-17525008D02*
X12377197Y-17525008D01*
X12377197Y-17525008D02*
X12396245Y-17534532D01*
X12472435Y-17734532D02*
X12481959Y-17725008D01*
X12481959Y-17725008D02*
X12501007Y-17696437D01*
X12501007Y-17696437D02*
X12510530Y-17677389D01*
X12510530Y-17677389D02*
X12520054Y-17648818D01*
X12520054Y-17648818D02*
X12529578Y-17601199D01*
X12529578Y-17601199D02*
X12529578Y-17563104D01*
X12529578Y-17563104D02*
X12520054Y-17515485D01*
X12520054Y-17515485D02*
X12510530Y-17486913D01*
X12510530Y-17486913D02*
X12501007Y-17467866D01*
X12501007Y-17467866D02*
X12481959Y-17439294D01*
X12481959Y-17439294D02*
X12472435Y-17429770D01*
D14*
X7567832Y-17766088D02*
X7697372Y-17895628D01*
X7697372Y-17766088D02*
X7567832Y-17895628D01*
X7678402Y-17876658D02*
X7678402Y-17785058D01*
X7586802Y-17785058D01*
X7586802Y-17876658D01*
X7678402Y-17876658D01*
D11*
X8062911Y-17922342D02*
X7948625Y-17922342D01*
X8005768Y-17922342D02*
X8005768Y-17722342D01*
X8005768Y-17722342D02*
X7986720Y-17750913D01*
X7986720Y-17750913D02*
X7967673Y-17769961D01*
X7967673Y-17769961D02*
X7948625Y-17779485D01*
X8148625Y-17903294D02*
X8158149Y-17912818D01*
X8158149Y-17912818D02*
X8148625Y-17922342D01*
X8148625Y-17922342D02*
X8139101Y-17912818D01*
X8139101Y-17912818D02*
X8148625Y-17903294D01*
X8148625Y-17903294D02*
X8148625Y-17922342D01*
X8234339Y-17741389D02*
X8243863Y-17731866D01*
X8243863Y-17731866D02*
X8262911Y-17722342D01*
X8262911Y-17722342D02*
X8310530Y-17722342D01*
X8310530Y-17722342D02*
X8329578Y-17731866D01*
X8329578Y-17731866D02*
X8339101Y-17741389D01*
X8339101Y-17741389D02*
X8348625Y-17760437D01*
X8348625Y-17760437D02*
X8348625Y-17779485D01*
X8348625Y-17779485D02*
X8339101Y-17808056D01*
X8339101Y-17808056D02*
X8224816Y-17922342D01*
X8224816Y-17922342D02*
X8348625Y-17922342D01*
X8443863Y-17922342D02*
X8481959Y-17922342D01*
X8481959Y-17922342D02*
X8501006Y-17912818D01*
X8501006Y-17912818D02*
X8510530Y-17903294D01*
X8510530Y-17903294D02*
X8529578Y-17874723D01*
X8529578Y-17874723D02*
X8539101Y-17836627D01*
X8539101Y-17836627D02*
X8539101Y-17760437D01*
X8539101Y-17760437D02*
X8529578Y-17741389D01*
X8529578Y-17741389D02*
X8520054Y-17731866D01*
X8520054Y-17731866D02*
X8501006Y-17722342D01*
X8501006Y-17722342D02*
X8462911Y-17722342D01*
X8462911Y-17722342D02*
X8443863Y-17731866D01*
X8443863Y-17731866D02*
X8434340Y-17741389D01*
X8434340Y-17741389D02*
X8424816Y-17760437D01*
X8424816Y-17760437D02*
X8424816Y-17808056D01*
X8424816Y-17808056D02*
X8434340Y-17827104D01*
X8434340Y-17827104D02*
X8443863Y-17836627D01*
X8443863Y-17836627D02*
X8462911Y-17846151D01*
X8462911Y-17846151D02*
X8501006Y-17846151D01*
X8501006Y-17846151D02*
X8520054Y-17836627D01*
X8520054Y-17836627D02*
X8529578Y-17827104D01*
X8529578Y-17827104D02*
X8539101Y-17808056D01*
X8720054Y-17722342D02*
X8624816Y-17722342D01*
X8624816Y-17722342D02*
X8615292Y-17817580D01*
X8615292Y-17817580D02*
X8624816Y-17808056D01*
X8624816Y-17808056D02*
X8643863Y-17798532D01*
X8643863Y-17798532D02*
X8691482Y-17798532D01*
X8691482Y-17798532D02*
X8710530Y-17808056D01*
X8710530Y-17808056D02*
X8720054Y-17817580D01*
X8720054Y-17817580D02*
X8729578Y-17836627D01*
X8729578Y-17836627D02*
X8729578Y-17884246D01*
X8729578Y-17884246D02*
X8720054Y-17903294D01*
X8720054Y-17903294D02*
X8710530Y-17912818D01*
X8710530Y-17912818D02*
X8691482Y-17922342D01*
X8691482Y-17922342D02*
X8643863Y-17922342D01*
X8643863Y-17922342D02*
X8624816Y-17912818D01*
X8624816Y-17912818D02*
X8615292Y-17903294D01*
X8815292Y-17922342D02*
X8815292Y-17789008D01*
X8815292Y-17808056D02*
X8824816Y-17798532D01*
X8824816Y-17798532D02*
X8843863Y-17789008D01*
X8843863Y-17789008D02*
X8872435Y-17789008D01*
X8872435Y-17789008D02*
X8891482Y-17798532D01*
X8891482Y-17798532D02*
X8901006Y-17817580D01*
X8901006Y-17817580D02*
X8901006Y-17922342D01*
X8901006Y-17817580D02*
X8910530Y-17798532D01*
X8910530Y-17798532D02*
X8929578Y-17789008D01*
X8929578Y-17789008D02*
X8958149Y-17789008D01*
X8958149Y-17789008D02*
X8977197Y-17798532D01*
X8977197Y-17798532D02*
X8986721Y-17817580D01*
X8986721Y-17817580D02*
X8986721Y-17922342D01*
X9081959Y-17922342D02*
X9081959Y-17789008D01*
X9081959Y-17808056D02*
X9091482Y-17798532D01*
X9091482Y-17798532D02*
X9110530Y-17789008D01*
X9110530Y-17789008D02*
X9139102Y-17789008D01*
X9139102Y-17789008D02*
X9158149Y-17798532D01*
X9158149Y-17798532D02*
X9167673Y-17817580D01*
X9167673Y-17817580D02*
X9167673Y-17922342D01*
X9167673Y-17817580D02*
X9177197Y-17798532D01*
X9177197Y-17798532D02*
X9196244Y-17789008D01*
X9196244Y-17789008D02*
X9224816Y-17789008D01*
X9224816Y-17789008D02*
X9243863Y-17798532D01*
X9243863Y-17798532D02*
X9253387Y-17817580D01*
X9253387Y-17817580D02*
X9253387Y-17922342D01*
X9643863Y-17712818D02*
X9472435Y-17969961D01*
X9901006Y-17722342D02*
X9920054Y-17722342D01*
X9920054Y-17722342D02*
X9939102Y-17731866D01*
X9939102Y-17731866D02*
X9948625Y-17741389D01*
X9948625Y-17741389D02*
X9958149Y-17760437D01*
X9958149Y-17760437D02*
X9967673Y-17798532D01*
X9967673Y-17798532D02*
X9967673Y-17846151D01*
X9967673Y-17846151D02*
X9958149Y-17884246D01*
X9958149Y-17884246D02*
X9948625Y-17903294D01*
X9948625Y-17903294D02*
X9939102Y-17912818D01*
X9939102Y-17912818D02*
X9920054Y-17922342D01*
X9920054Y-17922342D02*
X9901006Y-17922342D01*
X9901006Y-17922342D02*
X9881959Y-17912818D01*
X9881959Y-17912818D02*
X9872435Y-17903294D01*
X9872435Y-17903294D02*
X9862911Y-17884246D01*
X9862911Y-17884246D02*
X9853387Y-17846151D01*
X9853387Y-17846151D02*
X9853387Y-17798532D01*
X9853387Y-17798532D02*
X9862911Y-17760437D01*
X9862911Y-17760437D02*
X9872435Y-17741389D01*
X9872435Y-17741389D02*
X9881959Y-17731866D01*
X9881959Y-17731866D02*
X9901006Y-17722342D01*
X10053387Y-17903294D02*
X10062911Y-17912818D01*
X10062911Y-17912818D02*
X10053387Y-17922342D01*
X10053387Y-17922342D02*
X10043864Y-17912818D01*
X10043864Y-17912818D02*
X10053387Y-17903294D01*
X10053387Y-17903294D02*
X10053387Y-17922342D01*
X10186721Y-17722342D02*
X10205768Y-17722342D01*
X10205768Y-17722342D02*
X10224816Y-17731866D01*
X10224816Y-17731866D02*
X10234340Y-17741389D01*
X10234340Y-17741389D02*
X10243864Y-17760437D01*
X10243864Y-17760437D02*
X10253387Y-17798532D01*
X10253387Y-17798532D02*
X10253387Y-17846151D01*
X10253387Y-17846151D02*
X10243864Y-17884246D01*
X10243864Y-17884246D02*
X10234340Y-17903294D01*
X10234340Y-17903294D02*
X10224816Y-17912818D01*
X10224816Y-17912818D02*
X10205768Y-17922342D01*
X10205768Y-17922342D02*
X10186721Y-17922342D01*
X10186721Y-17922342D02*
X10167673Y-17912818D01*
X10167673Y-17912818D02*
X10158149Y-17903294D01*
X10158149Y-17903294D02*
X10148625Y-17884246D01*
X10148625Y-17884246D02*
X10139102Y-17846151D01*
X10139102Y-17846151D02*
X10139102Y-17798532D01*
X10139102Y-17798532D02*
X10148625Y-17760437D01*
X10148625Y-17760437D02*
X10158149Y-17741389D01*
X10158149Y-17741389D02*
X10167673Y-17731866D01*
X10167673Y-17731866D02*
X10186721Y-17722342D01*
X10434340Y-17722342D02*
X10339102Y-17722342D01*
X10339102Y-17722342D02*
X10329578Y-17817580D01*
X10329578Y-17817580D02*
X10339102Y-17808056D01*
X10339102Y-17808056D02*
X10358149Y-17798532D01*
X10358149Y-17798532D02*
X10405768Y-17798532D01*
X10405768Y-17798532D02*
X10424816Y-17808056D01*
X10424816Y-17808056D02*
X10434340Y-17817580D01*
X10434340Y-17817580D02*
X10443864Y-17836627D01*
X10443864Y-17836627D02*
X10443864Y-17884246D01*
X10443864Y-17884246D02*
X10434340Y-17903294D01*
X10434340Y-17903294D02*
X10424816Y-17912818D01*
X10424816Y-17912818D02*
X10405768Y-17922342D01*
X10405768Y-17922342D02*
X10358149Y-17922342D01*
X10358149Y-17922342D02*
X10339102Y-17912818D01*
X10339102Y-17912818D02*
X10329578Y-17903294D01*
X10634340Y-17922342D02*
X10520054Y-17922342D01*
X10577197Y-17922342D02*
X10577197Y-17722342D01*
X10577197Y-17722342D02*
X10558149Y-17750913D01*
X10558149Y-17750913D02*
X10539102Y-17769961D01*
X10539102Y-17769961D02*
X10520054Y-17779485D01*
X10758149Y-17722342D02*
X10777197Y-17722342D01*
X10777197Y-17722342D02*
X10796245Y-17731866D01*
X10796245Y-17731866D02*
X10805768Y-17741389D01*
X10805768Y-17741389D02*
X10815292Y-17760437D01*
X10815292Y-17760437D02*
X10824816Y-17798532D01*
X10824816Y-17798532D02*
X10824816Y-17846151D01*
X10824816Y-17846151D02*
X10815292Y-17884246D01*
X10815292Y-17884246D02*
X10805768Y-17903294D01*
X10805768Y-17903294D02*
X10796245Y-17912818D01*
X10796245Y-17912818D02*
X10777197Y-17922342D01*
X10777197Y-17922342D02*
X10758149Y-17922342D01*
X10758149Y-17922342D02*
X10739102Y-17912818D01*
X10739102Y-17912818D02*
X10729578Y-17903294D01*
X10729578Y-17903294D02*
X10720054Y-17884246D01*
X10720054Y-17884246D02*
X10710530Y-17846151D01*
X10710530Y-17846151D02*
X10710530Y-17798532D01*
X10710530Y-17798532D02*
X10720054Y-17760437D01*
X10720054Y-17760437D02*
X10729578Y-17741389D01*
X10729578Y-17741389D02*
X10739102Y-17731866D01*
X10739102Y-17731866D02*
X10758149Y-17722342D01*
X10901006Y-17722342D02*
X10901006Y-17760437D01*
X10977197Y-17722342D02*
X10977197Y-17760437D01*
X11272435Y-17998532D02*
X11262911Y-17989008D01*
X11262911Y-17989008D02*
X11243864Y-17960437D01*
X11243864Y-17960437D02*
X11234340Y-17941389D01*
X11234340Y-17941389D02*
X11224816Y-17912818D01*
X11224816Y-17912818D02*
X11215292Y-17865199D01*
X11215292Y-17865199D02*
X11215292Y-17827104D01*
X11215292Y-17827104D02*
X11224816Y-17779485D01*
X11224816Y-17779485D02*
X11234340Y-17750913D01*
X11234340Y-17750913D02*
X11243864Y-17731866D01*
X11243864Y-17731866D02*
X11262911Y-17703294D01*
X11262911Y-17703294D02*
X11272435Y-17693770D01*
X11339102Y-17741389D02*
X11348625Y-17731866D01*
X11348625Y-17731866D02*
X11367673Y-17722342D01*
X11367673Y-17722342D02*
X11415292Y-17722342D01*
X11415292Y-17722342D02*
X11434340Y-17731866D01*
X11434340Y-17731866D02*
X11443864Y-17741389D01*
X11443864Y-17741389D02*
X11453387Y-17760437D01*
X11453387Y-17760437D02*
X11453387Y-17779485D01*
X11453387Y-17779485D02*
X11443864Y-17808056D01*
X11443864Y-17808056D02*
X11329578Y-17922342D01*
X11329578Y-17922342D02*
X11453387Y-17922342D01*
X11691483Y-17922342D02*
X11691483Y-17722342D01*
X11777197Y-17922342D02*
X11777197Y-17817580D01*
X11777197Y-17817580D02*
X11767673Y-17798532D01*
X11767673Y-17798532D02*
X11748626Y-17789008D01*
X11748626Y-17789008D02*
X11720054Y-17789008D01*
X11720054Y-17789008D02*
X11701006Y-17798532D01*
X11701006Y-17798532D02*
X11691483Y-17808056D01*
X11901006Y-17922342D02*
X11881959Y-17912818D01*
X11881959Y-17912818D02*
X11872435Y-17903294D01*
X11872435Y-17903294D02*
X11862911Y-17884246D01*
X11862911Y-17884246D02*
X11862911Y-17827104D01*
X11862911Y-17827104D02*
X11872435Y-17808056D01*
X11872435Y-17808056D02*
X11881959Y-17798532D01*
X11881959Y-17798532D02*
X11901006Y-17789008D01*
X11901006Y-17789008D02*
X11929578Y-17789008D01*
X11929578Y-17789008D02*
X11948626Y-17798532D01*
X11948626Y-17798532D02*
X11958149Y-17808056D01*
X11958149Y-17808056D02*
X11967673Y-17827104D01*
X11967673Y-17827104D02*
X11967673Y-17884246D01*
X11967673Y-17884246D02*
X11958149Y-17903294D01*
X11958149Y-17903294D02*
X11948626Y-17912818D01*
X11948626Y-17912818D02*
X11929578Y-17922342D01*
X11929578Y-17922342D02*
X11901006Y-17922342D01*
X12081959Y-17922342D02*
X12062911Y-17912818D01*
X12062911Y-17912818D02*
X12053387Y-17893770D01*
X12053387Y-17893770D02*
X12053387Y-17722342D01*
X12234340Y-17912818D02*
X12215292Y-17922342D01*
X12215292Y-17922342D02*
X12177197Y-17922342D01*
X12177197Y-17922342D02*
X12158149Y-17912818D01*
X12158149Y-17912818D02*
X12148626Y-17893770D01*
X12148626Y-17893770D02*
X12148626Y-17817580D01*
X12148626Y-17817580D02*
X12158149Y-17798532D01*
X12158149Y-17798532D02*
X12177197Y-17789008D01*
X12177197Y-17789008D02*
X12215292Y-17789008D01*
X12215292Y-17789008D02*
X12234340Y-17798532D01*
X12234340Y-17798532D02*
X12243864Y-17817580D01*
X12243864Y-17817580D02*
X12243864Y-17836627D01*
X12243864Y-17836627D02*
X12148626Y-17855675D01*
X12320054Y-17912818D02*
X12339102Y-17922342D01*
X12339102Y-17922342D02*
X12377197Y-17922342D01*
X12377197Y-17922342D02*
X12396245Y-17912818D01*
X12396245Y-17912818D02*
X12405768Y-17893770D01*
X12405768Y-17893770D02*
X12405768Y-17884246D01*
X12405768Y-17884246D02*
X12396245Y-17865199D01*
X12396245Y-17865199D02*
X12377197Y-17855675D01*
X12377197Y-17855675D02*
X12348626Y-17855675D01*
X12348626Y-17855675D02*
X12329578Y-17846151D01*
X12329578Y-17846151D02*
X12320054Y-17827104D01*
X12320054Y-17827104D02*
X12320054Y-17817580D01*
X12320054Y-17817580D02*
X12329578Y-17798532D01*
X12329578Y-17798532D02*
X12348626Y-17789008D01*
X12348626Y-17789008D02*
X12377197Y-17789008D01*
X12377197Y-17789008D02*
X12396245Y-17798532D01*
X12472435Y-17998532D02*
X12481959Y-17989008D01*
X12481959Y-17989008D02*
X12501007Y-17960437D01*
X12501007Y-17960437D02*
X12510530Y-17941389D01*
X12510530Y-17941389D02*
X12520054Y-17912818D01*
X12520054Y-17912818D02*
X12529578Y-17865199D01*
X12529578Y-17865199D02*
X12529578Y-17827104D01*
X12529578Y-17827104D02*
X12520054Y-17779485D01*
X12520054Y-17779485D02*
X12510530Y-17750913D01*
X12510530Y-17750913D02*
X12501007Y-17731866D01*
X12501007Y-17731866D02*
X12481959Y-17703294D01*
X12481959Y-17703294D02*
X12472435Y-17693770D01*
M02*
