ISO-10303-21;
HEADER;
FILE_DESCRIPTION (( 'STEP AP214' ),
    '1' );
FILE_NAME ('button-cap.STEP',
    '2026-10-09T02:14:04',
    ( '' ),
    ( '' ),
    'SwSTEP 2.0',
    'SolidWorks 2023',
    '' );
FILE_SCHEMA (( 'AUTOMOTIVE_DESIGN' ));
ENDSEC;

DATA;
#1 = DIRECTION ( 'NONE',  ( 0.000000000000000000, 0.000000000000000000, 1.000000000000000000 ) ) ;
#2 = AXIS2_PLACEMENT_3D ( 'NONE', #71, #93, #185 ) ;
#3 = CARTESIAN_POINT ( 'NONE',  ( 0.000000000000000000, -5.599999999999999645, -115.0841871195875399 ) ) ;
#4 = EDGE_CURVE ( 'NONE', #35, #229, #63, .T. ) ;
#5 = DIRECTION ( 'NONE',  ( 1.000000000000000000, 0.000000000000000000, 0.000000000000000000 ) ) ;
#6 = PLANE ( 'NONE',  #218 ) ;
#7 = DIRECTION ( 'NONE',  ( 0.000000000000000000, 0.000000000000000000, 1.000000000000000000 ) ) ;
#8 = ADVANCED_FACE ( 'NONE', ( #11 ), #202, .F. ) ;
#9 = CARTESIAN_POINT ( 'NONE',  ( 0.000000000000000000, -5.599999999999999645, -86.79991587212563786 ) ) ;
#10 = MANIFOLD_SOLID_BREP ( 'Cut-Extrude1', #27 ) ;
#11 = FACE_OUTER_BOUND ( 'NONE', #110, .T. ) ;
#12 = ORIENTED_EDGE ( 'NONE', *, *, #88, .F. ) ;
#13 = EDGE_CURVE ( 'NONE', #247, #111, #228, .T. ) ;
#14 = EDGE_LOOP ( 'NONE', ( #264, #154, #175, #253 ) ) ;
#15 = ORIENTED_EDGE ( 'NONE', *, *, #64, .F. ) ;
#16 = PLANE ( 'NONE',  #249 ) ;
#17 = EDGE_CURVE ( 'NONE', #298, #214, #92, .T. ) ;
#18 = VERTEX_POINT ( 'NONE', #106 ) ;
#19 = DIRECTION ( 'NONE',  ( 0.000000000000000000, 0.000000000000000000, 1.000000000000000000 ) ) ;
#20 = DIRECTION ( 'NONE',  ( 1.000000000000000000, 0.000000000000000000, 0.000000000000000000 ) ) ;
#21 = AXIS2_PLACEMENT_3D ( 'NONE', #189, #262, #288 ) ;
#22 = ORIENTED_EDGE ( 'NONE', *, *, #188, .T. ) ;
#23 = VERTEX_POINT ( 'NONE', #300 ) ;
#24 = DIRECTION ( 'NONE',  ( 1.000000000000000000, 0.000000000000000000, 0.000000000000000000 ) ) ;
#25 = PRODUCT_DEFINITION_FORMATION_WITH_SPECIFIED_SOURCE ( 'ANY', '', #152, .NOT_KNOWN. ) ;
#26 = PRODUCT_DEFINITION ( 'UNKNOWN', '', #25, #56 ) ;
#27 = CLOSED_SHELL ( 'NONE', ( #83, #182, #257, #297, #303, #51, #8, #177, #40, #150, #197 ) ) ;
#28 = AXIS2_PLACEMENT_3D ( 'NONE', #215, #165, #306 ) ;
#29 = DIRECTION ( 'NONE',  ( 0.000000000000000000, 0.000000000000000000, 1.000000000000000000 ) ) ;
#30 = ORIENTED_EDGE ( 'NONE', *, *, #293, .T. ) ;
#31 = DIRECTION ( 'NONE',  ( 1.000000000000000000, 0.000000000000000000, -0.000000000000000000 ) ) ;
#32 = CARTESIAN_POINT ( 'NONE',  ( 9.000000000000001776, -5.599999999999999645, -80.79991587212563786 ) ) ;
#33 = CIRCLE ( 'NONE', #260, 10.00000000000000000 ) ;
#34 = STYLED_ITEM ( 'NONE', ( #61 ), #10 ) ;
#35 = VERTEX_POINT ( 'NONE', #210 ) ;
#36 = FILL_AREA_STYLE ('',( #280 ) ) ;
#37 = TOROIDAL_SURFACE ( 'NONE', #77, 9.000000000000001776, 1.000000000000000000 ) ;
#38 = ORIENTED_EDGE ( 'NONE', *, *, #4, .T. ) ;
#39 = ORIENTED_EDGE ( 'NONE', *, *, #70, .T. ) ;
#40 = ADVANCED_FACE ( 'NONE', ( #66 ), #289, .T. ) ;
#41 = APPLICATION_CONTEXT ( 'automotive_design' ) ;
#42 = ORIENTED_EDGE ( 'NONE', *, *, #105, .T. ) ;
#43 = CIRCLE ( 'NONE', #47, 1.350000000000000089 ) ;
#44 = DIRECTION ( 'NONE',  ( 1.000000000000000000, 0.000000000000000000, 0.000000000000000000 ) ) ;
#45 = DIRECTION ( 'NONE',  ( 0.000000000000000000, 0.000000000000000000, 1.000000000000000000 ) ) ;
#46 = DIRECTION ( 'NONE',  ( -0.000000000000000000, -0.000000000000000000, 1.000000000000000000 ) ) ;
#47 = AXIS2_PLACEMENT_3D ( 'NONE', #74, #195, #223 ) ;
#48 = VECTOR ( 'NONE', #224, 1000.000000000000000 ) ;
#49 = CARTESIAN_POINT ( 'NONE',  ( 0.000000000000000000, -5.599999999999999645, -85.59991587212563502 ) ) ;
#50 = CARTESIAN_POINT ( 'NONE',  ( -9.000000000000001776, -5.599999999999998757, -86.79991587212563786 ) ) ;
#51 = ADVANCED_FACE ( 'NONE', ( #309, #91 ), #16, .T. ) ;
#52 = ORIENTED_EDGE ( 'NONE', *, *, #13, .T. ) ;
#53 = AXIS2_PLACEMENT_3D ( 'NONE', #130, #107, #60 ) ;
#54 = DIRECTION ( 'NONE',  ( 0.000000000000000000, 0.000000000000000000, 1.000000000000000000 ) ) ;
#55 = CYLINDRICAL_SURFACE ( 'NONE', #294, 10.00000000000000000 ) ;
#56 = PRODUCT_DEFINITION_CONTEXT ( 'detailed design', #265, 'design' ) ;
#57 = EDGE_CURVE ( 'NONE', #18, #276, #151, .T. ) ;
#58 = DIRECTION ( 'NONE',  ( 0.000000000000000000, 0.000000000000000000, 1.000000000000000000 ) ) ;
#59 = ORIENTED_EDGE ( 'NONE', *, *, #17, .F. ) ;
#60 = DIRECTION ( 'NONE',  ( 1.000000000000000000, 0.000000000000000000, -0.000000000000000000 ) ) ;
#61 = PRESENTATION_STYLE_ASSIGNMENT (( #155 ) ) ;
#62 = AXIS2_PLACEMENT_3D ( 'NONE', #243, #144, #220 ) ;
#63 = LINE ( 'NONE', #128, #48 ) ;
#64 = EDGE_CURVE ( 'NONE', #214, #23, #275, .T. ) ;
#65 = ORIENTED_EDGE ( 'NONE', *, *, #70, .F. ) ;
#66 = FACE_OUTER_BOUND ( 'NONE', #135, .T. ) ;
#67 = DIRECTION ( 'NONE',  ( 1.000000000000000000, 0.000000000000000000, 0.000000000000000000 ) ) ;
#68 = CIRCLE ( 'NONE', #299, 1.350000000000000089 ) ;
#69 = FACE_OUTER_BOUND ( 'NONE', #109, .T. ) ;
#70 = EDGE_CURVE ( 'NONE', #118, #250, #238, .T. ) ;
#71 = CARTESIAN_POINT ( 'NONE',  ( 0.000000000000000000, -5.599999999999999645, -81.79991587212563786 ) ) ;
#72 = CARTESIAN_POINT ( 'NONE',  ( 0.000000000000000000, -5.599999999999999645, -81.79991587212563786 ) ) ;
#73 = VECTOR ( 'NONE', #180, 1000.000000000000000 ) ;
#74 = CARTESIAN_POINT ( 'NONE',  ( 0.000000000000000000, -5.599999999999999645, -80.79991587212563786 ) ) ;
#75 = DIRECTION ( 'NONE',  ( 0.000000000000000000, 0.000000000000000000, 1.000000000000000000 ) ) ;
#76 = DIRECTION ( 'NONE',  ( 1.000000000000000000, 0.000000000000000000, 0.000000000000000000 ) ) ;
#77 = AXIS2_PLACEMENT_3D ( 'NONE', #124, #29, #190 ) ;
#78 =( NAMED_UNIT ( * ) PLANE_ANGLE_UNIT ( ) SI_UNIT ( $, .RADIAN. ) );
#79 = DIRECTION ( 'NONE',  ( 1.000000000000000000, 0.000000000000000000, 0.000000000000000000 ) ) ;
#80 = TOROIDAL_SURFACE ( 'NONE', #200, 9.000000000000001776, 1.000000000000000000 ) ;
#81 = ORIENTED_EDGE ( 'NONE', *, *, #157, .F. ) ;
#82 = CIRCLE ( 'NONE', #108, 10.00000000000000000 ) ;
#83 = ADVANCED_FACE ( 'NONE', ( #69 ), #283, .F. ) ;
#84 = CARTESIAN_POINT ( 'NONE',  ( 0.000000000000000000, 0.000000000000000000, 0.000000000000000000 ) ) ;
#85 = ORIENTED_EDGE ( 'NONE', *, *, #188, .F. ) ;
#86 = APPLICATION_PROTOCOL_DEFINITION ( 'draft international standard', 'automotive_design', 1998, #41 ) ;
#87 = ORIENTED_EDGE ( 'NONE', *, *, #57, .F. ) ;
#88 = EDGE_CURVE ( 'NONE', #18, #118, #160, .T. ) ;
#89 = ORIENTED_EDGE ( 'NONE', *, *, #125, .T. ) ;
#90 = CARTESIAN_POINT ( 'NONE',  ( -1.350000000000000089, -5.599999999999999645, -80.79991587212563786 ) ) ;
#91 = FACE_OUTER_BOUND ( 'NONE', #113, .T. ) ;
#92 = CIRCLE ( 'NONE', #266, 9.000000000000001776 ) ;
#93 = DIRECTION ( 'NONE',  ( -0.000000000000000000, -0.000000000000000000, -1.000000000000000000 ) ) ;
#94 = DIRECTION ( 'NONE',  ( 0.000000000000000000, 0.000000000000000000, 1.000000000000000000 ) ) ;
#95 = ORIENTED_EDGE ( 'NONE', *, *, #148, .F. ) ;
#96 = DIRECTION ( 'NONE',  ( -1.000000000000000000, 0.000000000000000000, 0.000000000000000000 ) ) ;
#97 = AXIS2_PLACEMENT_3D ( 'NONE', #115, #119, #112 ) ;
#98 = ORIENTED_EDGE ( 'NONE', *, *, #64, .T. ) ;
#99 = FACE_OUTER_BOUND ( 'NONE', #252, .T. ) ;
#100 = CARTESIAN_POINT ( 'NONE',  ( -9.000000000000001776, -5.599999999999998757, -80.79991587212563786 ) ) ;
#101 = EDGE_CURVE ( 'NONE', #111, #229, #68, .T. ) ;
#102 = UNCERTAINTY_MEASURE_WITH_UNIT (LENGTH_MEASURE( 1.000000000000000082E-05 ), #251, 'distance_accuracy_value', 'NONE');
#103 = CARTESIAN_POINT ( 'NONE',  ( 0.000000000000000000, -5.599999999999999645, -115.0841871195875399 ) ) ;
#104 = DIRECTION ( 'NONE',  ( -0.000000000000000000, -0.000000000000000000, -1.000000000000000000 ) ) ;
#105 = EDGE_CURVE ( 'NONE', #156, #23, #82, .T. ) ;
#106 = CARTESIAN_POINT ( 'NONE',  ( 10.00000000000000000, -5.599999999999999645, -81.79991587212563786 ) ) ;
#107 = DIRECTION ( 'NONE',  ( 0.000000000000000000, 0.000000000000000000, 1.000000000000000000 ) ) ;
#108 = AXIS2_PLACEMENT_3D ( 'NONE', #161, #45, #186 ) ;
#109 = EDGE_LOOP ( 'NONE', ( #302, #52, #304, #178 ) ) ;
#110 = EDGE_LOOP ( 'NONE', ( #227, #240 ) ) ;
#111 = VERTEX_POINT ( 'NONE', #90 ) ;
#112 = DIRECTION ( 'NONE',  ( 0.000000000000000000, 0.000000000000000000, -1.000000000000000000 ) ) ;
#113 = EDGE_LOOP ( 'NONE', ( #207, #30 ) ) ;
#114 = CARTESIAN_POINT ( 'NONE',  ( -9.000000000000001776, -5.599999999999998757, -81.79991587212563786 ) ) ;
#115 = CARTESIAN_POINT ( 'NONE',  ( 9.000000000000001776, -5.599999999999999645, -81.79991587212563786 ) ) ;
#116 = CIRCLE ( 'NONE', #164, 9.000000000000001776 ) ;
#117 = DIRECTION ( 'NONE',  ( -0.000000000000000000, -0.000000000000000000, -1.000000000000000000 ) ) ;
#118 = VERTEX_POINT ( 'NONE', #140 ) ;
#119 = DIRECTION ( 'NONE',  ( 0.000000000000000000, -1.000000000000000000, 0.000000000000000000 ) ) ;
#120 = CARTESIAN_POINT ( 'NONE',  ( 0.000000000000000000, -5.599999999999999645, -80.79991587212563786 ) ) ;
#121 = AXIS2_PLACEMENT_3D ( 'NONE', #120, #7, #241 ) ;
#122 = CARTESIAN_POINT ( 'NONE',  ( 0.000000000000000000, -5.599999999999999645, -85.79991587212563786 ) ) ;
#123 = VECTOR ( 'NONE', #94, 1000.000000000000000 ) ;
#124 = CARTESIAN_POINT ( 'NONE',  ( 0.000000000000000000, -5.599999999999999645, -85.79991587212563786 ) ) ;
#125 = EDGE_CURVE ( 'NONE', #23, #18, #158, .T. ) ;
#126 = CYLINDRICAL_SURFACE ( 'NONE', #142, 10.00000000000000000 ) ;
#127 = EDGE_CURVE ( 'NONE', #23, #156, #33, .T. ) ;
#128 = CARTESIAN_POINT ( 'NONE',  ( 1.350000000000000089, -5.599999999999999645, -89.41829249053299122 ) ) ;
#129 = CARTESIAN_POINT ( 'NONE',  ( -1.350000000000000089, -5.599999999999999645, -89.41829249053299122 ) ) ;
#130 = CARTESIAN_POINT ( 'NONE',  ( 0.000000000000000000, 0.000000000000000000, -86.79991587212563786 ) ) ;
#131 = EDGE_LOOP ( 'NONE', ( #281, #39, #81, #87 ) ) ;
#132 = EDGE_LOOP ( 'NONE', ( #85, #305 ) ) ;
#133 =( NAMED_UNIT ( * ) SI_UNIT ( $, .STERADIAN. ) SOLID_ANGLE_UNIT ( ) );
#134 = CIRCLE ( 'NONE', #169, 1.000000000000000888 ) ;
#135 = EDGE_LOOP ( 'NONE', ( #65, #12, #181, #216 ) ) ;
#136 = AXIS2_PLACEMENT_3D ( 'NONE', #84, #58, #245 ) ;
#137 = MECHANICAL_DESIGN_GEOMETRIC_PRESENTATION_REPRESENTATION (  '', ( #34 ), #184 ) ;
#138 = CARTESIAN_POINT ( 'NONE',  ( 0.000000000000000000, -5.599999999999999645, -80.79991587212563786 ) ) ;
#139 = EDGE_CURVE ( 'NONE', #118, #18, #273, .T. ) ;
#140 = CARTESIAN_POINT ( 'NONE',  ( -10.00000000000000000, -5.599999999999998757, -81.79991587212563786 ) ) ;
#141 = DIRECTION ( 'NONE',  ( 1.224646799147353207E-16, 1.000000000000000000, -0.000000000000000000 ) ) ;
#142 = AXIS2_PLACEMENT_3D ( 'NONE', #3, #75, #5 ) ;
#143 = DIRECTION ( 'NONE',  ( 1.000000000000000000, 0.000000000000000000, 0.000000000000000000 ) ) ;
#144 = DIRECTION ( 'NONE',  ( -0.000000000000000000, -0.000000000000000000, -1.000000000000000000 ) ) ;
#145 = LINE ( 'NONE', #291, #225 ) ;
#146 = ORIENTED_EDGE ( 'NONE', *, *, #148, .T. ) ;
#147 = CARTESIAN_POINT ( 'NONE',  ( 0.000000000000000000, 0.000000000000000000, -85.59991587212563502 ) ) ;
#148 = EDGE_CURVE ( 'NONE', #298, #156, #134, .T. ) ;
#149 = CARTESIAN_POINT ( 'NONE',  ( 0.000000000000000000, -5.599999999999999645, -86.79991587212563786 ) ) ;
#150 = ADVANCED_FACE ( 'NONE', ( #258 ), #213, .F. ) ;
#151 = CIRCLE ( 'NONE', #97, 1.000000000000000888 ) ;
#152 = PRODUCT ( 'button-cap', 'button-cap', '', ( #198 ) ) ;
#153 = ORIENTED_EDGE ( 'NONE', *, *, #13, .F. ) ;
#154 = ORIENTED_EDGE ( 'NONE', *, *, #274, .T. ) ;
#155 = SURFACE_STYLE_USAGE ( .BOTH. , #203 ) ;
#156 = VERTEX_POINT ( 'NONE', #235 ) ;
#157 = EDGE_CURVE ( 'NONE', #276, #250, #248, .T. ) ;
#158 = LINE ( 'NONE', #232, #123 ) ;
#159 = AXIS2_PLACEMENT_3D ( 'NONE', #259, #46, #143 ) ;
#160 = CIRCLE ( 'NONE', #255, 10.00000000000000000 ) ;
#161 = CARTESIAN_POINT ( 'NONE',  ( 0.000000000000000000, -5.599999999999999645, -85.79991587212563786 ) ) ;
#162 = DIRECTION ( 'NONE',  ( 1.224646799147353207E-16, 1.000000000000000000, -0.000000000000000000 ) ) ;
#163 = DIRECTION ( 'NONE',  ( 0.000000000000000000, 0.000000000000000000, 1.000000000000000000 ) ) ;
#164 = AXIS2_PLACEMENT_3D ( 'NONE', #149, #217, #76 ) ;
#165 = DIRECTION ( 'NONE',  ( 0.000000000000000000, -1.000000000000000000, 0.000000000000000000 ) ) ;
#166 = DIRECTION ( 'NONE',  ( 1.000000000000000000, 0.000000000000000000, 0.000000000000000000 ) ) ;
#167 = FACE_OUTER_BOUND ( 'NONE', #179, .T. ) ;
#168 = EDGE_CURVE ( 'NONE', #247, #35, #272, .T. ) ;
#169 = AXIS2_PLACEMENT_3D ( 'NONE', #285, #162, #96 ) ;
#170 = CARTESIAN_POINT ( 'NONE',  ( 9.000000000000001776, -5.599999999999999645, -86.79991587212563786 ) ) ;
#171 = AXIS2_PLACEMENT_3D ( 'NONE', #254, #19, #209 ) ;
#172 = DIRECTION ( 'NONE',  ( 1.000000000000000000, 0.000000000000000000, 0.000000000000000000 ) ) ;
#173 = AXIS2_PLACEMENT_3D ( 'NONE', #193, #263, #172 ) ;
#174 = ORIENTED_EDGE ( 'NONE', *, *, #261, .F. ) ;
#175 = ORIENTED_EDGE ( 'NONE', *, *, #139, .T. ) ;
#176 = APPLICATION_PROTOCOL_DEFINITION ( 'draft international standard', 'automotive_design', 1998, #265 ) ;
#177 = ADVANCED_FACE ( 'NONE', ( #167 ), #37, .T. ) ;
#178 = ORIENTED_EDGE ( 'NONE', *, *, #4, .F. ) ;
#179 = EDGE_LOOP ( 'NONE', ( #95, #236, #98, #205 ) ) ;
#180 = DIRECTION ( 'NONE',  ( -0.000000000000000000, -0.000000000000000000, 1.000000000000000000 ) ) ;
#181 = ORIENTED_EDGE ( 'NONE', *, *, #57, .T. ) ;
#182 = ADVANCED_FACE ( 'NONE', ( #222 ), #244, .T. ) ;
#183 = DIRECTION ( 'NONE',  ( 1.000000000000000000, 0.000000000000000000, -0.000000000000000000 ) ) ;
#184 =( GEOMETRIC_REPRESENTATION_CONTEXT ( 3 ) GLOBAL_UNCERTAINTY_ASSIGNED_CONTEXT ( ( #102 ) ) GLOBAL_UNIT_ASSIGNED_CONTEXT ( ( #251, #204, #133 ) ) REPRESENTATION_CONTEXT ( 'NONE', 'WORKASPACE' ) );
#185 = DIRECTION ( 'NONE',  ( 1.000000000000000000, 0.000000000000000000, 0.000000000000000000 ) ) ;
#186 = DIRECTION ( 'NONE',  ( 1.000000000000000000, 0.000000000000000000, 0.000000000000000000 ) ) ;
#187 = ORIENTED_EDGE ( 'NONE', *, *, #88, .T. ) ;
#188 = EDGE_CURVE ( 'NONE', #229, #111, #43, .T. ) ;
#189 = CARTESIAN_POINT ( 'NONE',  ( 0.000000000000000000, -5.599999999999999645, -80.79991587212563786 ) ) ;
#190 = DIRECTION ( 'NONE',  ( 1.000000000000000000, 0.000000000000000000, 0.000000000000000000 ) ) ;
#191 = FACE_OUTER_BOUND ( 'NONE', #301, .T. ) ;
#192 = ORIENTED_EDGE ( 'NONE', *, *, #168, .T. ) ;
#193 = CARTESIAN_POINT ( 'NONE',  ( 0.000000000000000000, -5.599999999999999645, -81.79991587212563786 ) ) ;
#194 = AXIS2_PLACEMENT_3D ( 'NONE', #49, #239, #292 ) ;
#195 = DIRECTION ( 'NONE',  ( 0.000000000000000000, 0.000000000000000000, 1.000000000000000000 ) ) ;
#196 =( LENGTH_UNIT ( ) NAMED_UNIT ( * ) SI_UNIT ( .MILLI., .METRE. ) );
#197 = ADVANCED_FACE ( 'NONE', ( #191 ), #6, .T. ) ;
#198 = PRODUCT_CONTEXT ( 'NONE', #41, 'mechanical' ) ;
#199 = SHAPE_DEFINITION_REPRESENTATION ( #271, #287 ) ;
#200 = AXIS2_PLACEMENT_3D ( 'NONE', #122, #295, #166 ) ;
#201 = AXIS2_PLACEMENT_3D ( 'NONE', #233, #256, #20 ) ;
#202 = PLANE ( 'NONE',  #53 ) ;
#203 = SURFACE_SIDE_STYLE ('',( #226 ) ) ;
#204 =( NAMED_UNIT ( * ) PLANE_ANGLE_UNIT ( ) SI_UNIT ( $, .RADIAN. ) );
#205 = ORIENTED_EDGE ( 'NONE', *, *, #105, .F. ) ;
#206 = EDGE_CURVE ( 'NONE', #214, #298, #116, .T. ) ;
#207 = ORIENTED_EDGE ( 'NONE', *, *, #157, .T. ) ;
#208 = PRESENTATION_LAYER_ASSIGNMENT (  '', '', ( #34 ) ) ;
#209 = DIRECTION ( 'NONE',  ( 1.000000000000000000, 0.000000000000000000, 0.000000000000000000 ) ) ;
#210 = CARTESIAN_POINT ( 'NONE',  ( 1.350000000000000089, -5.599999999999999645, -85.59991587212563502 ) ) ;
#211 = DIRECTION ( 'NONE',  ( 1.000000000000000000, 0.000000000000000000, 0.000000000000000000 ) ) ;
#212 = CIRCLE ( 'NONE', #62, 1.350000000000000089 ) ;
#213 = CYLINDRICAL_SURFACE ( 'NONE', #159, 1.350000000000000089 ) ;
#214 = VERTEX_POINT ( 'NONE', #170 ) ;
#215 = CARTESIAN_POINT ( 'NONE',  ( 9.000000000000001776, -5.599999999999999645, -85.79991587212563786 ) ) ;
#216 = ORIENTED_EDGE ( 'NONE', *, *, #293, .F. ) ;
#217 = DIRECTION ( 'NONE',  ( -0.000000000000000000, -0.000000000000000000, -1.000000000000000000 ) ) ;
#218 = AXIS2_PLACEMENT_3D ( 'NONE', #147, #296, #31 ) ;
#219 = COLOUR_RGB ( '',0.7921568627450980005, 0.8196078431372548767, 0.9333333333333333481 ) ;
#220 = DIRECTION ( 'NONE',  ( 1.000000000000000000, 0.000000000000000000, 0.000000000000000000 ) ) ;
#221 = EDGE_LOOP ( 'NONE', ( #59, #146, #230, #15 ) ) ;
#222 = FACE_OUTER_BOUND ( 'NONE', #131, .T. ) ;
#223 = DIRECTION ( 'NONE',  ( 1.000000000000000000, 0.000000000000000000, 0.000000000000000000 ) ) ;
#224 = DIRECTION ( 'NONE',  ( -0.000000000000000000, -0.000000000000000000, 1.000000000000000000 ) ) ;
#225 = VECTOR ( 'NONE', #54, 1000.000000000000000 ) ;
#226 = SURFACE_STYLE_FILL_AREA ( #36 ) ;
#227 = ORIENTED_EDGE ( 'NONE', *, *, #206, .T. ) ;
#228 = LINE ( 'NONE', #129, #73 ) ;
#229 = VERTEX_POINT ( 'NONE', #267 ) ;
#230 = ORIENTED_EDGE ( 'NONE', *, *, #127, .F. ) ;
#231 = CARTESIAN_POINT ( 'NONE',  ( 0.000000000000000000, -5.599999999999999645, -80.79991587212563786 ) ) ;
#232 = CARTESIAN_POINT ( 'NONE',  ( 10.00000000000000000, -5.599999999999999645, -115.0841871195875399 ) ) ;
#233 = CARTESIAN_POINT ( 'NONE',  ( 0.000000000000000000, -5.599999999999999645, -89.41829249053299122 ) ) ;
#234 = CIRCLE ( 'NONE', #121, 9.000000000000001776 ) ;
#235 = CARTESIAN_POINT ( 'NONE',  ( -10.00000000000000000, -5.599999999999998757, -85.79991587212563786 ) ) ;
#236 = ORIENTED_EDGE ( 'NONE', *, *, #206, .F. ) ;
#237 = FACE_OUTER_BOUND ( 'NONE', #14, .T. ) ;
#238 = CIRCLE ( 'NONE', #284, 1.000000000000000888 ) ;
#239 = DIRECTION ( 'NONE',  ( -0.000000000000000000, -0.000000000000000000, -1.000000000000000000 ) ) ;
#240 = ORIENTED_EDGE ( 'NONE', *, *, #17, .T. ) ;
#241 = DIRECTION ( 'NONE',  ( 1.000000000000000000, 0.000000000000000000, 0.000000000000000000 ) ) ;
#242 = PRODUCT_RELATED_PRODUCT_CATEGORY ( 'part', '', ( #152 ) ) ;
#243 = CARTESIAN_POINT ( 'NONE',  ( 0.000000000000000000, -5.599999999999999645, -85.59991587212563502 ) ) ;
#244 = TOROIDAL_SURFACE ( 'NONE', #173, 9.000000000000001776, 1.000000000000000000 ) ;
#245 = DIRECTION ( 'NONE',  ( 1.000000000000000000, 0.000000000000000000, 0.000000000000000000 ) ) ;
#246 = ORIENTED_EDGE ( 'NONE', *, *, #168, .F. ) ;
#247 = VERTEX_POINT ( 'NONE', #270 ) ;
#248 = CIRCLE ( 'NONE', #21, 9.000000000000001776 ) ;
#249 = AXIS2_PLACEMENT_3D ( 'NONE', #138, #307, #183 ) ;
#250 = VERTEX_POINT ( 'NONE', #100 ) ;
#251 =( LENGTH_UNIT ( ) NAMED_UNIT ( * ) SI_UNIT ( .MILLI., .METRE. ) );
#252 = EDGE_LOOP ( 'NONE', ( #277, #42, #89, #187 ) ) ;
#253 = ORIENTED_EDGE ( 'NONE', *, *, #125, .F. ) ;
#254 = CARTESIAN_POINT ( 'NONE',  ( 0.000000000000000000, -5.599999999999999645, -81.79991587212563786 ) ) ;
#255 = AXIS2_PLACEMENT_3D ( 'NONE', #72, #117, #44 ) ;
#256 = DIRECTION ( 'NONE',  ( -0.000000000000000000, -0.000000000000000000, 1.000000000000000000 ) ) ;
#257 = ADVANCED_FACE ( 'NONE', ( #290 ), #80, .T. ) ;
#258 = FACE_OUTER_BOUND ( 'NONE', #278, .T. ) ;
#259 = CARTESIAN_POINT ( 'NONE',  ( 0.000000000000000000, -5.599999999999999645, -89.41829249053299122 ) ) ;
#260 = AXIS2_PLACEMENT_3D ( 'NONE', #282, #286, #211 ) ;
#261 = EDGE_CURVE ( 'NONE', #35, #247, #212, .T. ) ;
#262 = DIRECTION ( 'NONE',  ( 0.000000000000000000, 0.000000000000000000, 1.000000000000000000 ) ) ;
#263 = DIRECTION ( 'NONE',  ( 0.000000000000000000, 0.000000000000000000, 1.000000000000000000 ) ) ;
#264 = ORIENTED_EDGE ( 'NONE', *, *, #127, .T. ) ;
#265 = APPLICATION_CONTEXT ( 'automotive_design' ) ;
#266 = AXIS2_PLACEMENT_3D ( 'NONE', #9, #104, #79 ) ;
#267 = CARTESIAN_POINT ( 'NONE',  ( 1.350000000000000089, -5.599999999999999645, -80.79991587212563786 ) ) ;
#268 = UNCERTAINTY_MEASURE_WITH_UNIT (LENGTH_MEASURE( 1.000000000000000082E-05 ), #196, 'distance_accuracy_value', 'NONE');
#269 =( NAMED_UNIT ( * ) SI_UNIT ( $, .STERADIAN. ) SOLID_ANGLE_UNIT ( ) );
#270 = CARTESIAN_POINT ( 'NONE',  ( -1.350000000000000089, -5.599999999999999645, -85.59991587212563502 ) ) ;
#271 = PRODUCT_DEFINITION_SHAPE ( 'NONE', 'NONE',  #26 ) ;
#272 = CIRCLE ( 'NONE', #194, 1.350000000000000089 ) ;
#273 = CIRCLE ( 'NONE', #2, 10.00000000000000000 ) ;
#274 = EDGE_CURVE ( 'NONE', #156, #118, #145, .T. ) ;
#275 = CIRCLE ( 'NONE', #28, 1.000000000000000888 ) ;
#276 = VERTEX_POINT ( 'NONE', #32 ) ;
#277 = ORIENTED_EDGE ( 'NONE', *, *, #274, .F. ) ;
#278 = EDGE_LOOP ( 'NONE', ( #153, #192, #38, #22 ) ) ;
#279 =( GEOMETRIC_REPRESENTATION_CONTEXT ( 3 ) GLOBAL_UNCERTAINTY_ASSIGNED_CONTEXT ( ( #268 ) ) GLOBAL_UNIT_ASSIGNED_CONTEXT ( ( #196, #78, #269 ) ) REPRESENTATION_CONTEXT ( 'NONE', 'WORKASPACE' ) );
#280 = FILL_AREA_STYLE_COLOUR ( '', #219 ) ;
#281 = ORIENTED_EDGE ( 'NONE', *, *, #139, .F. ) ;
#282 = CARTESIAN_POINT ( 'NONE',  ( 0.000000000000000000, -5.599999999999999645, -85.79991587212563786 ) ) ;
#283 = CYLINDRICAL_SURFACE ( 'NONE', #201, 1.350000000000000089 ) ;
#284 = AXIS2_PLACEMENT_3D ( 'NONE', #114, #141, #308 ) ;
#285 = CARTESIAN_POINT ( 'NONE',  ( -9.000000000000001776, -5.599999999999998757, -85.79991587212563786 ) ) ;
#286 = DIRECTION ( 'NONE',  ( 0.000000000000000000, 0.000000000000000000, 1.000000000000000000 ) ) ;
#287 = ADVANCED_BREP_SHAPE_REPRESENTATION ( 'button-cap', ( #10, #136 ), #279 ) ;
#288 = DIRECTION ( 'NONE',  ( 1.000000000000000000, 0.000000000000000000, 0.000000000000000000 ) ) ;
#289 = TOROIDAL_SURFACE ( 'NONE', #171, 9.000000000000001776, 1.000000000000000000 ) ;
#290 = FACE_OUTER_BOUND ( 'NONE', #221, .T. ) ;
#291 = CARTESIAN_POINT ( 'NONE',  ( -10.00000000000000000, -5.599999999999998757, -115.0841871195875399 ) ) ;
#292 = DIRECTION ( 'NONE',  ( 1.000000000000000000, 0.000000000000000000, 0.000000000000000000 ) ) ;
#293 = EDGE_CURVE ( 'NONE', #250, #276, #234, .T. ) ;
#294 = AXIS2_PLACEMENT_3D ( 'NONE', #103, #1, #24 ) ;
#295 = DIRECTION ( 'NONE',  ( 0.000000000000000000, 0.000000000000000000, 1.000000000000000000 ) ) ;
#296 = DIRECTION ( 'NONE',  ( 0.000000000000000000, 0.000000000000000000, 1.000000000000000000 ) ) ;
#297 = ADVANCED_FACE ( 'NONE', ( #237 ), #126, .T. ) ;
#298 = VERTEX_POINT ( 'NONE', #50 ) ;
#299 = AXIS2_PLACEMENT_3D ( 'NONE', #231, #163, #67 ) ;
#300 = CARTESIAN_POINT ( 'NONE',  ( 10.00000000000000000, -5.599999999999999645, -85.79991587212563786 ) ) ;
#301 = EDGE_LOOP ( 'NONE', ( #174, #246 ) ) ;
#302 = ORIENTED_EDGE ( 'NONE', *, *, #261, .T. ) ;
#303 = ADVANCED_FACE ( 'NONE', ( #99 ), #55, .T. ) ;
#304 = ORIENTED_EDGE ( 'NONE', *, *, #101, .T. ) ;
#305 = ORIENTED_EDGE ( 'NONE', *, *, #101, .F. ) ;
#306 = DIRECTION ( 'NONE',  ( 0.000000000000000000, 0.000000000000000000, -1.000000000000000000 ) ) ;
#307 = DIRECTION ( 'NONE',  ( 0.000000000000000000, 0.000000000000000000, 1.000000000000000000 ) ) ;
#308 = DIRECTION ( 'NONE',  ( -1.000000000000000000, 0.000000000000000000, 0.000000000000000000 ) ) ;
#309 = FACE_BOUND ( 'NONE', #132, .T. ) ;
ENDSEC;
END-ISO-10303-21;
